<?xml version="1.0" encoding="UTF-8" standalone="no"?>
<svg
   xmlns:dc="http://purl.org/dc/elements/1.1/"
   xmlns:cc="http://creativecommons.org/ns#"
   xmlns:rdf="http://www.w3.org/1999/02/22-rdf-syntax-ns#"
   xmlns:svg="http://www.w3.org/2000/svg"
   xmlns="http://www.w3.org/2000/svg"
   xmlns:sodipodi="http://sodipodi.sourceforge.net/DTD/sodipodi-0.dtd"
   xmlns:inkscape="http://www.inkscape.org/namespaces/inkscape"
   version="1.0"
   width="29.759966mm"
   height="29.759958mm"
   id="svg133"
   sodipodi:docname="emhass_logo.svg"
   inkscape:version="1.0.1 (3bc2e813f5, 2020-09-07)"
   inkscape:export-filename="O:\code_dev\emhass-github\docs\images\emhass_logo.png"
   inkscape:export-xdpi="75"
   inkscape:export-ydpi="75">
  <metadata
     id="metadata137">
    <rdf:RDF>
      <cc:Work
         rdf:about="">
        <dc:format>image/svg+xml</dc:format>
        <dc:type
           rdf:resource="http://purl.org/dc/dcmitype/StillImage" />
        <dc:title></dc:title>
      </cc:Work>
    </rdf:RDF>
  </metadata>
  <sodipodi:namedview
     pagecolor="#ffffff"
     bordercolor="#666666"
     borderopacity="1"
     objecttolerance="10"
     gridtolerance="10"
     guidetolerance="10"
     inkscape:pageopacity="0"
     inkscape:pageshadow="2"
     inkscape:window-width="3072"
     inkscape:window-height="1850"
     id="namedview135"
     showgrid="false"
     inkscape:zoom="4.0000001"
     inkscape:cx="-125.05086"
     inkscape:cy="145.09738"
     inkscape:window-x="0"
     inkscape:window-y="32"
     inkscape:window-maximized="1"
     inkscape:current-layer="svg133"
     inkscape:document-rotation="0"
     fit-margin-top="0"
     fit-margin-left="0"
     fit-margin-right="0"
     fit-margin-bottom="0" />
  <defs
     id="defs9">
    <marker
       style="overflow:visible"
       id="marker1868"
       refX="0"
       refY="0"
       orient="auto"
       inkscape:stockid="Arrow1Send"
       inkscape:isstock="true">
      <path
         transform="matrix(-0.2,0,0,-0.2,-1.2,0)"
         style="fill:#000000;fill-opacity:1;fill-rule:evenodd;stroke:#000000;stroke-width:1pt;stroke-opacity:1"
         d="M 0,0 5,-5 -12.5,0 5,5 Z"
         id="path1866" />
    </marker>
    <marker
       style="overflow:visible"
       id="marker1816"
       refX="0"
       refY="0"
       orient="auto"
       inkscape:stockid="Arrow1Sstart"
       inkscape:isstock="true">
      <path
         transform="matrix(0.2,0,0,0.2,1.2,0)"
         style="fill:#000000;fill-opacity:1;fill-rule:evenodd;stroke:#000000;stroke-width:1pt;stroke-opacity:1"
         d="M 0,0 5,-5 -12.5,0 5,5 Z"
         id="path1814" />
    </marker>
    <marker
       style="overflow:visible"
       id="Arrow1Mstart"
       refX="0"
       refY="0"
       orient="auto"
       inkscape:stockid="Arrow1Mstart"
       inkscape:isstock="true">
      <path
         transform="matrix(0.4,0,0,0.4,4,0)"
         style="fill:#000000;fill-opacity:1;fill-rule:evenodd;stroke:#000000;stroke-width:1pt;stroke-opacity:1"
         d="M 0,0 5,-5 -12.5,0 5,5 Z"
         id="path1446" />
    </marker>
    <marker
       style="overflow:visible"
       id="Arrow1Lstart"
       refX="0"
       refY="0"
       orient="auto"
       inkscape:stockid="Arrow1Lstart"
       inkscape:isstock="true">
      <path
         transform="matrix(0.8,0,0,0.8,10,0)"
         style="fill:#000000;fill-opacity:1;fill-rule:evenodd;stroke:#000000;stroke-width:1pt;stroke-opacity:1"
         d="M 0,0 5,-5 -12.5,0 5,5 Z"
         id="path1440" />
    </marker>
    <inkscape:path-effect
       effect="bspline"
       id="path-effect1026"
       is_visible="true"
       weight="33.333333"
       steps="2"
       helper_size="0"
       apply_no_weight="true"
       apply_with_weight="true"
       only_selected="false"
       lpeversion="0" />
    <inkscape:path-effect
       effect="bspline"
       id="path-effect1022"
       is_visible="true"
       weight="33.333333"
       steps="2"
       helper_size="0"
       apply_no_weight="true"
       apply_with_weight="true"
       only_selected="false"
       lpeversion="0" />
    <inkscape:path-effect
       effect="bspline"
       id="path-effect1018"
       is_visible="true"
       weight="33.333333"
       steps="2"
       helper_size="0"
       apply_no_weight="true"
       apply_with_weight="true"
       only_selected="false"
       lpeversion="0" />
    <inkscape:path-effect
       effect="bspline"
       id="path-effect1014"
       is_visible="true"
       weight="33.333333"
       steps="2"
       helper_size="0"
       apply_no_weight="true"
       apply_with_weight="true"
       only_selected="false"
       lpeversion="0" />
    <inkscape:path-effect
       effect="bspline"
       id="path-effect1010"
       is_visible="true"
       weight="33.333333"
       steps="2"
       helper_size="0"
       apply_no_weight="true"
       apply_with_weight="true"
       only_selected="false"
       lpeversion="0" />
    <inkscape:path-effect
       effect="bspline"
       id="path-effect1006"
       is_visible="true"
       weight="33.333333"
       steps="2"
       helper_size="0"
       apply_no_weight="true"
       apply_with_weight="true"
       only_selected="false"
       lpeversion="0" />
    <inkscape:path-effect
       effect="bspline"
       id="path-effect1002"
       is_visible="true"
       weight="33.333333"
       steps="2"
       helper_size="0"
       apply_no_weight="true"
       apply_with_weight="true"
       only_selected="false"
       lpeversion="0" />
    <inkscape:path-effect
       effect="bspline"
       id="path-effect998"
       is_visible="true"
       weight="33.333333"
       steps="2"
       helper_size="0"
       apply_no_weight="true"
       apply_with_weight="true"
       only_selected="false"
       lpeversion="0" />
    <inkscape:path-effect
       effect="bspline"
       id="path-effect994"
       is_visible="true"
       weight="33.333333"
       steps="2"
       helper_size="0"
       apply_no_weight="true"
       apply_with_weight="true"
       only_selected="false"
       lpeversion="0" />
    <inkscape:path-effect
       effect="bspline"
       id="path-effect990"
       is_visible="true"
       weight="33.333333"
       steps="2"
       helper_size="0"
       apply_no_weight="true"
       apply_with_weight="true"
       only_selected="false"
       lpeversion="0" />
    <inkscape:path-effect
       effect="bspline"
       id="path-effect986"
       is_visible="true"
       weight="33.333333"
       steps="2"
       helper_size="0"
       apply_no_weight="true"
       apply_with_weight="true"
       only_selected="false"
       lpeversion="0" />
    <inkscape:path-effect
       effect="bspline"
       id="path-effect982"
       is_visible="true"
       weight="33.333333"
       steps="2"
       helper_size="0"
       apply_no_weight="true"
       apply_with_weight="true"
       only_selected="false"
       lpeversion="0" />
    <inkscape:path-effect
       effect="bspline"
       id="path-effect978"
       is_visible="true"
       weight="33.333333"
       steps="2"
       helper_size="0"
       apply_no_weight="true"
       apply_with_weight="true"
       only_selected="false"
       lpeversion="0" />
    <inkscape:path-effect
       effect="bspline"
       id="path-effect974"
       is_visible="true"
       weight="33.333333"
       steps="2"
       helper_size="0"
       apply_no_weight="true"
       apply_with_weight="true"
       only_selected="false"
       lpeversion="0" />
    <inkscape:path-effect
       effect="bspline"
       id="path-effect970"
       is_visible="true"
       weight="33.333333"
       steps="2"
       helper_size="0"
       apply_no_weight="true"
       apply_with_weight="true"
       only_selected="false"
       lpeversion="0" />
    <inkscape:path-effect
       effect="bspline"
       id="path-effect966"
       is_visible="true"
       weight="33.333333"
       steps="2"
       helper_size="0"
       apply_no_weight="true"
       apply_with_weight="true"
       only_selected="false"
       lpeversion="0" />
    <inkscape:path-effect
       effect="bspline"
       id="path-effect962"
       is_visible="true"
       weight="33.333333"
       steps="2"
       helper_size="0"
       apply_no_weight="true"
       apply_with_weight="true"
       only_selected="false"
       lpeversion="0" />
    <inkscape:path-effect
       effect="bspline"
       id="path-effect958"
       is_visible="true"
       weight="33.333333"
       steps="2"
       helper_size="0"
       apply_no_weight="true"
       apply_with_weight="true"
       only_selected="false"
       lpeversion="0" />
    <inkscape:path-effect
       effect="bspline"
       id="path-effect954"
       is_visible="true"
       weight="33.333333"
       steps="2"
       helper_size="0"
       apply_no_weight="true"
       apply_with_weight="true"
       only_selected="false"
       lpeversion="0" />
    <inkscape:path-effect
       effect="bspline"
       id="path-effect948"
       is_visible="true"
       weight="33.333333"
       steps="2"
       helper_size="0"
       apply_no_weight="true"
       apply_with_weight="true"
       only_selected="false"
       lpeversion="0" />
    <inkscape:path-effect
       effect="bspline"
       id="path-effect944"
       is_visible="true"
       weight="33.333333"
       steps="2"
       helper_size="0"
       apply_no_weight="true"
       apply_with_weight="true"
       only_selected="false"
       lpeversion="0" />
    <clipPath
       clipPathUnits="userSpaceOnUse"
       id="clipEmfPath1">
      <path
         d="M -15.203019,-7.5214934 H 648.12869 V 903.21934 H -15.203019 Z"
         id="path2"
         inkscape:connector-curvature="0" />
    </clipPath>
    <clipPath
       clipPathUnits="userSpaceOnUse"
       id="clipEmfPath2">
      <path
         d=""
         id="path5"
         inkscape:connector-curvature="0" />
    </clipPath>
    <pattern
       id="EMFhbasepattern"
       patternUnits="userSpaceOnUse"
       width="6"
       height="6"
       x="0"
       y="0" />
    <filter
       style="color-interpolation-filters:sRGB"
       inkscape:label="Drop Shadow"
       id="filter223">
      <feFlood
         flood-opacity="0.498039"
         flood-color="rgb(0,0,0)"
         result="flood"
         id="feFlood213" />
      <feComposite
         in="flood"
         in2="SourceGraphic"
         operator="in"
         result="composite1"
         id="feComposite215" />
      <feGaussianBlur
         in="composite1"
         stdDeviation="3"
         result="blur"
         id="feGaussianBlur217" />
      <feOffset
         dx="6"
         dy="6"
         result="offset"
         id="feOffset219" />
      <feComposite
         in="SourceGraphic"
         in2="offset"
         operator="over"
         result="composite2"
         id="feComposite221" />
    </filter>
    <marker
       style="overflow:visible"
       id="marker1816-9"
       refX="0"
       refY="0"
       orient="auto"
       inkscape:stockid="Arrow1Sstart"
       inkscape:isstock="true">
      <path
         transform="matrix(0.2,0,0,0.2,1.2,0)"
         style="fill:#000000;fill-opacity:1;fill-rule:evenodd;stroke:#000000;stroke-width:1pt;stroke-opacity:1"
         d="M 0,0 5,-5 -12.5,0 5,5 Z"
         id="path1814-4" />
    </marker>
    <marker
       style="overflow:visible"
       id="marker1868-3"
       refX="0"
       refY="0"
       orient="auto"
       inkscape:stockid="Arrow1Send"
       inkscape:isstock="true">
      <path
         transform="matrix(-0.2,0,0,-0.2,-1.2,0)"
         style="fill:#000000;fill-opacity:1;fill-rule:evenodd;stroke:#000000;stroke-width:1pt;stroke-opacity:1"
         d="M 0,0 5,-5 -12.5,0 5,5 Z"
         id="path1866-1" />
    </marker>
  </defs>
  <text
     xml:space="preserve"
     style="font-style:normal;font-variant:normal;font-weight:400;font-size:24px;line-height:125%;font-family:Calibri;text-align:start;letter-spacing:0px;word-spacing:0px;text-anchor:start;fill:#000000;fill-opacity:1;stroke:none"
     x="-100.35952"
     y="-100.95076"
     id="text77"
     inkscape:export-xdpi="200"
     inkscape:export-ydpi="200"><tspan
       sodipodi:role="line"
       x="-433.79651"
       y="-1.1230469e-07"
       id="tspan75"><tspan
         style="font-style:normal;font-variant:normal;font-weight:400;font-size:24px;font-family:Calibri;fill:#000000"
         id="tspan73" /></tspan></text>
  <text
     xml:space="preserve"
     style="font-style:normal;font-variant:normal;font-weight:400;font-size:24px;line-height:125%;font-family:Calibri;text-align:start;letter-spacing:0px;word-spacing:0px;text-anchor:start;fill:#000000;fill-opacity:1;stroke:none"
     x="387.81573"
     y="-100.95076"
     id="text95"
     inkscape:export-xdpi="200"
     inkscape:export-ydpi="200"><tspan
       sodipodi:role="line"
       x="-433.79651"
       y="-1.1230469e-07"
       id="tspan93"><tspan
         style="font-style:normal;font-variant:normal;font-weight:400;font-size:24px;font-family:Calibri;fill:#000000"
         id="tspan91" /></tspan></text>
  <g
     clip-path="url(#clipEmfPath1)"
     id="g125"
     inkscape:export-xdpi="200"
     inkscape:export-ydpi="200"
     transform="translate(-195.75995,41.35166)" />
  <path
     style="fill:#4d4d4d;fill-opacity:1;fill-rule:nonzero;stroke:none"
     clip-path="url(#clipEmfPath2)"
     d="m 74.019273,833.8563 h 31.108697 c 2.43037,0 3.88859,-1.69194 3.88859,-3.8673 v -73.4786 c 0,-1.20853 -0.24304,-2.41706 -1.45822,-3.14218 L 57.006705,714.69527 c -1.45822,-1.20853 -3.402514,-1.20853 -4.617697,0 L 1.8373764,753.36822 c -1.21518346,0.72512 -1.70125684,1.93365 -1.70125684,3.14218 v 73.4786 c 0,2.17536 1.70125684,3.8673 3.88858704,3.8673 H 35.133403 c 2.430367,0 3.888587,-1.69194 3.888587,-3.8673 V 795.18335 H 70.130686 V 829.989 c 0,2.17536 1.701257,3.8673 3.888587,3.8673 z"
     id="path127"
     inkscape:connector-curvature="0"
     inkscape:export-xdpi="200"
     inkscape:export-ydpi="200"
     transform="translate(-195.75995,41.35166)" />
  <flowRoot
     xml:space="preserve"
     id="flowRoot903"
     style="font-style:normal;font-weight:normal;font-size:40px;line-height:1.25;font-family:sans-serif;letter-spacing:0px;word-spacing:0px;fill:#000000;fill-opacity:1;stroke:none"
     inkscape:export-xdpi="200"
     inkscape:export-ydpi="200"
     transform="translate(-195.75995,41.35166)"><flowRegion
       id="flowRegion905"><rect
         id="rect907"
         width="260.39343"
         height="322.11633"
         x="-69.438248"
         y="-88.726639" /></flowRegion><flowPara
       id="flowPara909" /></flowRoot>
  <path
     style="fill:#000000"
     id="path243"
     d="" />
  <path
     style="fill:#000000"
     id="path241"
     d="" />
  <path
     style="fill:#000000"
     id="path239"
     d="" />
  <path
     style="fill:#000000;stroke-width:0.341511"
     d=""
     id="path281" />
  <path
     style="fill:#41bdf5;stroke:none;stroke-width:0.499905"
     d="M 0,0 V 112.47858 H 112.47861 V 0 H 0 m 79.98478,38.49266 c 0.001,-1.44622 -0.32544,-3.57076 0.80135,-4.6974 1.43972,-1.43917 7.95548,-1.43937 9.39521,0 2.80047,2.80086 0.039,11.02175 0.96032,14.6955 1.23426,4.92256 16.71083,14.49224 3.84026,14.49724 h -3.99923 v 22.99562 l -0.87084,7.98448 -8.62736,0.51391 c -10.9375,0.08363 0.79698,0 -50.49035,0 L 22.36694,93.9681 21.49595,85.98362 V 62.988 c -2.20668,0 -8.37575,1.0688 -9.37012,-1.5737 -1.02025,-2.71149 5.09199,-7.23063 6.75062,-9.08677 7.89855,-8.83892 16.74026,-16.94422 25.11522,-25.33267 2.77847,-2.78292 8.10646,-11.39873 12.49762,-11.03955 2.71848,0.22236 5.241,3.72319 6.97917,5.54059 5.46246,5.71262 10.92142,11.40163 16.51636,16.99676"
     id="path249"
     sodipodi:nodetypes="ccccccccccccccccccscsscc" />
  <path
     style="fill:#000000;stroke-width:0.0532206"
     d="m 51.00117,88.132424 c -0.16115,-0.06069 -0.43246,-0.227758 -0.53028,-0.32655 -0.0643,-0.06496 -0.26047,-0.363978 -0.26355,-0.401804 -8.1e-4,-0.01471 -0.0207,-0.05602 -0.0431,-0.09179 -0.0225,-0.03578 -0.0521,-0.168147 -0.0657,-0.294147 -0.0136,-0.126002 -0.039,-0.361459 -0.0566,-0.523241 -0.0175,-0.161781 -0.0354,-0.342281 -0.0394,-0.40111 -0.007,-0.09876 -0.1174,-0.181822 -0.28966,-0.217757 -0.0387,-0.0081 -0.11019,-0.0325 -0.1589,-0.05428 -0.0487,-0.0218 -0.10046,-0.04378 -0.11502,-0.04885 -0.12689,-0.04427 -0.30837,-0.127458 -0.73021,-0.334729 l -0.4919,-0.241689 -0.12057,0.114395 c -0.0664,0.06292 -0.14515,0.114394 -0.17517,0.114394 -0.0301,0 -0.0996,0.05022 -0.15459,0.111601 -0.14142,0.157808 -0.49949,0.39429 -0.70835,0.467807 -0.22475,0.07913 -0.67451,0.08026 -0.90815,0.0023 -0.18567,-0.06194 -1.59966,-1.421228 -1.55476,-1.494588 0.0127,-0.02072 -0.0109,-0.06612 -0.0525,-0.100899 -0.0956,-0.08008 -0.15462,-0.328316 -0.15964,-0.670883 -0.005,-0.310803 0.14447,-0.659446 0.39433,-0.922555 0.0907,-0.0956 0.14891,-0.173815 0.12916,-0.173815 -0.0197,0 0.0629,-0.10814 0.18346,-0.240311 l 0.21935,-0.240313 -0.20527,-0.414836 c -0.11289,-0.228159 -0.23552,-0.511102 -0.27248,-0.628761 -0.037,-0.117659 -0.0939,-0.247707 -0.12651,-0.288996 -0.0326,-0.04128 -0.0515,-0.08382 -0.042,-0.09448 0.009,-0.01068 0.002,-0.09121 -0.0174,-0.178967 -0.0294,-0.134892 -0.0606,-0.160185 -0.20262,-0.163645 -0.0923,-0.0022 -0.21558,-0.0145 -0.27383,-0.02722 -0.0583,-0.01272 -0.21318,-0.0355 -0.34426,-0.05061 -0.64622,-0.07452 -1.15794,-0.415688 -1.24082,-0.827257 -0.004,-0.01471 -0.0281,-0.06284 -0.0558,-0.106963 -0.0641,-0.101839 -0.0757,-1.844723 -0.0139,-2.059036 0.0254,-0.08825 0.0517,-0.184511 0.0582,-0.213925 0.0498,-0.224486 0.35662,-0.555743 0.64325,-0.694374 0.23808,-0.115147 0.23484,-0.114387 0.68155,-0.160539 0.1786,-0.01845 0.3843,-0.04184 0.45712,-0.05197 0.0729,-0.01014 0.1603,-0.02081 0.1944,-0.02373 0.0519,-0.0044 0.14318,-0.259179 0.12632,-0.352604 -0.004,-0.0155 0.0316,-0.09989 0.0764,-0.187514 0.0449,-0.08763 0.0818,-0.171357 0.082,-0.186064 6e-4,-0.05487 0.0697,-0.224902 0.22797,-0.562676 0.0896,-0.191196 0.16379,-0.364477 0.16481,-0.385066 8.1e-4,-0.02059 0.0293,-0.06509 0.0628,-0.0989 0.0458,-0.0463 0.0234,-0.117633 -0.0913,-0.289083 -0.0837,-0.125193 -0.18826,-0.257898 -0.23241,-0.294902 -0.0441,-0.037 -0.0672,-0.08862 -0.0514,-0.114702 0.0159,-0.02608 -0.008,-0.04742 -0.0536,-0.04742 -0.0454,0 -0.0773,-0.01804 -0.0707,-0.04011 0.006,-0.02206 -0.0285,-0.100671 -0.0775,-0.174688 -0.20023,-0.302082 -0.26296,-0.664629 -0.17177,-0.992732 0.0554,-0.199584 0.051,-0.186487 0.11835,-0.343429 0.0885,-0.206024 1.28141,-1.367272 1.54436,-1.50335 0.30232,-0.156455 0.79713,-0.164733 1.14333,-0.01912 0.13325,0.05605 0.46879,0.312207 0.7296,0.556989 0.16819,0.157864 0.2145,0.177512 0.29128,0.12359 0.11546,-0.08108 0.73019,-0.388172 0.77704,-0.388172 0.0192,0 0.13504,-0.04547 0.25725,-0.10106 0.12218,-0.05558 0.36515,-0.144589 0.53993,-0.197786 0.17477,-0.05321 0.32742,-0.103697 0.33919,-0.11221 0.0119,-0.0085 0.0275,-0.106026 0.0352,-0.216693 0.0174,-0.255995 0.10435,-0.822476 0.13139,-0.85636 0.006,-0.0074 0.0145,-0.03143 0.0191,-0.05348 0.0502,-0.23701 0.36412,-0.578952 0.66676,-0.726301 0.2175,-0.10589 0.32322,-0.116155 1.20907,-0.117431 0.53393,-7.83e-4 0.98219,0.0173 0.99616,0.04011 0.014,0.02284 0.0799,0.04151 0.14647,0.04151 0.0666,0 0.16421,0.04813 0.21693,0.106962 0.0527,0.05884 0.1177,0.106962 0.1444,0.106962 0.0882,0 0.37038,0.372572 0.43296,0.57169 0.0525,0.167085 0.14975,0.799162 0.16024,1.041668 0.005,0.108499 0.0593,0.168456 0.16841,0.184615 0.0451,0.0066 0.12189,0.02964 0.1706,0.05106 0.0487,0.0214 0.13434,0.04779 0.19031,0.05866 0.056,0.01087 0.12747,0.04042 0.15889,0.06565 0.0314,0.02523 0.11669,0.06349 0.18951,0.08501 0.19576,0.05788 0.78591,0.34462 0.81835,0.397607 0.0154,0.02519 0.0885,0.06114 0.16236,0.07986 0.104,0.02637 0.17283,-0.0024 0.30501,-0.127532 0.0939,-0.08886 0.18989,-0.161684 0.21332,-0.16182 0.0234,-1.61e-4 0.11875,-0.07234 0.21184,-0.160446 0.0931,-0.0881 0.19905,-0.163315 0.23546,-0.167127 0.11513,-0.01208 0.14397,-0.02086 0.21291,-0.06506 0.0842,-0.05405 0.65432,-0.03445 0.73129,0.02515 0.0314,0.02431 0.1102,0.05239 0.17506,0.06238 0.17083,0.02632 1.41311,1.295384 1.56158,1.595254 0.096,0.193865 0.12095,0.327418 0.11513,0.616083 -0.005,0.202708 -0.0298,0.40419 -0.057,0.447735 -0.0274,0.04355 -0.05,0.09308 -0.0503,0.110055 -7.9e-4,0.04376 -0.23072,0.346052 -0.46421,0.611227 -0.20596,0.233912 -0.24599,0.385017 -0.13239,0.499723 0.0363,0.03677 0.0682,0.0837 0.0707,0.10429 0.006,0.04835 0.0641,0.192725 0.19852,0.492028 0.0594,0.132367 0.11365,0.272629 0.12052,0.311695 0.007,0.03907 0.0298,0.111265 0.051,0.160444 0.0211,0.04918 0.0474,0.135661 0.0581,0.192181 0.0107,0.05652 0.0399,0.128721 0.0648,0.160445 0.0248,0.03172 0.0384,0.0998 0.0301,0.151271 -0.008,0.05148 0.0127,0.09598 0.0465,0.0989 0.13428,0.01158 0.33652,0.03901 0.53817,0.07298 0.11652,0.01963 0.28074,0.04709 0.36493,0.06102 0.45523,0.07528 0.82237,0.376622 0.9848,0.808335 0.0889,0.23614 0.0992,0.386683 0.0842,1.225124 -0.0171,0.966062 -0.0353,1.094228 -0.17923,1.263419 -0.0437,0.05148 -0.0593,0.09359 -0.0345,0.09359 0.0247,0 -0.0358,0.08423 -0.13459,0.187186 -0.0988,0.102951 -0.20782,0.187183 -0.24223,0.187183 -0.0344,0 -0.0927,0.03668 -0.12957,0.08151 -0.0369,0.04483 -0.0793,0.06911 -0.0943,0.05395 -0.015,-0.01517 -0.0533,-0.006 -0.0851,0.02034 -0.0318,0.02635 -0.21275,0.06359 -0.40209,0.08276 -0.18934,0.01918 -0.40381,0.04315 -0.47663,0.05329 -0.0729,0.01014 -0.1628,0.02081 -0.19993,0.02374 -0.0372,0.0029 -0.0915,0.07148 -0.12074,0.152379 -0.0292,0.08089 -0.068,0.183173 -0.0861,0.227296 -0.0181,0.04413 -0.0394,0.112184 -0.0473,0.15125 -0.008,0.03907 -0.0321,0.111266 -0.0536,0.160445 -0.0216,0.04918 -0.0418,0.101449 -0.0448,0.116157 -0.02,0.09574 -0.46366,0.962557 -0.50618,0.989096 -0.0582,0.03635 0.0868,0.264312 0.35652,0.560551 0.0944,0.103674 0.17189,0.210671 0.17213,0.237769 2.7e-4,0.02711 0.0329,0.08726 0.0727,0.133703 0.12187,0.142654 0.22988,0.553516 0.20983,0.798115 -0.0336,0.409464 -0.19041,0.644849 -0.90102,1.352312 -0.75312,0.749787 -0.91697,0.841898 -1.459,0.820235 -0.34304,-0.01371 -0.59139,-0.114392 -0.77864,-0.315665 -0.0702,-0.07544 -0.15721,-0.137157 -0.19339,-0.137157 -0.0362,0 -0.0741,-0.01804 -0.0842,-0.04011 -0.0102,-0.02206 -0.10618,-0.121821 -0.21347,-0.221689 l -0.19509,-0.181578 -0.41324,0.20737 c -0.22727,0.114053 -0.43112,0.210805 -0.45296,0.215003 -0.0218,0.0042 -0.0516,0.01365 -0.0662,0.02101 -0.0145,0.0073 -0.0444,0.01845 -0.0662,0.02467 -0.0218,0.0063 -0.0796,0.02913 -0.12828,0.05091 -0.0487,0.0218 -0.1202,0.04615 -0.15888,0.05415 -0.0387,0.0081 -0.11019,0.03206 -0.15888,0.05349 -0.0487,0.02142 -0.13211,0.04727 -0.18536,0.05748 -0.0533,0.01019 -0.10278,0.02337 -0.11007,0.02931 -0.007,0.0059 -0.0359,0.01378 -0.0635,0.01746 -0.1113,0.01479 -0.16123,0.132558 -0.18499,0.436465 -0.0138,0.175428 -0.0381,0.379126 -0.0543,0.452663 -0.0161,0.07354 -0.0422,0.204919 -0.058,0.29196 -0.0158,0.08705 -0.0542,0.189326 -0.0854,0.227296 -0.0312,0.03797 -0.037,0.06904 -0.0128,0.06904 0.0241,0 -0.0613,0.108301 -0.18991,0.240667 -0.12866,0.132367 -0.26177,0.240667 -0.29583,0.240667 -0.034,0 -0.0914,0.03583 -0.12738,0.07963 -0.0361,0.04379 -0.0849,0.06748 -0.10876,0.05261 -0.0238,-0.01486 -0.0578,-0.0033 -0.0756,0.02584 -0.0453,0.07414 -1.91742,0.05824 -2.11991,-0.01802 z m 1.99778,-6.411189 c 0.0501,-0.01032 0.10772,-0.03549 0.12799,-0.05595 0.0203,-0.02046 0.0877,-0.0372 0.14982,-0.0372 0.0621,0 0.13614,-0.02337 0.16444,-0.05194 0.0283,-0.02858 0.10403,-0.06005 0.16832,-0.06997 0.0642,-0.0099 0.21486,-0.0828 0.33463,-0.161975 0.11976,-0.07917 0.23737,-0.143962 0.26138,-0.143962 0.0732,0 1.00656,-0.972104 0.97804,-1.018691 -0.0146,-0.02396 -0.002,-0.05895 0.0283,-0.07777 0.0681,-0.04253 0.33208,-0.561466 0.28556,-0.561466 -0.0186,0 -0.007,-0.03197 0.0246,-0.07105 0.0322,-0.03908 0.069,-0.129328 0.082,-0.200555 0.013,-0.07122 0.0272,-0.129507 0.0316,-0.129507 0.0784,0 0.11564,-1.274361 0.0462,-1.577702 -0.0304,-0.132367 -0.0633,-0.281221 -0.0735,-0.330788 -0.0101,-0.04957 -0.0447,-0.139818 -0.0768,-0.200556 -0.0322,-0.06074 -0.042,-0.110434 -0.022,-0.110434 0.0201,0 5.9e-4,-0.04212 -0.043,-0.09359 -0.07,-0.08236 -0.16361,-0.28192 -0.15093,-0.321968 0.004,-0.008 -0.0554,-0.0799 -0.12899,-0.159897 -0.0735,-0.08 -0.13355,-0.165532 -0.13355,-0.190077 0,-0.07633 -0.5947,-0.678464 -0.6701,-0.678464 -0.0393,0 -0.0714,-0.02133 -0.0714,-0.04738 0,-0.02607 -0.0775,-0.0869 -0.17213,-0.135182 -0.0947,-0.04828 -0.20787,-0.110053 -0.25156,-0.137258 -0.11013,-0.06856 -0.45363,-0.220174 -0.53874,-0.237772 -0.0386,-0.0081 -0.10607,-0.02947 -0.14976,-0.04772 -0.0437,-0.01825 -0.13903,-0.04054 -0.21185,-0.04955 -0.0729,-0.009 -0.15624,-0.03041 -0.18535,-0.04757 -0.0291,-0.01716 -0.26747,-0.02528 -0.52963,-0.01802 -0.44049,0.01219 -0.56562,0.02706 -0.92498,0.109883 -0.14598,0.03365 -0.56818,0.212007 -0.69034,0.291633 -0.0437,0.02848 -0.12808,0.07329 -0.18753,0.09957 -0.0594,0.02629 -0.13983,0.08639 -0.17862,0.133577 -0.0387,0.04718 -0.0991,0.08579 -0.13416,0.08579 -0.0743,0 -0.72672,0.66842 -0.68937,0.706151 0.0139,0.01398 -0.0226,0.06912 -0.0811,0.122514 -0.0584,0.0534 -0.10625,0.12652 -0.10625,0.162481 0,0.03596 -0.0363,0.09583 -0.0807,0.133036 -0.0444,0.03721 -0.0681,0.08032 -0.0528,0.0958 0.0153,0.01549 -0.0117,0.07222 -0.06,0.126081 -0.0484,0.05387 -0.0692,0.09793 -0.0466,0.09793 0.0226,0 0.0157,0.03107 -0.0157,0.06904 -0.0312,0.03797 -0.0709,0.150262 -0.0882,0.249536 -0.0172,0.09927 -0.0433,0.199765 -0.0577,0.223313 -0.0702,0.114754 -0.10253,0.920601 -0.0545,1.361258 0.0221,0.202038 0.23872,0.879582 0.31075,0.971482 0.0287,0.03678 0.0366,0.06685 0.0172,0.06685 -0.0193,0 0.0242,0.06455 0.0966,0.143441 0.0725,0.07889 0.12179,0.159627 0.10969,0.179411 -0.0121,0.01978 0.0361,0.0911 0.10713,0.15848 0.071,0.06738 0.11654,0.14308 0.10117,0.16822 -0.0154,0.02514 0.0131,0.04572 0.0634,0.04572 0.0502,0 0.0771,0.01444 0.0596,0.03209 -0.0362,0.03661 0.30395,0.395762 0.37488,0.395762 0.0256,0 0.0896,0.04813 0.14236,0.106963 0.0527,0.05884 0.12424,0.106964 0.15889,0.106964 0.0347,0 0.10616,0.04813 0.15888,0.106961 0.0527,0.05884 0.11732,0.106964 0.14353,0.106964 0.0262,0 0.15024,0.0472 0.27563,0.104875 0.12539,0.05768 0.29687,0.118389 0.38107,0.134903 0.0842,0.01652 0.2365,0.04983 0.33844,0.07403 0.17179,0.04077 1.12828,0.03595 1.33575,-0.0067 z m 16.48576,-3.470753 c -0.0874,-0.03254 -0.19652,-0.09214 -0.2425,-0.13242 -0.046,-0.04029 -0.10737,-0.07323 -0.13642,-0.07323 -0.029,0 -0.10877,-0.06018 -0.17718,-0.133704 -0.0684,-0.07354 -0.10235,-0.134071 -0.0754,-0.134522 0.027,-4.26e-4 0.0225,-0.01851 -0.01,-0.04011 -0.0654,-0.04371 -0.25051,-0.386923 -0.20866,-0.386923 0.0147,0 0.004,-0.06345 -0.0265,-0.141002 -0.0292,-0.07755 -0.0658,-0.227966 -0.0813,-0.334258 -0.0156,-0.106293 -0.0402,-0.235168 -0.055,-0.286392 -0.0147,-0.05123 -0.0377,-0.159523 -0.051,-0.240666 -0.0133,-0.08114 -0.0401,-0.219732 -0.0597,-0.307977 -0.0195,-0.08825 -0.0317,-0.176186 -0.0272,-0.195427 0.0157,-0.06504 -0.11975,-0.141728 -0.27951,-0.158359 -0.0874,-0.0091 -0.18868,-0.03844 -0.22509,-0.06522 -0.0364,-0.02678 -0.0662,-0.035 -0.0662,-0.01828 0,0.01672 -0.13107,-0.01513 -0.29128,-0.07079 -0.16021,-0.05565 -0.29128,-0.08751 -0.29128,-0.07079 0,0.01672 -0.0317,0.0039 -0.0704,-0.02856 -0.0387,-0.03243 -0.11617,-0.0678 -0.17213,-0.07859 -0.056,-0.0108 -0.17327,-0.05137 -0.26065,-0.09017 -0.0874,-0.0388 -0.1708,-0.07458 -0.18536,-0.07951 -0.0146,-0.005 -0.086,-0.03357 -0.1589,-0.06366 -0.0729,-0.03008 -0.16814,-0.06709 -0.21184,-0.08224 -0.0498,-0.01726 -0.25781,0.144511 -0.55747,0.433543 -0.54398,0.524735 -0.65148,0.614874 -0.90419,0.758202 -0.16265,0.09226 -0.43623,0.171955 -0.57735,0.168192 -0.39923,-0.01065 -0.70361,-0.155729 -1.09663,-0.52269 -0.10798,-0.100802 -0.21098,-0.183277 -0.22892,-0.183277 -0.0179,0 -0.14409,-0.106572 -0.28036,-0.236827 -0.13625,-0.130254 -0.34307,-0.307493 -0.45958,-0.393862 -0.11652,-0.08637 -0.26963,-0.220464 -0.34024,-0.297988 -0.0706,-0.07751 -0.16397,-0.140952 -0.20744,-0.140952 -0.0436,0 -0.065,-0.0141 -0.0481,-0.03132 0.017,-0.01723 -0.0206,-0.09135 -0.0839,-0.16473 -0.0631,-0.07338 -0.11687,-0.149532 -0.11931,-0.169236 -0.003,-0.0197 -0.0311,-0.100828 -0.0639,-0.180277 -0.10889,-0.264478 -0.0796,-0.830788 0.0511,-0.989843 0.0312,-0.03797 0.0428,-0.06904 0.026,-0.06904 -0.0305,0 0.74116,-1.178906 0.80523,-1.230072 0.0709,-0.05667 0.0601,-0.254197 -0.0175,-0.319251 -0.0449,-0.03752 -0.0814,-0.09764 -0.0814,-0.133603 0,-0.03595 -0.0471,-0.10843 -0.10467,-0.161042 -0.0576,-0.05261 -0.0929,-0.114846 -0.0785,-0.138298 0.0144,-0.02345 0.002,-0.05775 -0.0277,-0.07623 -0.0428,-0.02673 -0.483,-0.883924 -0.50833,-0.989946 -0.004,-0.01471 -0.0361,-0.104958 -0.0725,-0.200557 -0.0633,-0.166545 -0.0785,-0.174061 -0.36536,-0.17973 -0.78418,-0.01549 -1.21543,-0.0382 -1.38505,-0.07294 -0.10197,-0.02085 -0.20921,-0.04286 -0.23833,-0.04888 -0.0291,-0.006 -0.15407,-0.07618 -0.27764,-0.15594 -0.23032,-0.148645 -0.47335,-0.476291 -0.51308,-0.691669 -0.0122,-0.06657 -0.0264,-0.121036 -0.0315,-0.121036 -0.0168,0 -0.047,-0.314853 -0.0746,-0.77548 -0.0149,-0.250027 -0.0405,-0.514759 -0.0568,-0.588294 -0.0615,-0.27753 -0.0731,-1.378077 -0.0165,-1.564125 0.10359,-0.34085 0.60932,-0.797141 0.95648,-0.86299 0.0657,-0.01246 0.1791,-0.03678 0.25191,-0.05403 0.0729,-0.01725 0.19199,-0.04132 0.26481,-0.05349 0.0729,-0.01215 0.19198,-0.03622 0.2648,-0.05349 0.0729,-0.01726 0.19815,-0.0421 0.27851,-0.05521 0.2285,-0.03727 0.35645,-0.08701 0.36366,-0.141324 0.004,-0.02744 0.0125,-0.09801 0.0198,-0.156838 0.007,-0.05883 0.0181,-0.112981 0.0238,-0.120334 0.013,-0.01622 0.035,-0.114839 0.0794,-0.356498 0.0185,-0.100476 0.0501,-0.208776 0.0703,-0.240668 0.0201,-0.03189 0.039,-0.09408 0.0419,-0.138203 0.004,-0.04412 0.023,-0.120457 0.0447,-0.169637 0.0216,-0.04918 0.0458,-0.12138 0.0535,-0.160446 0.008,-0.03907 0.0318,-0.111267 0.0529,-0.160445 0.0212,-0.04918 0.0434,-0.121375 0.0492,-0.160442 0.006,-0.03907 0.0335,-0.107129 0.0613,-0.15125 0.0278,-0.04413 0.0514,-0.09225 0.0521,-0.106966 5.9e-4,-0.01471 0.0345,-0.106521 0.0748,-0.204036 0.0728,-0.175633 0.0711,-0.179677 -0.17402,-0.431008 -0.13611,-0.139542 -0.23101,-0.270341 -0.21087,-0.290663 0.0201,-0.02033 0.007,-0.03696 -0.0289,-0.03696 -0.0851,0 -0.22161,-0.137843 -0.17905,-0.180817 0.0181,-0.01819 -0.008,-0.03312 -0.0586,-0.03312 -0.0502,0 -0.0766,-0.02409 -0.0587,-0.05348 0.018,-0.02939 -0.008,-0.05348 -0.0587,-0.05348 -0.0502,0 -0.0768,-0.01463 -0.0592,-0.03246 0.0177,-0.01788 -0.0274,-0.09609 -0.10025,-0.173815 -0.0729,-0.07773 -0.16854,-0.225557 -0.21271,-0.328514 -0.10565,-0.246294 -0.12852,-0.766243 -0.0412,-0.936227 0.0377,-0.07336 0.0587,-0.1334 0.0467,-0.1334 -0.0409,0 0.23747,-0.385877 0.46397,-0.643304 0.12434,-0.141324 0.26349,-0.306648 0.30922,-0.367382 0.0457,-0.06073 0.18408,-0.219174 0.30744,-0.352091 0.12337,-0.132913 0.20891,-0.241662 0.1901,-0.241662 -0.0187,0 0.10462,-0.145944 0.27429,-0.324324 0.29077,-0.305695 0.52123,-0.462226 0.743,-0.504671 0.0533,-0.01018 0.10275,-0.02337 0.11002,-0.02932 0.0501,-0.04077 0.39081,-0.01879 0.55132,0.03572 0.10659,0.03613 0.20406,0.0554 0.21659,0.04275 0.0125,-0.01265 0.066,0.0253 0.1189,0.08429 0.0529,0.05902 0.12452,0.107292 0.15918,0.107292 0.0347,0 0.10617,0.04812 0.15889,0.106962 0.0526,0.05884 0.12422,0.106961 0.15888,0.106961 0.0347,0 0.10617,0.04812 0.15889,0.106967 0.0527,0.05884 0.11696,0.106962 0.14275,0.106962 0.0258,0 0.11836,0.05336 0.20568,0.118543 0.14161,0.105732 0.17144,0.110448 0.27592,0.04367 0.0644,-0.0412 0.18217,-0.108094 0.2617,-0.148667 0.0795,-0.04059 0.15799,-0.09567 0.17437,-0.122439 0.0164,-0.0268 0.11815,-0.08937 0.22614,-0.139127 0.108,-0.04973 0.24998,-0.138825 0.31552,-0.197939 0.0655,-0.05913 0.11917,-0.0883 0.11917,-0.06486 0,0.02343 0.0358,0.01265 0.0794,-0.02397 0.0437,-0.03662 0.0794,-0.04788 0.0794,-0.025 0,0.02289 0.0487,-0.003 0.10847,-0.05757 0.0597,-0.0545 0.14493,-0.104522 0.18948,-0.111122 0.0446,-0.0066 0.15663,-0.04812 0.24903,-0.09223 0.0924,-0.04415 0.23035,-0.09591 0.30654,-0.11508 0.1342,-0.03378 0.13884,-0.04855 0.1484,-0.472091 0.0146,-0.64758 0.0666,-1.248241 0.11285,-1.306296 0.006,-0.0073 0.0137,-0.03143 0.0173,-0.05348 0.0238,-0.142589 0.26923,-0.452759 0.46441,-0.58702 0.24162,-0.166191 0.42638,-0.222018 0.86617,-0.26174 0.14564,-0.01319 0.37205,-0.03475 0.50313,-0.04799 1.23623,-0.124926 1.88317,-0.128256 2.12663,-0.01095 0.36844,0.17753 0.68309,0.615209 0.76025,1.057521 0.0169,0.0965 0.0425,0.194785 0.0569,0.218429 0.0145,0.02367 0.0377,0.154374 0.0515,0.290513 0.0138,0.136138 0.0443,0.287292 0.0677,0.335885 0.0233,0.04859 0.0393,0.124456 0.0355,0.168576 -0.0109,0.130274 0.082,0.213929 0.2379,0.213929 0.0802,0 0.24406,0.03505 0.36424,0.07785 0.12019,0.04282 0.21851,0.06393 0.21851,0.04692 0,-0.01698 0.0298,-0.0073 0.0662,0.02162 0.0364,0.02891 0.1377,0.06618 0.22508,0.08288 0.0874,0.01674 0.23039,0.05986 0.31777,0.09592 0.0874,0.03607 0.19632,0.0731 0.24209,0.08231 0.0458,0.0092 0.153,0.05354 0.23832,0.09846 0.0853,0.04492 0.17536,0.08184 0.20008,0.08203 0.0247,1.64e-4 0.12637,0.03932 0.22587,0.08702 l 0.18089,0.08668 0.47815,-0.47442 c 0.6106,-0.605834 0.85413,-0.740342 1.33309,-0.736289 0.47679,0.0042 0.75222,0.158458 1.43082,0.802214 0.16731,0.158735 0.32335,0.28861 0.34673,0.28861 0.0234,0 0.1356,0.09627 0.24937,0.213929 0.11377,0.117658 0.229,0.213924 0.25605,0.213924 0.0272,0 0.15642,0.108299 0.2875,0.240668 0.13108,0.132362 0.21958,0.240661 0.19668,0.240661 -0.0229,0 0.004,0.05065 0.0592,0.112581 0.0554,0.06193 0.0931,0.122486 0.0836,0.134597 -0.009,0.0121 8e-4,0.09982 0.0236,0.194942 0.0615,0.261033 0.0589,0.367791 -0.0141,0.587406 -0.0368,0.110296 -0.0523,0.200552 -0.0345,0.200552 0.0177,0 -0.006,0.04209 -0.0515,0.09359 -0.0462,0.05149 -0.0848,0.112183 -0.0861,0.134905 -0.003,0.04602 -0.12715,0.232381 -0.31458,0.470104 -0.0681,0.0864 -0.10567,0.157103 -0.0834,0.157103 0.0222,0 -0.007,0.05415 -0.0651,0.120331 -0.20832,0.237892 -0.28161,0.39532 -0.21522,0.462347 0.14395,0.145366 0.73254,1.264573 0.68845,1.309096 -0.0183,0.01846 -0.007,0.03356 0.0245,0.03356 0.0317,0 0.0859,0.08656 0.12055,0.192356 0.0346,0.105798 0.0948,0.254485 0.1338,0.330423 0.0389,0.07594 0.0589,0.157845 0.044,0.182019 -0.0148,0.02415 0.005,0.04618 0.0425,0.0489 0.0381,0.0026 0.23617,0.01351 0.44005,0.024 1.17539,0.06032 1.31856,0.08012 1.45936,0.201847 0.0573,0.04957 0.1231,0.09012 0.14619,0.09012 0.0722,0 0.38427,0.35274 0.34614,0.391257 -0.0199,0.02013 -0.0102,0.03658 0.0215,0.03658 0.0814,0 0.1871,0.352146 0.20071,0.668517 0.006,0.147074 0.0264,0.359083 0.0445,0.471131 0.0431,0.26641 0.0999,1.141026 0.10476,1.614646 0.005,0.421502 -0.0237,0.587532 -0.11529,0.679939 -0.0346,0.03491 -0.0629,0.08985 -0.0629,0.122125 0,0.141715 -0.52341,0.540935 -0.77021,0.587468 -0.057,0.01076 -0.10366,0.02338 -0.10366,0.02802 0,0.0047 -0.0715,0.01989 -0.15888,0.03383 -0.24043,0.03835 -0.37073,0.06399 -0.37073,0.07295 0,0.0044 -0.0476,0.01687 -0.10593,0.02759 -0.13105,0.02418 -0.46266,0.09387 -0.51637,0.108513 -0.0218,0.0059 -0.0733,0.01386 -0.11448,0.01753 -0.0412,0.0038 -0.0684,0.04881 -0.0606,0.10028 0.008,0.05148 -0.0171,0.183845 -0.0552,0.294146 -0.0382,0.110307 -0.0597,0.200558 -0.0476,0.200558 0.0119,0 -0.012,0.09627 -0.0529,0.213924 -0.0411,0.117661 -0.0633,0.213925 -0.0493,0.213925 0.0139,0 -0.0115,0.0722 -0.0566,0.160446 -0.0451,0.08824 -0.0667,0.160446 -0.0478,0.160446 0.0188,0 0.008,0.03197 -0.0241,0.07104 -0.0322,0.03908 -0.0664,0.117295 -0.0761,0.173816 -0.0168,0.09741 -0.19994,0.539998 -0.29884,0.721981 -0.0352,0.06484 0.0788,0.211418 0.49174,0.632064 0.6639,0.676276 0.78912,0.903824 0.78304,1.422793 -0.004,0.329649 -0.0217,0.423638 -0.0976,0.516048 -0.0326,0.03973 -0.0593,0.09222 -0.0591,0.116635 1e-4,0.02442 -0.074,0.126697 -0.16468,0.227297 -0.0906,0.100598 -0.15102,0.182907 -0.13414,0.182907 0.0169,0 -0.0703,0.108749 -0.19362,0.241664 -0.12336,0.132915 -0.26171,0.293075 -0.30744,0.355909 -0.0458,0.06283 -0.1962,0.239032 -0.33436,0.391546 -0.13818,0.152515 -0.2355,0.293187 -0.21626,0.312608 0.0192,0.01942 -0.006,0.03531 -0.0565,0.03531 -0.0502,0 -0.0766,0.02406 -0.0587,0.05349 0.018,0.02941 -0.005,0.05349 -0.0499,0.05349 -0.0454,0 -0.0766,0.02812 -0.0693,0.06248 0.007,0.03436 -0.0402,0.09065 -0.10555,0.125081 -0.0654,0.03444 -0.16255,0.10258 -0.21602,0.151446 -0.0535,0.04886 -0.14756,0.08884 -0.20907,0.08884 -0.0616,0 -0.12373,0.01936 -0.13823,0.04303 -0.0213,0.03483 -0.536,0.04676 -0.536,0.01242 0,-0.0055 -0.0494,-0.01936 -0.10967,-0.0309 -0.17665,-0.03377 -0.80413,-0.408648 -0.88254,-0.527262 -0.0214,-0.03237 -0.0393,-0.03867 -0.0398,-0.01399 -3.7e-4,0.02467 -0.0675,-0.01142 -0.14893,-0.08022 -0.0815,-0.0688 -0.23341,-0.171071 -0.33769,-0.227273 l -0.18956,-0.102187 -0.25812,0.16595 c -0.32633,0.209788 -1.48589,0.796353 -1.66161,0.840519 -0.30732,0.07724 -0.31705,0.106046 -0.33714,0.997609 -0.0154,0.682298 -0.0369,0.865891 -0.12459,1.063443 -0.21456,0.483248 -0.66021,0.786147 -1.22541,0.832883 -0.1644,0.0136 -0.41807,0.03759 -0.56372,0.05331 -0.96433,0.104137 -1.83404,0.132795 -2.01253,0.06632 z m 1.21811,-7.905331 c 0,-0.006 0.0715,-0.02033 0.15888,-0.03181 0.17152,-0.02252 0.36263,-0.06205 0.38398,-0.07943 0.007,-0.0059 0.0311,-0.01471 0.0529,-0.0195 0.35198,-0.07735 1.17186,-0.456122 1.28482,-0.593566 0.036,-0.04378 0.0928,-0.07959 0.1263,-0.07959 0.0722,0 0.86297,-0.812356 1.01513,-1.042889 0.26871,-0.40708 0.55357,-1.069774 0.63418,-1.475316 0.0141,-0.07102 0.0407,-0.201326 0.0591,-0.289568 0.122,-0.585427 -0.0149,-1.870711 -0.23927,-2.246223 -0.0176,-0.02941 -0.0337,-0.06552 -0.036,-0.08022 -0.0138,-0.09105 -0.20103,-0.46632 -0.27263,-0.546225 -0.0471,-0.05256 -0.0691,-0.09555 -0.0489,-0.09555 0.0202,0 -0.0139,-0.05415 -0.0757,-0.120334 -0.0618,-0.0662 -0.14375,-0.180502 -0.18197,-0.254037 -0.10949,-0.210701 -0.94946,-0.962669 -1.07534,-0.962669 -0.0283,0 -0.082,-0.0373 -0.11944,-0.08286 -0.069,-0.08392 -0.39102,-0.245827 -0.63336,-0.318414 -0.0729,-0.02183 -0.15623,-0.05765 -0.18536,-0.07963 -0.0291,-0.02198 -0.14829,-0.059 -0.26481,-0.08226 -0.11651,-0.02327 -0.2476,-0.05243 -0.29129,-0.06482 -0.17143,-0.04858 -1.34924,-0.05011 -1.55557,-0.002 -0.12024,0.02802 -0.27748,0.06235 -0.34939,0.07624 -0.0718,0.01389 -0.16587,0.05393 -0.20877,0.08897 -0.0506,0.04137 -0.0655,0.0427 -0.0426,0.0038 0.0196,-0.03294 -0.13675,0.026 -0.34731,0.130993 -0.21056,0.104991 -0.39734,0.192114 -0.41506,0.193606 -0.0177,0.0015 -0.16765,0.104995 -0.33318,0.230008 -0.16555,0.125014 -0.32525,0.227297 -0.35489,0.227297 -0.0296,0 -0.0391,0.02406 -0.0211,0.05348 0.018,0.02941 -0.006,0.05349 -0.0529,0.05349 -0.0471,0 -0.0709,0.02406 -0.0529,0.05348 0.018,0.02941 -0.006,0.05349 -0.0529,0.05349 -0.0471,0 -0.071,0.02407 -0.0529,0.05348 0.018,0.02941 -0.006,0.05349 -0.0529,0.05349 -0.0471,0 -0.071,0.02407 -0.0529,0.05349 0.018,0.02941 -0.006,0.05348 -0.0529,0.05348 -0.0471,0 -0.0727,0.02133 -0.0566,0.04742 0.0159,0.02609 -0.007,0.0777 -0.0514,0.1147 -0.17491,0.146596 -0.77074,1.17491 -0.68076,1.17491 0.0186,0 0.008,0.03108 -0.023,0.06904 -0.0543,0.06598 -0.14043,0.384994 -0.21257,0.786662 -0.04,0.222659 -0.0381,1.175533 0.003,1.45115 0.0359,0.241426 0.24928,0.905444 0.31996,0.995628 0.0287,0.03677 0.0347,0.06684 0.013,0.06684 -0.0217,0 -0.01,0.03635 0.027,0.08076 0.0365,0.04443 0.11688,0.174982 0.17861,0.290138 0.0617,0.115152 0.19026,0.295405 0.28564,0.400564 0.0954,0.105159 0.15585,0.191199 0.13439,0.191199 -0.0621,0 0.47547,0.539243 0.59254,0.594275 0.0582,0.02741 0.20126,0.121758 0.31777,0.209718 0.23456,0.177063 0.63133,0.382547 0.79329,0.41084 0.0577,0.01006 0.12795,0.04168 0.15624,0.07025 0.0284,0.02857 0.10228,0.05195 0.16442,0.05195 0.0621,0 0.12956,0.01676 0.14983,0.03719 0.0203,0.02048 0.0705,0.0422 0.1116,0.04827 0.0412,0.0061 0.17531,0.02528 0.29819,0.04264 0.12291,0.01735 0.23029,0.03844 0.23861,0.04686 0.0169,0.01707 0.94774,0.0044 0.94774,-0.01288 z m -25.2149,-1.98909 c -0.0151,-0.02469 -0.0819,-0.04487 -0.14851,-0.04487 -0.0666,0 -0.16422,-0.04813 -0.21694,-0.106963 -0.0527,-0.05883 -0.11769,-0.106961 -0.14438,-0.106961 -0.0735,0 -0.37628,-0.378827 -0.38467,-0.481334 -8e-4,-0.01471 -0.0187,-0.05283 -0.0388,-0.08472 -0.0201,-0.0319 -0.0482,-0.128156 -0.0623,-0.213926 -0.0548,-0.332102 -0.0959,-0.646039 -0.11152,-0.851201 -0.009,-0.11766 -0.0305,-0.298161 -0.0478,-0.40111 -0.0174,-0.102953 -0.0418,-0.339887 -0.0543,-0.526517 -0.0147,-0.220474 -0.0548,-0.375137 -0.1143,-0.441551 -0.0503,-0.05622 -0.10185,-0.09187 -0.11436,-0.07923 -0.0202,0.02044 -0.32694,-0.07282 -0.54282,-0.165005 -0.0437,-0.01866 -0.11108,-0.04047 -0.14975,-0.04847 -0.0387,-0.0081 -0.15784,-0.05759 -0.26481,-0.110226 -0.10696,-0.05262 -0.21236,-0.0996 -0.23421,-0.1044 -0.0218,-0.0048 -0.0516,-0.01475 -0.0662,-0.0221 -0.0145,-0.0074 -0.0444,-0.01691 -0.0662,-0.02124 -0.0218,-0.0043 -0.29496,-0.135068 -0.60691,-0.290502 -0.61263,-0.305247 -0.63915,-0.306471 -0.88525,-0.04077 -0.0706,0.07624 -0.16139,0.138617 -0.20172,0.138617 -0.0403,0 -0.0586,0.02406 -0.0406,0.05348 0.018,0.02941 0.006,0.05349 -0.0275,0.05349 -0.0562,0 -0.24254,0.145193 -0.73808,0.574924 -0.11025,0.0956 -0.22366,0.173817 -0.25203,0.173817 -0.0284,0 -0.0914,0.04444 -0.14009,0.09875 -0.17667,0.197144 -0.94308,0.301032 -1.13277,0.153548 -0.0363,-0.02829 -0.0662,-0.03594 -0.0662,-0.01696 0,0.106057 -0.42659,-0.281485 -1.5787,-1.434176 -1.3522,-1.352899 -1.49596,-1.541595 -1.50476,-1.974987 -0.0105,-0.513514 0.0911,-0.763067 0.48156,-1.183746 0.12196,-0.1314 0.22264,-0.257621 0.22372,-0.280487 8.1e-4,-0.02289 0.0725,-0.119794 0.15862,-0.215398 0.0861,-0.09559 0.14356,-0.173809 0.12758,-0.173809 -0.0255,0 0.18833,-0.254893 0.38776,-0.4621 0.0386,-0.03999 0.0527,-0.07272 0.0314,-0.07272 -0.0211,0 -0.004,-0.0421 0.0393,-0.09359 0.0428,-0.05149 0.0743,-0.117655 0.0698,-0.14707 -0.0144,-0.09688 -0.0932,-0.266038 -0.16194,-0.347628 -0.0372,-0.04415 -0.0724,-0.104294 -0.0781,-0.133707 -0.0208,-0.105967 -0.0675,-0.215271 -0.12209,-0.286172 -0.0306,-0.03975 -0.0604,-0.0999 -0.0664,-0.1337 -0.006,-0.03378 -0.0532,-0.157729 -0.10504,-0.275386 -0.0519,-0.117657 -0.0978,-0.225961 -0.10198,-0.240667 -0.008,-0.02716 -0.10709,-0.281241 -0.16722,-0.427852 -0.0181,-0.04415 -0.0394,-0.112183 -0.0474,-0.15125 -0.008,-0.03909 -0.0317,-0.111268 -0.053,-0.160439 -0.0211,-0.04921 -0.0476,-0.137044 -0.0585,-0.195236 -0.034,-0.179548 -0.11592,-0.213429 -0.65256,-0.269924 -0.13107,-0.01385 -0.34556,-0.03722 -0.47664,-0.05203 -0.22205,-0.02512 -0.6449,-0.07138 -0.95332,-0.104318 -0.0729,-0.0078 -0.17224,-0.0315 -0.22094,-0.0527 -0.0487,-0.0212 -0.12021,-0.04378 -0.15889,-0.05022 -0.19885,-0.03313 -0.61935,-0.438608 -0.68755,-0.66301 -0.006,-0.0215 -0.0428,-0.09921 -0.0807,-0.172743 -0.0529,-0.1028 -0.0682,-0.578673 -0.0659,-2.058771 0.004,-1.680892 0.0137,-1.936965 0.087,-2.018923 0.0462,-0.05161 0.0649,-0.09386 0.0411,-0.09386 -0.0236,0 2.4e-4,-0.04812 0.0529,-0.106966 0.0527,-0.05884 0.0792,-0.106963 0.0588,-0.106963 -0.0533,0 0.17805,-0.223636 0.36494,-0.352832 0.17798,-0.123046 0.60749,-0.234711 1.00626,-0.261607 0.14564,-0.0098 0.26481,-0.02198 0.26481,-0.02704 0,-0.01277 0.37534,-0.05293 0.66326,-0.07096 0.13177,-0.0082 0.26284,-0.02873 0.29129,-0.04547 0.0284,-0.01674 0.0924,-0.02385 0.14208,-0.01571 0.10932,0.01783 0.19064,-0.07238 0.22242,-0.246714 0.013,-0.07122 0.0285,-0.135525 0.0342,-0.142878 0.006,-0.0073 0.0165,-0.0374 0.0237,-0.06684 0.007,-0.02939 0.0181,-0.0595 0.0238,-0.06685 0.006,-0.0073 0.0185,-0.05402 0.0279,-0.103775 0.0336,-0.175351 0.14795,-0.498698 0.19985,-0.564744 0.0289,-0.03679 0.0349,-0.06685 0.0131,-0.06685 -0.0217,0 -0.0132,-0.03197 0.0188,-0.07105 0.0322,-0.03909 0.0659,-0.120968 0.0752,-0.181968 0.009,-0.06101 0.0484,-0.14937 0.087,-0.196362 0.0387,-0.04697 0.0568,-0.08543 0.0406,-0.08543 -0.0162,0 0.0881,-0.234031 0.23184,-0.520077 0.14379,-0.286045 0.26144,-0.527249 0.26144,-0.536011 0,-0.0087 -0.0984,-0.123691 -0.21859,-0.255405 -0.12023,-0.131706 -0.20271,-0.239469 -0.18331,-0.239469 0.0195,0 -0.0162,-0.05414 -0.0792,-0.120331 -0.0629,-0.0662 -0.18475,-0.216603 -0.27067,-0.33426 -0.0859,-0.117657 -0.23888,-0.304173 -0.33991,-0.414482 -0.10105,-0.110304 -0.16715,-0.200555 -0.14689,-0.200555 0.0203,0 8e-4,-0.0421 -0.0428,-0.09359 -0.1371,-0.161216 -0.21637,-0.415778 -0.21232,-0.68189 0.005,-0.293934 0.0418,-0.497251 0.10556,-0.574832 0.0348,-0.04223 0.0518,-0.08813 0.0382,-0.10198 -0.0138,-0.01385 0.0561,-0.111893 0.15501,-0.217849 0.099,-0.105962 0.16601,-0.206727 0.14898,-0.223926 -0.017,-0.01716 -0.002,-0.03125 0.0346,-0.03125 0.0851,0 0.2216,-0.137849 0.17905,-0.180819 -0.0181,-0.01825 -0.004,-0.03313 0.0328,-0.03313 0.0851,0 0.22162,-0.13785 0.17905,-0.180819 -0.0181,-0.01824 -0.004,-0.03307 0.0328,-0.03307 0.0851,0 0.22163,-0.137843 0.17907,-0.180817 -0.0181,-0.01825 -0.004,-0.03313 0.0328,-0.03313 0.0851,0 0.22162,-0.137844 0.17907,-0.180818 -0.0181,-0.01819 -0.004,-0.03307 0.0328,-0.03307 0.0851,0 0.22162,-0.137844 0.17905,-0.180818 -0.0181,-0.01825 -0.004,-0.03307 0.0328,-0.03307 0.0851,0 0.22162,-0.137851 0.17907,-0.18082 -0.0181,-0.01825 -0.004,-0.03312 0.0328,-0.03312 0.0851,0 0.22161,-0.137851 0.17906,-0.180818 -0.0181,-0.01825 -0.004,-0.03313 0.0328,-0.03313 0.0851,0 0.22162,-0.137843 0.17907,-0.180819 -0.0181,-0.01824 -0.004,-0.03312 0.0328,-0.03312 0.0851,0 0.2216,-0.137844 0.17906,-0.18082 -0.0181,-0.01824 -0.004,-0.03312 0.0328,-0.03312 0.0851,0 0.22161,-0.137844 0.17905,-0.180819 -0.0181,-0.01825 0.005,-0.03307 0.0489,-0.03307 0.0451,0 0.11182,-0.03656 0.14853,-0.0812 0.12832,-0.156146 0.43299,-0.259132 0.76663,-0.259132 0.48901,0 0.71564,0.121505 1.50765,0.808302 0.11025,0.0956 0.2214,0.173989 0.24699,0.174194 0.0256,2.11e-4 0.14187,0.0953 0.25838,0.211303 0.22408,0.223095 0.39401,0.268738 0.50368,0.135297 0.0621,-0.07567 0.68996,-0.40301 0.77959,-0.406496 0.0224,-6.03e-4 0.0825,-0.03969 0.13345,-0.08629 0.051,-0.04655 0.0927,-0.066 0.0927,-0.04312 0,0.02288 0.0358,0.01162 0.0794,-0.025 0.0437,-0.03661 0.0794,-0.05204 0.0794,-0.0342 0,0.01784 0.0775,-0.01151 0.17213,-0.06517 0.0947,-0.05366 0.26745,-0.128581 0.38396,-0.166504 0.11651,-0.03795 0.24165,-0.09282 0.27806,-0.122011 0.0364,-0.02921 0.0662,-0.03939 0.0662,-0.02265 0,0.01674 0.13108,-0.01511 0.29129,-0.07079 0.16021,-0.05564 0.29128,-0.08565 0.29128,-0.06664 0,0.07218 0.12667,-0.09712 0.13981,-0.186854 0.0552,-0.377546 0.083,-0.611542 0.0999,-0.844875 0.0108,-0.148172 0.0352,-0.352742 0.0544,-0.45459 0.0191,-0.101855 0.0419,-0.28586 0.0503,-0.408895 0.008,-0.123046 0.0353,-0.255409 0.0598,-0.294151 0.0244,-0.03872 0.0451,-0.08246 0.0464,-0.09718 0.005,-0.05119 0.21175,-0.348321 0.31753,-0.454591 0.0585,-0.05884 0.20864,-0.160481 0.33352,-0.22589 0.22208,-0.116325 0.26784,-0.118927 2.09316,-0.118927 2.0114,0 2.15308,0.01608 2.42061,0.27423 0.0859,0.08294 0.18173,0.150804 0.21283,0.150804 0.0311,0 0.0419,0.02409 0.0238,0.05348 -0.018,0.02946 -0.0116,0.05348 0.0144,0.05348 0.0954,0 0.2914,0.485858 0.30212,0.748736 0.005,0.102957 0.0285,0.319552 0.0542,0.481336 0.0256,0.161782 0.0497,0.354313 0.0536,0.427851 0.0169,0.319771 0.0961,0.78086 0.14477,0.842334 0.0291,0.03679 0.10559,0.06685 0.17,0.06685 0.0644,0 0.13497,0.01801 0.15681,0.0401 0.0218,0.02204 0.0556,0.04071 0.075,0.04138 0.10343,0.0036 0.54521,0.1537 0.56943,0.193236 0.0156,0.02541 0.0738,0.04613 0.12943,0.04613 0.0556,0 0.18549,0.04782 0.28854,0.106276 0.10304,0.05841 0.19315,0.104883 0.20021,0.103196 0.007,-0.0018 0.0843,0.02668 0.17174,0.06306 0.0874,0.03637 0.1708,0.07017 0.18537,0.0751 0.15588,0.05275 0.31422,0.138103 0.34276,0.184758 0.0194,0.03167 0.0548,0.04547 0.0785,0.03059 0.0238,-0.01487 0.0747,0.01133 0.11333,0.05817 0.10095,0.122825 0.50908,0.285565 0.44223,0.176333 -0.0165,-0.0268 0.002,-0.04902 0.0395,-0.04939 0.0381,-3.13e-4 0.16504,-0.09057 0.28203,-0.200554 0.2688,-0.252718 0.64175,-0.546797 0.69778,-0.550229 0.0235,-0.0018 0.13814,-0.09754 0.25467,-0.21355 0.11652,-0.116007 0.24163,-0.211087 0.27804,-0.211298 0.11886,-6.03e-4 0.14474,-0.0087 0.21339,-0.06625 0.11494,-0.09634 0.60183,-0.08518 0.88483,0.0203 0.22382,0.0834 0.46081,0.296146 1.5548,1.395667 1.38185,1.388848 1.49853,1.546108 1.51763,2.045432 0.0125,0.326196 -0.1295,0.738125 -0.3257,0.944917 -0.0794,0.08362 -0.12189,0.152394 -0.0946,0.152845 0.0273,3.85e-4 0.0245,0.01849 -0.006,0.0401 -0.0308,0.02162 -0.22009,0.243859 -0.42065,0.493887 -0.20056,0.250026 -0.38985,0.47227 -0.42065,0.493879 -0.0308,0.02163 -0.0352,0.03969 -0.01,0.04011 0.0254,3.86e-4 0.0145,0.03932 -0.0241,0.08644 -0.0893,0.108575 -0.10699,0.225521 -0.0405,0.266997 0.0482,0.03005 0.12535,0.194447 0.14833,0.315904 0.006,0.02939 0.0405,0.08958 0.0778,0.1337 0.0647,0.07669 0.11099,0.178692 0.1337,0.294152 0.006,0.02939 0.0428,0.08957 0.0824,0.133701 0.0396,0.04415 0.072,0.09884 0.0723,0.121595 2.6e-4,0.02277 0.0504,0.179186 0.11152,0.347629 0.12352,0.340565 0.14446,0.401029 0.15232,0.439963 0.004,0.0147 0.0635,0.1993 0.13454,0.410206 0.071,0.210905 0.11534,0.397422 0.0985,0.414482 -0.0169,0.01704 0.0329,0.03402 0.11051,0.0377 0.22856,0.01084 0.45799,0.03258 0.47225,0.04475 0.007,0.0062 0.0967,0.01969 0.19859,0.02993 0.10196,0.01023 0.29262,0.0318 0.42371,0.04806 0.13107,0.0162 0.34556,0.0427 0.47664,0.05885 0.38502,0.04752 0.67345,0.137314 0.78849,0.245529 0.0591,0.05559 0.12204,0.101066 0.13991,0.101066 0.0178,0 0.0681,0.03613 0.11191,0.08022 0.0437,0.04415 0.0649,0.08022 0.0471,0.08022 -0.0177,0 0.0127,0.04878 0.0678,0.108437 0.21587,0.233989 0.24069,0.474337 0.2452,2.374892 0.004,1.413576 -0.0112,1.84515 -0.0662,1.952069 -0.0388,0.07549 -0.0718,0.149298 -0.0731,0.164005 -0.0232,0.236481 -0.45182,0.646555 -0.75786,0.724983 -0.25933,0.06646 -0.52316,0.105168 -1.05924,0.155429 -0.11651,0.0109 -0.21184,0.02409 -0.21184,0.02927 0,0.0054 -0.13108,0.02 -0.29129,0.03299 -0.53211,0.04312 -0.54806,0.04866 -0.64547,0.224751 -0.0516,0.09329 -0.0839,0.169623 -0.0716,0.169623 0.0334,0 -0.13747,0.498023 -0.19722,0.574921 -0.0285,0.03674 -0.0365,0.06685 -0.0176,0.06685 0.0188,0 -0.004,0.07195 -0.0476,0.159886 -0.0451,0.08794 -0.0781,0.166154 -0.0734,0.173814 0.0151,0.025 -0.21779,0.53809 -0.47979,1.056817 -0.19105,0.378235 -0.24117,0.523113 -0.19608,0.566901 0.14612,0.141962 0.40586,0.450603 0.40235,0.478095 -0.005,0.03246 0.22544,0.323288 0.5453,0.690832 0.10923,0.125516 0.1986,0.251869 0.1986,0.280788 0,0.0289 0.0478,0.09628 0.10626,0.149684 0.0584,0.05341 0.0965,0.106968 0.0845,0.119029 -0.012,0.01205 0.008,0.07953 0.0439,0.149913 0.10583,0.205986 0.0677,0.774141 -0.0702,1.046216 -0.16845,0.332355 -2.49639,2.685624 -2.81708,2.847738 -0.36297,0.183484 -0.82677,0.188778 -1.18157,0.01351 -0.15197,-0.07509 -0.33278,-0.197208 -0.40178,-0.271383 -0.069,-0.07418 -0.14535,-0.134866 -0.16966,-0.134866 -0.0392,0 -0.25211,-0.173035 -0.44407,-0.360999 -0.0375,-0.03678 -0.0892,-0.06685 -0.11464,-0.06685 -0.0256,0 -0.12146,-0.07822 -0.21325,-0.173813 -0.0918,-0.0956 -0.24594,-0.216765 -0.34256,-0.269258 l -0.17565,-0.09544 -0.51587,0.265228 c -0.28375,0.145878 -0.49959,0.236961 -0.47965,0.202407 0.0199,-0.03456 -0.01,-0.0226 -0.0655,0.02659 -0.056,0.04919 -0.16755,0.106002 -0.24793,0.12626 -0.0804,0.02024 -0.15926,0.05823 -0.17525,0.08439 -0.0159,0.02616 -0.0825,0.04756 -0.1478,0.04756 -0.0652,0 -0.14185,0.02338 -0.17014,0.05195 -0.0283,0.02857 -0.0986,0.06105 -0.15623,0.07219 -0.0577,0.01114 -0.14464,0.03774 -0.19333,0.05913 -0.0487,0.0214 -0.12547,0.04436 -0.1706,0.05106 -0.0451,0.0066 -0.0986,0.02892 -0.11889,0.04936 -0.0203,0.02048 -0.0895,0.03719 -0.15392,0.03719 -0.20482,0 -0.25448,0.13818 -0.31717,0.882443 -0.0149,0.176488 -0.038,0.381055 -0.0514,0.454592 -0.0134,0.07353 -0.0377,0.285019 -0.0539,0.46996 -0.0162,0.184939 -0.054,0.401539 -0.0842,0.481332 -0.0301,0.07979 -0.0514,0.145078 -0.0475,0.145078 0.005,0 -0.01,0.04813 -0.0302,0.10696 -0.0631,0.180196 -0.40651,0.509677 -0.65784,0.631225 -0.22935,0.110907 -0.30886,0.115477 -2.10738,0.121136 -1.02796,0.0031 -1.88139,-0.01432 -1.89649,-0.03898 z m 2.83871,-9.63713 c 0.0437,-0.0095 0.17478,-0.03625 0.29129,-0.0595 0.11652,-0.02325 0.24164,-0.06618 0.27805,-0.09536 0.0363,-0.0292 0.0662,-0.03914 0.0662,-0.02216 0,0.05119 0.69672,-0.212165 0.90034,-0.340307 0.0437,-0.02752 0.17477,-0.09717 0.2913,-0.15482 0.1165,-0.05764 0.27633,-0.166384 0.35516,-0.241614 0.0788,-0.07523 0.16178,-0.136783 0.18432,-0.136783 0.0533,0 0.9699,-0.920985 0.9699,-0.974517 0,-0.02247 0.0486,-0.09722 0.10792,-0.16616 0.17023,-0.197705 0.58408,-0.99374 0.65816,-1.265989 0.005,-0.01469 0.0506,-0.171141 0.10376,-0.347628 0.0531,-0.176495 0.10221,-0.38106 0.10921,-0.454592 0.007,-0.07353 0.0305,-0.23912 0.0523,-0.367966 0.0452,-0.26808 0.0464,-0.984352 0.002,-1.182995 -0.0165,-0.07354 -0.0402,-0.224763 -0.0529,-0.336061 -0.0125,-0.111292 -0.0347,-0.221613 -0.049,-0.245166 -0.0144,-0.02355 -0.0402,-0.122993 -0.0573,-0.221 -0.0171,-0.098 -0.0473,-0.204275 -0.0669,-0.236163 -0.0197,-0.03185 -0.0407,-0.08994 -0.0466,-0.129008 -0.006,-0.03909 -0.0284,-0.111268 -0.05,-0.160446 -0.0216,-0.04921 -0.0434,-0.101451 -0.0484,-0.116157 -0.0481,-0.14038 -0.10866,-0.256073 -0.17516,-0.33426 -0.0438,-0.05149 -0.0603,-0.09359 -0.0368,-0.09359 0.0236,0 -2.6e-4,-0.04812 -0.0529,-0.106961 -0.0527,-0.05884 -0.0757,-0.106962 -0.0514,-0.106962 0.0246,0 -0.0218,-0.06996 -0.10289,-0.155447 -0.0811,-0.0855 -0.14782,-0.175747 -0.14823,-0.20056 -0.004,-0.175777 -1.0287,-1.198039 -1.316,-1.31154 -0.0505,-0.02 -0.10699,-0.06082 -0.12528,-0.0907 -0.031,-0.05053 -0.87956,-0.487977 -0.94667,-0.487977 -0.0168,0 -0.0974,-0.02578 -0.17937,-0.05721 -0.082,-0.0315 -0.16102,-0.05841 -0.17557,-0.05991 -0.0146,-0.0018 -0.0855,-0.0253 -0.15759,-0.053 -0.0721,-0.02771 -0.22248,-0.06324 -0.33416,-0.07901 -0.11168,-0.01579 -0.23144,-0.03307 -0.26612,-0.03836 -0.0347,-0.0054 -0.0965,-0.03078 -0.13743,-0.05654 -0.0553,-0.03493 -0.0629,-0.0277 -0.0295,0.02824 0.0352,0.05902 0.0285,0.06246 -0.0315,0.01601 -0.11476,-0.08882 -1.10644,-0.05366 -1.60218,0.05679 -0.0347,0.0078 -0.16485,0.03264 -0.2893,0.05528 -0.12444,0.0227 -0.23905,0.06217 -0.25469,0.08772 -0.0157,0.02553 -0.0698,0.04643 -0.12035,0.04643 -0.1882,0 -1.27139,0.602444 -1.52819,0.849947 -0.0643,0.06199 -0.14317,0.112719 -0.17524,0.112719 -0.0322,0 -0.0437,0.02409 -0.0256,0.05348 0.018,0.02945 -3.8e-4,0.05348 -0.0412,0.05348 -0.0407,0 -0.17447,0.108299 -0.29731,0.240668 -0.12287,0.132364 -0.20958,0.240667 -0.19271,0.240667 0.017,0 -0.0398,0.07822 -0.12571,0.173816 -0.18963,0.210767 -0.43822,0.574927 -0.39247,0.574927 0.0182,0 -0.004,0.0421 -0.0465,0.09359 -0.0713,0.08378 -0.15492,0.263208 -0.15585,0.33426 -2.2e-4,0.0147 -0.0381,0.06886 -0.0842,0.120337 -0.0462,0.05149 -0.0646,0.09359 -0.041,0.09359 0.0236,0 -2.6e-4,0.04811 -0.0529,0.106961 -0.0527,0.05885 -0.0815,0.106962 -0.064,0.106962 0.0175,0 -0.0121,0.129093 -0.0659,0.286876 -0.0538,0.157783 -0.11224,0.392435 -0.12995,0.521444 -0.0177,0.129015 -0.0512,0.354898 -0.0745,0.501974 -0.0666,0.421733 0.0139,1.560815 0.12291,1.738899 0.0118,0.0192 0.0353,0.115176 0.0526,0.213176 0.0171,0.098 0.0476,0.204275 0.0677,0.236163 0.0202,0.03193 0.039,0.07001 0.0419,0.08472 0.008,0.04342 0.0839,0.224208 0.19997,0.481335 0.0599,0.13237 0.11041,0.2527 0.11251,0.267407 0.002,0.0147 0.11411,0.195212 0.24894,0.401112 0.23615,0.360608 1.19178,1.363779 1.29917,1.363779 0.0287,0 0.0955,0.04812 0.14818,0.106961 0.0527,0.05885 0.11646,0.106961 0.14166,0.106961 0.0252,0 0.14662,0.06428 0.26984,0.142813 0.12321,0.07855 0.22403,0.135374 0.22403,0.126281 0,-0.0091 0.11917,0.03945 0.26481,0.107858 0.14564,0.06842 0.28864,0.129774 0.31777,0.136344 0.0291,0.0066 0.19596,0.05197 0.37073,0.100959 0.17477,0.04896 0.46076,0.102179 0.63553,0.11827 0.17477,0.01609 0.32411,0.03469 0.33186,0.04143 0.0195,0.01686 1.07952,-0.02307 1.17754,-0.04426 z"
     id="path413" />
  <path
     style="fill:#000000;stroke-width:0.513053"
     d="M 20.2722,95.017984 C 19.93978,94.399375 19.74,88.345597 19.74,78.889892 V 63.752154 h -3.88959 c -4.71772,0 -5.8784,-0.51512 -5.8784,-2.608914 0,-1.352818 2.81179,-4.396697 22.21276,-24.046119 19.84549,-20.099648 22.38334,-22.497233 23.8132,-22.497233 1.40214,0 2.95664,1.363903 12.54633,11.008059 6.02025,6.054433 11.03594,11.00806 11.14597,11.00806 0.11001,0 0.20005,-0.591153 0.20005,-1.313666 0,-2.942163 0.63007,-3.294358 5.89358,-3.294358 6.65786,0 6.44494,-0.31736 6.44494,9.606171 v 7.997021 l 4.88401,4.950763 c 4.05321,4.10863 4.88399,5.221165 4.88399,6.540474 0,2.138951 -1.13317,2.649742 -5.87842,2.649742 h -3.88958 v 15.137738 c 0,9.455705 -0.19977,15.509483 -0.53219,16.128092 -2.72034,1.222488 -59.27824,-0.361478 -71.42445,0 z m 69.93381,-0.05167 c 0.95024,-0.506479 0.9944,-1.23343 0.9944,-16.364878 V 62.766574 l 4.70104,-0.147209 c 7.07573,-0.221581 7.10996,-0.649155 0.5752,-7.183241 l -5.2526,-5.25204 -0.14035,-8.44805 -0.14033,-8.448044 h -4.884 -4.884 l -0.15669,2.432012 c -0.0917,1.423097 -0.40563,2.432015 -0.75676,2.432015 -0.33002,0 -5.84486,-5.205364 -12.2552,-11.567476 C 57.62125,16.277204 56.23927,15.076931 55.32065,15.566544 54.17828,16.175423 11.5551,59.198481 10.84852,60.455901 c -0.92776,1.65105 0.53636,2.272249 5.35549,2.272249 h 4.56401 v 15.769683 c 0,11.582642 0.1638,15.932816 0.61691,16.384094 19.07686,-1.100787 48.62053,0.63776 68.82108,0.08439 z"
     id="path245-2"
     sodipodi:nodetypes="cscssssssssscssscscccscsscccccsssssscscc" />
  <path
     style="fill:none;stroke:#000000;stroke-width:1px;stroke-linecap:butt;stroke-linejoin:miter;stroke-opacity:1;marker-start:url(#marker1816);marker-end:url(#marker1868)"
     d="M 61.94796,39.348408 C 73.42718,38.839809 75.12169,45.134936 75.4112,51.669263"
     id="path1812" />
  <path
     style="fill:none;stroke:#000000;stroke-width:1px;stroke-linecap:butt;stroke-linejoin:miter;stroke-opacity:1;marker-start:url(#marker1816-9);marker-end:url(#marker1868-3)"
     d="M 37.96943,82.293519 C 27.20737,78.267488 28.11259,71.81144 30.40434,65.685339"
     id="path1812-9" />
  <path
     style="fill:#000000;stroke-width:0.192533"
     d="m 84.80353,27.442313 c -0.39104,-1.444441 -0.67785,-2.659385 -0.63736,-2.699875 0.0405,-0.04049 0.33968,0.07908 0.66487,0.265709 0.32518,0.186632 0.63005,0.297637 0.67748,0.246677 0.0474,-0.05096 0.52012,-2.199322 1.05044,-4.774143 0.62723,-3.04538 0.88307,-4.650363 0.73206,-4.592412 -0.12768,0.04899 -1.50905,0.627701 -3.06971,1.286016 -1.56067,0.658312 -2.86798,1.165382 -2.90514,1.126819 -0.0371,-0.03856 0.63258,-3.068456 1.4883,-6.733096 l 1.55585,-6.6629807 2.36614,-1.178602 c 2.30296,-1.147134 2.36072,-1.164575 2.16353,-0.653268 -0.77635,2.01298 -3.82117,10.7042327 -3.76849,10.7569117 0.0359,0.03593 1.48847,-0.571503 3.22788,-1.349853 1.7394,-0.778349 3.18725,-1.353229 3.21744,-1.277508 0.0302,0.07572 -0.77661,2.987656 -1.7929,6.47097 -1.01628,3.483313 -1.97053,6.7544 -2.12055,7.269081 l -0.27277,0.935781 0.86233,-0.129315 c 0.47429,-0.07112 0.86234,-0.07765 0.86234,-0.01451 0,0.06314 -0.79231,1.043147 -1.76068,2.177792 -0.96837,1.134646 -1.77629,2.083933 -1.79538,2.109529 -0.0191,0.02559 -0.35464,-1.13528 -0.74568,-2.57972 z"
     id="path2121" />
  <path
     style="fill:#ffffff;stroke-width:0.35411"
     d="M 24.31853,93.914989 C 22.92998,93.805441 22.61329,93.648951 22.47992,93.006445 21.87344,90.084843 21.5766,83.85571 21.5766,74.050373 V 62.708536 l -3.27037,-0.04183 c -4.04324,-0.05172 -5.17447,-0.288057 -5.78443,-1.208498 -0.41266,-0.62271 -0.37662,-0.923156 0.26673,-2.22349 0.99578,-2.012649 41.45094,-42.714344 42.76658,-43.027206 1.2172,-0.289451 1.9858,0.384503 14.41187,12.637145 11.11165,10.956572 10.71649,10.717119 11.24988,6.817045 l 0.29012,-2.121321 3.85146,-0.10088 c 3.561,-0.09327 3.91418,-0.04196 4.68304,0.680348 0.82328,0.773433 0.83158,0.857414 0.83158,8.416367 v 7.63514 l 3.37638,3.351774 c 6.46203,6.414929 7.13807,8.828224 2.47493,8.834924 -1.17645,0.0018 -2.97427,0.103401 -3.99515,0.226023 l -1.85616,0.222951 -0.0335,11.88318 c -0.0185,6.535749 -0.21731,13.474171 -0.44194,15.418714 l -0.40842,3.535534 -1.94454,0.230199 c -2.01091,0.238058 -60.7487,0.27523 -63.7261,0.04033 z m 29.06045,-5.741283 c 0.35375,-0.189324 0.7393,-0.72716 0.85677,-1.19519 0.26155,-1.042106 1.29308,-1.356846 2.70288,-0.824706 0.97159,0.366734 1.15455,0.305399 2.19622,-0.736268 1.0516,-1.051605 1.10567,-1.217553 0.72513,-2.225717 -0.52709,-1.396409 -0.31418,-1.902068 1.16939,-2.777403 1.00293,-0.591742 1.20587,-0.917478 1.20587,-1.935584 0,-1.235945 -0.73413,-2.335273 -1.55949,-2.335273 -0.58808,0 -1.35952,-1.670052 -0.90205,-1.952785 0.60777,-0.375619 0.3596,-2.046876 -0.42852,-2.885788 -0.77218,-0.821951 -2.19909,-1.097274 -2.57068,-0.496017 -0.30865,0.499408 -2.31744,-0.398763 -2.31744,-1.036173 0,-0.903506 -0.75951,-1.407412 -2.12132,-1.407412 -1.3807,0 -2.12132,0.505048 -2.12132,1.446596 0,0.727648 -1.30168,1.103818 -2.78976,0.806201 -1.89736,-0.379473 -3.89917,1.630146 -2.86503,2.876213 0.24218,0.291805 0.3197,0.928403 0.18676,1.533676 -0.1736,0.790379 -0.47767,1.084871 -1.28737,1.246809 -1.03456,0.206914 -1.0575,0.256825 -0.95304,2.07328 0.0941,1.636768 0.2054,1.875208 0.92252,1.976861 1.01084,0.143289 1.80322,1.649769 1.19019,2.262802 -0.72372,0.72372 -0.45166,1.947036 0.63667,2.86281 1.00687,0.847224 2.22605,0.94257 2.6791,0.209523 0.36417,-0.589232 1.85531,0.469353 2.05292,1.457404 0.18777,0.938847 0.58981,1.176947 2.28322,1.352221 0.25585,0.02648 0.75462,-0.106755 1.10838,-0.29608 z m -13.77116,-5.27946 c 0,-0.513964 -3.47163,-2.862814 -3.96794,-2.684651 -0.67945,0.243906 -3.67179,-2.104219 -4.74157,-3.720775 -0.57869,-0.87445 -1.00635,-2.094043 -1.10903,-3.162708 -0.19908,-2.071833 0.19109,-5.052826 0.62615,-4.783945 0.3657,0.226009 0.81771,-2.453286 0.64873,-3.845282 -0.11609,-0.956287 -0.14421,-0.940572 -1.44422,0.807102 -1.30767,1.75797 -1.71911,2.792644 -0.91219,2.29394 0.29088,-0.179779 0.33262,-0.05482 0.14064,0.421078 -0.15014,0.372193 -0.35781,1.668016 -0.46149,2.879604 -0.35577,4.157586 1.10379,7.078722 4.75525,9.517074 1.15121,0.768749 2.03228,1.580196 1.95794,1.803221 -0.0883,0.264999 0.57729,0.449936 1.92112,0.533759 1.13095,0.07055 2.17561,0.15835 2.32145,0.19512 0.14584,0.03677 0.26516,-0.07733 0.26516,-0.253537 z M 73.107,77.826143 c 0.24307,-0.195222 0.44195,-0.793462 0.44195,-1.329421 0,-1.373201 1.55315,-2.018592 3.32015,-1.379636 1.45407,0.525798 2.1124,0.124964 3.2431,-1.974631 0.64836,-1.203923 0.64714,-1.224426 -0.12149,-2.042594 -0.67972,-0.723537 -0.72591,-0.960287 -0.37084,-1.900972 0.24485,-0.648696 0.80329,-1.224624 1.40916,-1.453317 1.28822,-0.486249 1.53825,-1.188551 1.14582,-3.218438 -0.28661,-1.482577 -0.42054,-1.651947 -1.38079,-1.746222 -1.52966,-0.150175 -2.45852,-1.798381 -1.76589,-3.133441 0.58139,-1.120637 0.32083,-1.761385 -1.25574,-3.087985 -1.26409,-1.063658 -1.66005,-1.121485 -2.69852,-0.394109 -1.20809,0.846177 -2.78968,0.345114 -3.17502,-1.005881 -0.29117,-1.020874 -0.45454,-1.121899 -1.97332,-1.220286 -2.1327,-0.138158 -3.09414,0.373059 -3.09414,1.645215 0,0.766083 -0.26036,1.106898 -1.18099,1.545916 -0.75354,0.359337 -1.36138,0.448981 -1.67938,0.247671 -1.05916,-0.6705 -2.25424,-0.341239 -3.23842,0.892227 -1.11648,1.399266 -1.21411,2.170853 -0.38992,3.081568 0.76542,0.845788 0.25404,2.881428 -0.77167,3.071725 -1.21971,0.226288 -1.57845,0.804864 -1.57845,2.545683 0,1.910316 0.62795,2.810389 1.96072,2.810389 1.21179,0 2.11385,1.742608 1.39413,2.693182 -0.79385,1.048477 -0.62139,1.746384 0.72331,2.927047 1.37074,1.203524 2.44338,1.384233 3.34942,0.564275 0.39334,-0.355964 0.94817,-0.461168 1.67039,-0.316724 0.83871,0.167744 1.12777,0.448037 1.28794,1.248889 0.11967,0.598354 0.51515,1.146775 0.94042,1.304089 0.90185,0.333616 3.18795,0.107777 3.78807,-0.374219 z M 50.03745,68.011996 c 0.29179,-0.242159 0.53053,-0.952193 0.53053,-1.577852 0,-1.011463 0.15496,-1.188696 1.39804,-1.598952 1.21564,-0.401199 1.51386,-0.385515 2.28566,0.120187 1.29025,0.845402 2.14333,0.720987 3.55499,-0.518469 1.59504,-1.400464 1.87505,-2.48531 1.04117,-4.03375 -0.61238,-1.137113 -0.61501,-1.267164 -0.0496,-2.452904 0.47498,-0.996038 0.80074,-1.252127 1.59277,-1.252127 1.50735,0 1.8442,-0.591838 1.8442,-3.240253 0,-2.585239 -0.38239,-3.123708 -2.21827,-3.123708 -0.67515,0 -0.94436,-0.284299 -1.30556,-1.378752 -0.39343,-1.192107 -0.37716,-1.489925 0.12018,-2.199988 0.89639,-1.279768 0.69497,-2.106107 -0.91261,-3.74411 -1.64836,-1.679565 -2.25781,-1.829003 -3.50263,-0.858866 -0.81749,0.637104 -0.88894,0.637545 -2.34577,0.0145 -1.26437,-0.540735 -1.5026,-0.801869 -1.5026,-1.647066 0,-1.490692 -0.59747,-1.852976 -3.05587,-1.852976 -1.88021,0 -2.28891,0.116454 -2.75772,0.785775 -0.3027,0.432176 -0.55199,1.108347 -0.55397,1.502602 -0.003,0.498948 -0.42954,0.895703 -1.40495,1.305332 -1.33492,0.560609 -1.44213,0.556419 -2.26187,-0.08839 -1.24228,-0.977177 -1.81113,-0.85305 -3.58533,0.78235 -1.75219,1.615117 -1.92504,2.370795 -0.87845,3.840594 0.64803,0.910073 0.66343,1.088196 0.19175,2.217099 -0.38944,0.932047 -0.78497,1.281938 -1.64322,1.453587 -1.80275,0.36055 -2.0816,0.792843 -2.0816,3.227069 0,2.459947 0.24518,2.822593 2.14878,3.178258 1.02922,0.192301 1.34655,0.46214 1.70314,1.448271 0.38989,1.078232 0.35761,1.314444 -0.29262,2.141084 -1.03762,1.319118 -0.9256,1.846043 0.75696,3.560441 1.65443,1.685747 2.94851,1.962201 3.95889,0.845739 0.56894,-0.628667 0.69296,-0.636308 1.99934,-0.123146 1.22043,0.479401 1.39277,0.688227 1.39277,1.687616 0,1.19686 0.4144,1.730785 1.591,2.049882 1.10515,0.299721 3.65593,0.01768 4.24244,-0.469074 z M 75.9906,52.190323 c 0.83707,-3.192834 0.84296,-3.270369 0.24832,-3.270369 -0.37021,0 -0.56865,-0.307126 -0.56865,-0.88009 0,-1.258111 -1.20604,-4.260306 -2.27382,-5.660245 -1.12923,-1.480493 -4.67821,-3.232497 -7.18407,-3.546515 -1.02107,-0.127953 -1.7674,-0.376792 -1.65851,-0.552973 0.10888,-0.176182 0.004,-0.320331 -0.23376,-0.320331 -0.77178,0 -4.20619,1.182416 -4.20619,1.448129 0,0.417556 4.39112,1.274767 4.64586,0.906941 0.31923,-0.460938 2.62734,0.01985 4.78717,0.997179 2.58387,1.169211 4.03219,3.257307 4.8683,7.018811 0.14503,0.65251 0.0945,0.922642 -0.14503,0.774629 -0.5983,-0.369771 -0.43796,0.366306 0.86451,3.968718 0.26675,0.737767 0.4916,0.505549 0.85587,-0.883884 z"
     id="path77" />
  <path
     style="fill:#ffffff;stroke-width:0.35411"
     d="m 45.01872,57.774346 c -3.06818,-1.87079 -3.35383,-5.715263 -0.60404,-8.129613 1.00555,-0.88288 1.53686,-1.078332 2.93133,-1.078332 2.2879,0 3.87334,1.087151 4.78165,3.278828 0.68763,1.659167 0.68763,1.682672 0,3.341839 -1.24783,3.010903 -4.48309,4.188363 -7.10894,2.587278 z"
     id="path79" />
  <path
     style="fill:#ffffff;stroke-width:0.35411"
     d="m 50.02158,80.579053 c -1.20597,-1.205967 -1.20597,-3.422369 0,-4.628336 1.31059,-1.310597 3.37641,-1.211395 4.58083,0.219974 1.16978,1.390202 1.16978,2.798186 0,4.188388 -1.20442,1.431369 -3.27024,1.530571 -4.58083,0.219974 z"
     id="path81" />
  <path
     style="fill:#ffffff;stroke-width:0.35411"
     d="m 68.1617,69.579709 c -2.66379,-1.44536 -2.62059,-5.64938 0.0724,-7.041965 3.63329,-1.878845 7.36451,1.85238 5.48567,5.485666 -0.99038,1.915176 -3.56697,2.636643 -5.55804,1.556299 z"
     id="path83" />
</svg>
