<?xml version="1.0" encoding="UTF-8" standalone="no"?>
<svg
   xmlns:dc="http://purl.org/dc/elements/1.1/"
   xmlns:cc="http://creativecommons.org/ns#"
   xmlns:rdf="http://www.w3.org/1999/02/22-rdf-syntax-ns#"
   xmlns:svg="http://www.w3.org/2000/svg"
   xmlns="http://www.w3.org/2000/svg"
   xmlns:sodipodi="http://sodipodi.sourceforge.net/DTD/sodipodi-0.dtd"
   xmlns:inkscape="http://www.inkscape.org/namespaces/inkscape"
   version="1.0"
   width="144.53529mm"
   height="29.759958mm"
   id="svg133"
   sodipodi:docname="emhass_logo.svg"
   inkscape:version="1.0.1 (3bc2e813f5, 2020-09-07)"
   inkscape:export-filename="O:\code_dev\emhass\docs\images\emhass_logo.png"
   inkscape:export-xdpi="75"
   inkscape:export-ydpi="75">
  <metadata
     id="metadata137">
    <rdf:RDF>
      <cc:Work
         rdf:about="">
        <dc:format>image/svg+xml</dc:format>
        <dc:type
           rdf:resource="http://purl.org/dc/dcmitype/StillImage" />
        <dc:title />
      </cc:Work>
    </rdf:RDF>
  </metadata>
  <sodipodi:namedview
     pagecolor="#ffffff"
     bordercolor="#666666"
     borderopacity="1"
     objecttolerance="10"
     gridtolerance="10"
     guidetolerance="10"
     inkscape:pageopacity="0"
     inkscape:pageshadow="2"
     inkscape:window-width="1920"
     inkscape:window-height="1001"
     id="namedview135"
     showgrid="false"
     inkscape:zoom="1.4142136"
     inkscape:cx="329.32213"
     inkscape:cy="61.335354"
     inkscape:window-x="-9"
     inkscape:window-y="-9"
     inkscape:window-maximized="1"
     inkscape:current-layer="svg133"
     inkscape:document-rotation="0"
     fit-margin-top="0"
     fit-margin-left="0"
     fit-margin-right="0"
     fit-margin-bottom="0" />
  <defs
     id="defs9">
    <inkscape:path-effect
       effect="bspline"
       id="path-effect1026"
       is_visible="true"
       weight="33.333333"
       steps="2"
       helper_size="0"
       apply_no_weight="true"
       apply_with_weight="true"
       only_selected="false"
       lpeversion="0" />
    <inkscape:path-effect
       effect="bspline"
       id="path-effect1022"
       is_visible="true"
       weight="33.333333"
       steps="2"
       helper_size="0"
       apply_no_weight="true"
       apply_with_weight="true"
       only_selected="false"
       lpeversion="0" />
    <inkscape:path-effect
       effect="bspline"
       id="path-effect1018"
       is_visible="true"
       weight="33.333333"
       steps="2"
       helper_size="0"
       apply_no_weight="true"
       apply_with_weight="true"
       only_selected="false"
       lpeversion="0" />
    <inkscape:path-effect
       effect="bspline"
       id="path-effect1014"
       is_visible="true"
       weight="33.333333"
       steps="2"
       helper_size="0"
       apply_no_weight="true"
       apply_with_weight="true"
       only_selected="false"
       lpeversion="0" />
    <inkscape:path-effect
       effect="bspline"
       id="path-effect1010"
       is_visible="true"
       weight="33.333333"
       steps="2"
       helper_size="0"
       apply_no_weight="true"
       apply_with_weight="true"
       only_selected="false"
       lpeversion="0" />
    <inkscape:path-effect
       effect="bspline"
       id="path-effect1006"
       is_visible="true"
       weight="33.333333"
       steps="2"
       helper_size="0"
       apply_no_weight="true"
       apply_with_weight="true"
       only_selected="false"
       lpeversion="0" />
    <inkscape:path-effect
       effect="bspline"
       id="path-effect1002"
       is_visible="true"
       weight="33.333333"
       steps="2"
       helper_size="0"
       apply_no_weight="true"
       apply_with_weight="true"
       only_selected="false"
       lpeversion="0" />
    <inkscape:path-effect
       effect="bspline"
       id="path-effect998"
       is_visible="true"
       weight="33.333333"
       steps="2"
       helper_size="0"
       apply_no_weight="true"
       apply_with_weight="true"
       only_selected="false"
       lpeversion="0" />
    <inkscape:path-effect
       effect="bspline"
       id="path-effect994"
       is_visible="true"
       weight="33.333333"
       steps="2"
       helper_size="0"
       apply_no_weight="true"
       apply_with_weight="true"
       only_selected="false"
       lpeversion="0" />
    <inkscape:path-effect
       effect="bspline"
       id="path-effect990"
       is_visible="true"
       weight="33.333333"
       steps="2"
       helper_size="0"
       apply_no_weight="true"
       apply_with_weight="true"
       only_selected="false"
       lpeversion="0" />
    <inkscape:path-effect
       effect="bspline"
       id="path-effect986"
       is_visible="true"
       weight="33.333333"
       steps="2"
       helper_size="0"
       apply_no_weight="true"
       apply_with_weight="true"
       only_selected="false"
       lpeversion="0" />
    <inkscape:path-effect
       effect="bspline"
       id="path-effect982"
       is_visible="true"
       weight="33.333333"
       steps="2"
       helper_size="0"
       apply_no_weight="true"
       apply_with_weight="true"
       only_selected="false"
       lpeversion="0" />
    <inkscape:path-effect
       effect="bspline"
       id="path-effect978"
       is_visible="true"
       weight="33.333333"
       steps="2"
       helper_size="0"
       apply_no_weight="true"
       apply_with_weight="true"
       only_selected="false"
       lpeversion="0" />
    <inkscape:path-effect
       effect="bspline"
       id="path-effect974"
       is_visible="true"
       weight="33.333333"
       steps="2"
       helper_size="0"
       apply_no_weight="true"
       apply_with_weight="true"
       only_selected="false"
       lpeversion="0" />
    <inkscape:path-effect
       effect="bspline"
       id="path-effect970"
       is_visible="true"
       weight="33.333333"
       steps="2"
       helper_size="0"
       apply_no_weight="true"
       apply_with_weight="true"
       only_selected="false"
       lpeversion="0" />
    <inkscape:path-effect
       effect="bspline"
       id="path-effect966"
       is_visible="true"
       weight="33.333333"
       steps="2"
       helper_size="0"
       apply_no_weight="true"
       apply_with_weight="true"
       only_selected="false"
       lpeversion="0" />
    <inkscape:path-effect
       effect="bspline"
       id="path-effect962"
       is_visible="true"
       weight="33.333333"
       steps="2"
       helper_size="0"
       apply_no_weight="true"
       apply_with_weight="true"
       only_selected="false"
       lpeversion="0" />
    <inkscape:path-effect
       effect="bspline"
       id="path-effect958"
       is_visible="true"
       weight="33.333333"
       steps="2"
       helper_size="0"
       apply_no_weight="true"
       apply_with_weight="true"
       only_selected="false"
       lpeversion="0" />
    <inkscape:path-effect
       effect="bspline"
       id="path-effect954"
       is_visible="true"
       weight="33.333333"
       steps="2"
       helper_size="0"
       apply_no_weight="true"
       apply_with_weight="true"
       only_selected="false"
       lpeversion="0" />
    <inkscape:path-effect
       effect="bspline"
       id="path-effect948"
       is_visible="true"
       weight="33.333333"
       steps="2"
       helper_size="0"
       apply_no_weight="true"
       apply_with_weight="true"
       only_selected="false"
       lpeversion="0" />
    <inkscape:path-effect
       effect="bspline"
       id="path-effect944"
       is_visible="true"
       weight="33.333333"
       steps="2"
       helper_size="0"
       apply_no_weight="true"
       apply_with_weight="true"
       only_selected="false"
       lpeversion="0" />
    <clipPath
       clipPathUnits="userSpaceOnUse"
       id="clipEmfPath1">
      <path
         d="M -15.203019,-7.5214934 H 648.12869 V 903.21934 H -15.203019 Z"
         id="path2"
         inkscape:connector-curvature="0" />
    </clipPath>
    <clipPath
       clipPathUnits="userSpaceOnUse"
       id="clipEmfPath2">
      <path
         d=""
         id="path5"
         inkscape:connector-curvature="0" />
    </clipPath>
    <pattern
       id="EMFhbasepattern"
       patternUnits="userSpaceOnUse"
       width="6"
       height="6"
       x="0"
       y="0" />
    <filter
       style="color-interpolation-filters:sRGB"
       inkscape:label="Drop Shadow"
       id="filter223">
      <feFlood
         flood-opacity="0.498039"
         flood-color="rgb(0,0,0)"
         result="flood"
         id="feFlood213" />
      <feComposite
         in="flood"
         in2="SourceGraphic"
         operator="in"
         result="composite1"
         id="feComposite215" />
      <feGaussianBlur
         in="composite1"
         stdDeviation="3"
         result="blur"
         id="feGaussianBlur217" />
      <feOffset
         dx="6"
         dy="6"
         result="offset"
         id="feOffset219" />
      <feComposite
         in="SourceGraphic"
         in2="offset"
         operator="over"
         result="composite2"
         id="feComposite221" />
    </filter>
  </defs>
  <text
     xml:space="preserve"
     style="font-style:normal;font-variant:normal;font-weight:400;font-size:24px;line-height:125%;font-family:Calibri;text-align:start;letter-spacing:0px;word-spacing:0px;text-anchor:start;fill:#000000;fill-opacity:1;stroke:none"
     x="333.43698"
     y="64.989426"
     id="text77"
     inkscape:export-xdpi="200"
     inkscape:export-ydpi="200"><tspan
       sodipodi:role="line"
       x="1.4156961"
       y="-100.95076"
       id="tspan75"><tspan
         style="font-style:normal;font-variant:normal;font-weight:400;font-size:24px;font-family:Calibri;fill:#000000"
         id="tspan73" /></tspan></text>
  <text
     xml:space="preserve"
     style="font-style:normal;font-variant:normal;font-weight:400;font-size:24px;line-height:125%;font-family:Calibri;text-align:start;letter-spacing:0px;word-spacing:0px;text-anchor:start;fill:#000000;fill-opacity:1;stroke:none"
     x="821.61224"
     y="540.90668"
     id="text95"
     inkscape:export-xdpi="200"
     inkscape:export-ydpi="200"><tspan
       sodipodi:role="line"
       x="1.4156961"
       y="-100.95076"
       id="tspan93"><tspan
         style="font-style:normal;font-variant:normal;font-weight:400;font-size:24px;font-family:Calibri;fill:#000000"
         id="tspan91" /></tspan></text>
  <g
     clip-path="url(#clipEmfPath1)"
     id="g125"
     inkscape:export-xdpi="200"
     inkscape:export-ydpi="200"
     transform="translate(238.03655,41.35166)" />
  <path
     style="fill:#4d4d4d;fill-opacity:1;fill-rule:nonzero;stroke:none"
     clip-path="url(#clipEmfPath2)"
     d="m 74.019273,833.8563 h 31.108697 c 2.43037,0 3.88859,-1.69194 3.88859,-3.8673 v -73.4786 c 0,-1.20853 -0.24304,-2.41706 -1.45822,-3.14218 L 57.006705,714.69527 c -1.45822,-1.20853 -3.402514,-1.20853 -4.617697,0 L 1.8373764,753.36822 c -1.21518346,0.72512 -1.70125684,1.93365 -1.70125684,3.14218 v 73.4786 c 0,2.17536 1.70125684,3.8673 3.88858704,3.8673 H 35.133403 c 2.430367,0 3.888587,-1.69194 3.888587,-3.8673 V 795.18335 H 70.130686 V 829.989 c 0,2.17536 1.701257,3.8673 3.888587,3.8673 z"
     id="path127"
     inkscape:connector-curvature="0"
     inkscape:export-xdpi="200"
     inkscape:export-ydpi="200"
     transform="translate(238.03655,41.35166)" />
  <flowRoot
     xml:space="preserve"
     id="flowRoot903"
     style="font-style:normal;font-weight:normal;font-size:40px;line-height:1.25;font-family:sans-serif;letter-spacing:0px;word-spacing:0px;fill:#000000;fill-opacity:1;stroke:none"
     inkscape:export-xdpi="200"
     inkscape:export-ydpi="200"
     transform="translate(238.03655,41.35166)"><flowRegion
       id="flowRegion905"><rect
         id="rect907"
         width="260.39343"
         height="322.11633"
         x="-69.438248"
         y="-88.726639" /></flowRegion><flowPara
       id="flowPara909" /></flowRoot>
  <path
     style="fill:#000000"
     id="path243"
     d="" />
  <path
     style="fill:#000000"
     id="path241"
     d="" />
  <path
     style="fill:#000000"
     id="path239"
     d="" />
  <path
     style="fill:#000000;stroke-width:0.341511"
     d=""
     id="path281" />
  <g
     id="g541">
    <rect
       style="fill:#41bdf5;fill-opacity:1;stroke-width:1.03845"
       id="rect492"
       width="437.68558"
       height="112.47858"
       x="0"
       y="0" />
    <text
       xml:space="preserve"
       style="font-style:normal;font-variant:normal;font-weight:400;font-size:117.061px;line-height:125%;font-family:Calibri;text-align:start;letter-spacing:0px;word-spacing:0px;text-anchor:start;fill:#000000;fill-opacity:1;stroke:none;stroke-width:2.1949"
       x="23.759323"
       y="95.2854"
       id="text65"
       inkscape:export-xdpi="200"
       inkscape:export-ydpi="200"><tspan
         sodipodi:role="line"
         x="23.759323"
         y="95.2854"
         id="tspan63"
         style="font-style:italic;font-variant:normal;font-weight:normal;font-stretch:normal;font-size:117.061px;font-family:Calibri;-inkscape-font-specification:'Calibri Italic';stroke-width:2.1949">EMHASS</tspan></text>
    <path
       style="fill:#41bdf5;stroke:none;stroke-width:0.499905"
       d="M 433.7965,1.1230469e-7 V 112.47858 H 546.27511 V 1.1230469e-7 H 433.7965 M 513.78128,38.49266 c 10e-4,-1.44622 -0.32544,-3.57076 0.80135,-4.6974 1.43972,-1.43917 7.95548,-1.43937 9.39521,0 2.80047,2.80086 0.039,11.02175 0.96032,14.6955 1.23426,4.92256 16.71083,14.49224 3.84026,14.49724 h -3.99923 v 22.99562 l -0.87084,7.98448 -8.62736,0.51391 h -22.99562 c 2.06211,-3.54133 5.18201,-6.64974 9.49069,-6.48877 2.77098,0.10348 5.34049,3.6963 7.78152,0.87383 1.98113,-2.29106 -0.4974,-5.52045 -3.25538,-4.63911 -2.616,0.83584 -6.66373,1.09229 -9.01778,2.26956 -2.28007,1.13979 -3.91426,3.51634 -5.99886,4.98506 0,-2.16459 -0.45641,-4.94306 0.30144,-6.99867 2.636,-7.14864 9.92211,-7.25612 16.18792,-6.98917 2.15609,0.092 4.40266,2.45153 6.47677,1.45422 2.50652,-1.20477 2.24757,-4.86457 -0.47991,-5.60693 -1.74317,-0.47441 -3.00293,1.11129 -4.57463,1.49271 -2.58851,0.62739 -5.7569,0.15098 -8.4134,0.15098 1.73117,-2.45804 4.64162,-4.31218 5.98486,-6.99867 1.20278,-2.40554 0.15148,-4.7466 2.08761,-6.99617 1.96612,-2.28457 5.52195,-2.37055 7.12064,-4.57563 1.70818,-2.35605 -1.01131,-5.68092 -3.64081,-4.32618 -2.588,1.33375 -2.35655,5.47146 -5.05353,7.3996 0,-2.93895 -0.57839,-6.56076 0.15647,-9.41321 0.41542,-1.6127 2.0606,-2.76798 1.72417,-4.57678 -0.61388,-3.30512 -5.21551,-3.24048 -5.89438,0 -0.37743,1.80001 1.43773,2.97398 1.85715,4.57678 0.74386,2.84346 0.15697,6.48076 0.15697,9.41321 -2.68849,-1.91764 -2.37905,-4.16921 -4.2352,-6.42428 -2.0991,-2.54952 -6.31729,-0.18697 -4.98005,2.87045 0.99031,2.26457 3.95775,1.88364 5.71541,3.21289 6.49827,4.91356 2.24458,10.64447 -2.99893,14.33827 0.002,-2.6385 2.49503,-5.86788 2.08361,-7.99648 -0.57589,-2.98293 -4.82708,-3.53482 -5.75191,-0.47991 -0.54589,1.80316 1.12679,3.31637 1.51221,4.97706 1.14379,4.93206 -1.49321,8.28642 -5.34248,10.9979 V 57.98895 c 0,-2.91344 -0.81734,-7.3371 0.5139,-9.9981 1.64669,-3.29227 4.35467,-3.1119 6.91619,-4.88756 1.82815,-1.26731 1.94013,-3.92186 -0.0405,-5.13443 -3.54032,-2.16793 -6.39128,6.01571 -8.3894,8.02237 h -0.4999 c -2.06711,-2.0759 -3.29988,-6.72646 -5.55395,-8.02237 -2.50392,-1.43972 -5.40787,1.46422 -3.96814,3.96835 1.91233,3.32621 7.16453,2.27182 8.36331,7.05345 1.67668,6.68673 0.15897,15.59304 0.15897,22.49572 -4.35567,-3.06841 -8.47094,-6.8292 -7.96919,-12.47812 0.18632,-2.0966 2.42109,-3.79078 1.5896,-5.96387 -1.00826,-2.6355 -5.04514,-2.33005 -5.63278,0.45492 -0.45921,2.17658 1.98467,4.98205 2.01427,7.48907 -4.1905,-1.95413 -7.12874,-5.7624 -6.42508,-10.498 0.34984,-2.35435 3.00288,-4.62287 0.76681,-6.8378 -2.07181,-2.05226 -5.59149,0.022 -4.92382,2.81926 0.57959,2.42829 1.01761,6.8575 2.0976,9.01759 1.44438,2.88895 4.62292,4.85507 6.48487,7.49857 -2.42459,-0.008 -10.50915,-3.88226 -9.91016,1.49771 0.15047,1.35175 1.5534,2.66 2.91344,2.68599 4.2209,0.0805 7.24207,-3.70279 11.49586,-0.11048 2.33431,1.97113 6.11934,5.00205 7.19713,7.9245 1.65969,4.50264 0.30145,11.70627 0.30145,16.49686 -3.61831,-2.54902 -5.96702,-5.7959 -4.84808,-10.41302 0.38143,-1.5717 1.96712,-2.83146 1.49272,-4.57463 -0.80585,-2.96194 -4.88613,-2.90595 -5.71737,0 -0.58434,2.04211 1.56576,5.11702 1.57415,7.48907 -2.33545,-1.64518 -5.19121,-3.98174 -6.61989,-6.49876 -1.0217,-1.80016 -0.94122,-5.07853 -3.87231,-4.95606 -4.7372,0.19847 -2.70693,6.57125 1.99382,5.95587 l 6.49876,7.49857 c -2.3586,-0.028 -5.37547,-2.27506 -7.45153,-1.59919 -2.77982,0.90482 -2.84141,4.80508 -0.025,5.69791 1.93288,0.61289 3.62241,-1.24976 5.47695,-1.52571 4.82789,-0.71736 7.87151,2.19658 10.49801,5.92538 h -22.99563 l -8.6272,-0.51391 -0.87099,-7.98448 V 62.988 c -2.20668,0 -8.37575,1.0688 -9.37012,-1.5737 -1.02025,-2.71149 5.09199,-7.23063 6.75062,-9.08677 7.89855,-8.83892 16.74026,-16.94422 25.11522,-25.33267 2.77847,-2.78292 8.10646,-11.39873 12.49762,-11.03955 2.71848,0.22236 5.241,3.72319 6.97917,5.54059 5.46246,5.71262 10.92142,11.40163 16.51636,16.99676 m -30.9941,1.10239 c 1.15778,0 1.15778,1.79446 0,1.79446 -1.15773,0 -1.15773,-1.79446 0,-1.79446 m 12.99752,1.89704 c 1.17978,-3.84692 4.04623,0.35214 0,0 m -23.49552,5.49895 c -3.65386,-0.60903 -0.60904,-3.6538 0,0 m 33.99353,-1.89703 c 1.15778,0 1.15778,1.79445 0,1.79445 -1.15778,0 -1.15778,-1.79445 0,-1.79445 m -26.5424,8.06786 c 1.33669,0.0295 0.96571,2.1191 -0.32094,1.86764 -1.11924,-0.21845 -0.72521,-1.89064 0.32094,-1.86764 m 18.68289,0.70137 c 1.21527,-0.38993 2.03362,1.33174 0.72186,1.75266 -1.21526,0.38993 -2.03361,-1.33174 -0.72186,-1.75266 m 16.35789,2.12609 c -3.65381,-0.60888 -0.60889,-3.6538 0,0 m -45.35247,7.3721 c 1.21512,-0.38993 2.03361,1.33174 0.72206,1.75266 -1.21512,0.38993 -2.03361,-1.33174 -0.72206,-1.75266 m 28.3752,1.5842 c 1.11329,-0.19447 1.39024,1.32025 0.36843,1.66818 -1.27326,0.43392 -1.66318,-1.44223 -0.36843,-1.66818 m -27.51426,9.04028 c 3.38455,1.87864 -0.88868,3.89975 0,0 m 42.60439,1.37323 c 1.16928,-0.39542 1.87264,1.34125 0.67837,1.75267 -1.17928,0.40642 -1.92014,-1.33275 -0.67837,-1.75267 m -30.19166,0.79835 c 1.20617,0.029 0.85634,2.1161 -0.32088,1.86765 -1.06725,-0.22496 -0.68897,-1.89164 0.32088,-1.86765 m 24.58023,9.92861 c 1.15778,0 1.15778,1.79466 0,1.79466 -1.15778,0 -1.15778,-1.79466 0,-1.79466 m -34.88112,0.27095 c 1.16928,-0.39542 1.8727,1.34125 0.67853,1.75267 -1.17893,0.40642 -1.92024,-1.33275 -0.67853,-1.75267 z"
       id="path249" />
    <g
       id="g490"
       transform="matrix(0.57711604,0,0,0.57711604,138.24263,-54.691732)">
      <path
         style="fill:#000000"
         d="m 540.33061,267.1038 c -0.64662,-1.20822 -1.03518,-13.03193 -1.03518,-31.5 v -29.56574 h -7.56574 c -9.17659,0 -11.43426,-1.0061 -11.43426,-5.09552 0,-2.6422 5.46931,-8.58724 43.20666,-46.96481 38.60201,-39.25691 43.53842,-43.93967 46.31969,-43.93967 2.72733,0 5.75103,2.66386 24.40422,21.5 11.71015,11.825 21.46629,21.5 21.68031,21.5 0.21401,0 0.38912,-1.15459 0.38912,-2.56574 0,-5.74638 1.22558,-6.43426 11.46376,-6.43426 12.9504,0 12.53624,-0.61984 12.53624,18.76195 v 15.61909 l 9.5,9.66941 c 7.88404,8.02463 9.5,10.19754 9.5,12.77429 0,4.17763 -2.20416,5.17526 -11.43426,5.17526 h -7.56574 v 29.56574 c 0,18.46807 -0.38856,30.29178 -1.03518,31.5 -0.99083,1.85137 -2.42645,1.93426 -33.5,1.93426 -26.48608,0 -32.46482,-0.24705 -32.46482,-1.34149 0,-0.73782 2.88605,-4.11282 6.41345,-7.5 6.33158,-6.0799 6.48648,-6.15851 12.13533,-6.15851 4.81882,0 6.08755,0.39456 8.0388,2.5 2.79725,3.01829 5.72039,3.19203 8.41242,0.5 2.28766,-2.28766 2.56003,-4.90531 0.75,-7.2079 -2.30106,-2.92723 -5.30082,-3.04094 -8.53049,-0.32335 -2.58398,2.17427 -3.98342,2.53125 -9.92314,2.53125 h -6.91492 l -4.74835,5.5 c -6.60866,7.65478 -7.6331,7.34944 -7.6331,-2.27503 V 247.488 l 7.27352,-7.22497 7.27351,-7.22497 h 12.0715 c 10.8015,0 12.26191,0.21041 13.88147,2 2.13514,2.3593 6.73386,2.62807 8.50256,0.49692 1.60223,-1.93057 1.60223,-6.06327 0,-7.99384 -1.7687,-2.13115 -6.36742,-1.86238 -8.50256,0.49692 -1.564,1.7282 -3.07997,2 -11.15499,2 -6.9311,0 -9.34501,-0.33097 -9.34501,-1.2813 0,-0.70472 2.7,-3.95313 6,-7.2187 5.9034,-5.8418 6,-6.027 6,-11.50286 0,-5.39305 0.16362,-5.72704 5.28145,-10.7813 4.01932,-3.9694 6.00279,-5.21584 8.3,-5.21584 3.88766,0 5.41855,-1.60046 5.41855,-5.66482 0,-3.41851 -2.07621,-5.33518 -5.77927,-5.33518 -2.70008,0 -5.22073,3.14991 -5.22073,6.52402 0,3.01201 -4.31078,8.47598 -6.68709,8.47598 -2.07329,0 -1.85064,-20.30884 0.24169,-22.04531 5.11598,-4.24589 2.82983,-10.82025 -3.8046,-10.94104 -1.49847,-0.0273 -4.75,4.0353 -4.75,5.93482 0,1.07167 1.125,3.16238 2.5,4.64603 2.29388,2.47514 2.5,3.46389 2.5,11.99251 0,5.61079 -0.43061,9.56109 -1.08641,9.96639 -1.73557,1.07264 -8.02717,-5.62019 -7.33458,-7.80233 0.32276,-1.01695 -0.15317,-2.97841 -1.05764,-4.3588 -2.24483,-3.42604 -7.3257,-3.02601 -9.43069,0.7425 -1.31803,2.35965 -1.29278,2.90785 0.24186,5.25 1.28042,1.95417 2.55577,2.61523 5.04546,2.61523 2.73703,0 4.25045,0.97124 8.47694,5.44014 4.50092,4.75905 5.14506,5.96214 5.14506,9.6096 0,3.77389 -0.61026,4.79797 -6.4324,10.79413 -3.53781,3.64357 -6.77507,6.28199 -7.1939,5.86317 -1.48166,-1.48167 -0.31273,-9.11519 1.68013,-10.97182 5.23911,-4.88097 -1.68224,-12.65229 -7.4877,-8.40723 -2.4477,1.7898 -2.29469,6.26759 0.30887,9.03895 1.71442,1.82492 2.125,3.51146 2.125,8.72881 v 6.46686 l -5.779,5.71869 c -3.17845,3.14529 -6.10345,5.7187 -6.5,5.7187 -0.39655,0 -0.721,-15.08505 -0.721,-33.52234 v -33.52235 l 4.12736,-4.47766 c 3.22657,-3.50041 4.82172,-4.47765 7.30887,-4.47765 6.46156,0 9.31802,-5.33666 5.10922,-9.54546 -4.1838,-4.1838 -9.54545,-1.35642 -9.54545,5.03364 0,2.27756 -1.01139,4.09352 -3.79216,6.80887 -2.08569,2.03662 -4.24437,3.70295 -4.79705,3.70295 -2.34693,0 -8.17298,-7.60143 -8.74793,-11.4137 -0.65741,-4.35903 -1.16892,-5.06133 -4.39621,-6.03601 -3.14186,-0.94888 -7.66341,3.56499 -6.72778,6.71636 0.92934,3.13015 3.30868,4.73335 7.0249,4.73335 2.48715,0 4.0823,0.97724 7.30887,4.47765 l 4.12736,4.47766 v 24.02235 c 0,13.21229 -0.34743,24.02234 -0.77208,24.02234 -0.42464,0 -4.47464,-3.7219 -9,-8.27089 l -8.22792,-8.27089 v -6.60714 c 0,-5.62737 0.31511,-6.81636 2.125,-8.01808 2.52711,-1.67794 2.84518,-6.29139 0.58929,-8.54729 -2.09244,-2.09243 -6.76549,-1.93617 -8.3863,0.28042 -1.8519,2.53262 -1.65915,4.74315 0.67201,7.70674 1.96553,2.49877 2.9022,10.72713 1.22111,10.72713 -0.42839,0 -3.57839,-2.82461 -7,-6.27691 l -6.22111,-6.2769 v -6.06811 c 0,-4.79812 0.41858,-6.44692 2,-7.87808 2.23954,-2.02676 2.70161,-7.39839 0.8,-9.3 -1.79324,-1.79324 -6.26558,-1.44801 -8.14501,0.62874 -2.2226,2.45594 -2.08703,5.47029 0.34501,7.67126 1.64346,1.4873 2,3.07996 2,8.93388 v 7.1239 l 6.5,6.44222 c 3.575,3.54322 6.5,7.01772 6.5,7.72111 0,2.18751 -7.4084,1.59009 -9.54391,-0.76963 -2.61312,-2.88746 -7.43166,-2.27865 -9.36541,1.18329 -1.31803,2.35965 -1.29277,2.90785 0.24186,5.25 2.10541,3.21326 6.54655,3.51131 9.16746,0.61523 1.46242,-1.61596 3.07997,-2 8.42375,-2 h 6.61377 l 9.73124,9.76789 9.73124,9.76789 v 17.23211 c 0,13.88194 -0.26502,17.23211 -1.36316,17.23211 -0.74974,0 -3.44974,-2.23072 -6,-4.95716 -4.57804,-4.8943 -4.63684,-5.04365 -4.63684,-11.77776 0,-5.58311 0.36287,-7.13129 2,-8.53305 2.36972,-2.02902 2.64957,-6.94804 0.49692,-8.73459 -5.6819,-4.71555 -12.96967,3.54979 -7.49692,8.50256 2.45262,2.21959 2.91225,10.5 0.58284,10.5 -0.77944,0 -4.37446,-3.2625 -7.98893,-7.25 -4.72434,-5.21191 -6.57488,-8.02307 -6.58284,-10 -0.0115,-2.85483 -3.06332,-6.75 -5.28856,-6.75 -2.73991,0 -5.72251,3.12723 -5.72251,6 0,3.34355 3.09889,6 6.99933,6 1.82618,0 4.47081,1.9313 9.27749,6.7751 3.69775,3.7263 6.72318,7.3263 6.72318,8 0,2.1058 -7.44234,1.49859 -9.5,-0.7751 -2.62091,-2.89608 -7.06205,-2.59803 -9.16746,0.61523 -1.53463,2.34215 -1.55989,2.89035 -0.24186,5.25 1.93375,3.46194 6.75229,4.07075 9.36541,1.18329 1.51321,-1.67208 3.07156,-2.04852 8.4802,-2.04852 h 6.62632 l 5.71869,5.779 c 3.14529,3.17845 5.7187,6.32845 5.7187,7 0,0.93626 -7.57083,1.221 -32.46482,1.221 -31.07355,0 -32.50918,-0.0829 -33.5,-1.93426 z m 59.05017,-4.56574 c -5.59799,-5.33958 -5.93125,-5.5 -11.42576,-5.5 -4.32626,0 -6.13077,0.47118 -7.65959,2 -4.57351,4.57351 -12.4,1.10208 -12.4,-5.5 0,-6.60634 7.39483,-9.9484 12.16963,-5.5 1.18071,1.1 3.16506,2 4.40967,2 1.93071,0 1.35285,-0.91755 -3.93617,-6.25 -4.74574,-4.78472 -6.91073,-6.27512 -9.23453,-6.35716 -6.15732,-0.21737 -9.14797,-6.89344 -5.4519,-12.17033 2.365,-3.37651 8.60717,-3.10094 11.44376,0.50521 1.23918,1.57536 1.96793,3.65729 1.72501,4.92807 -0.31957,1.67172 1.22449,3.83287 6.42695,8.99546 5.89132,5.84617 6.84758,6.46989 6.84758,4.46629 0,-1.28086 -1.125,-3.66581 -2.5,-5.29991 -3.0765,-3.65621 -3.19413,-7.44985 -0.32569,-10.50318 4.66381,-4.96439 12.82569,-1.76309 12.82569,5.03056 0,2.07502 -0.75933,4.0322 -2,5.15499 -1.58646,1.43573 -2,3.07997 -2,7.95204 0,5.84809 0.19145,6.32901 4,10.04796 l 4,3.9059 V 245.0098 229.57564 l -9.23025,-9.26879 -9.23025,-9.26879 h -5.76975 c -4.43642,0 -6.23193,0.46218 -7.76975,2 -2.39251,2.39251 -6.71483,2.58847 -9.77749,0.4433 -3.17379,-2.22301 -3.17379,-9.66359 0,-11.8866 3.32855,-2.3314 7.51411,-1.94394 10.18991,0.9433 1.30372,1.40674 3.43152,2.5 4.8657,2.5 2.31334,0 1.95636,-0.56886 -3.86467,-6.15851 l -6.41345,-6.1585 v -6.94714 c 0,-5.95133 -0.35835,-7.37302 -2.5,-9.91822 -1.375,-1.6341 -2.5,-4.08201 -2.5,-5.43981 0,-3.30489 4.21772,-7.37782 7.64009,-7.37782 6.21017,0 9.83392,8.45107 5.35991,12.5 -1.58559,1.43494 -2,3.07996 -2,7.93915 0,6.10425 0.0224,6.15126 5.5,11.56085 5.40237,5.33526 5.5,5.38188 5.5,2.62613 0,-1.5832 -0.87006,-3.52891 -1.99699,-4.46584 -5.28224,-4.39165 -2.23756,-13.16029 4.56957,-13.16029 2.09409,0 4.20546,0.77804 5.42742,2 2.64302,2.64302 2.64302,8.1081 0,10.5 -1.58509,1.43449 -2,3.07997 -2,7.93181 v 6.12183 l 7,6.94636 7,6.94636 v -22.52023 -22.52024 l -4.04794,-3.95271 c -2.74179,-2.67728 -4.77669,-3.85721 -6.30641,-3.65675 -3.74718,0.49105 -7.64565,-3.3537 -7.64565,-7.54027 0,-4.79814 2.37125,-7.25616 7,-7.25616 4.41468,0 7.11734,2.53563 7.46913,7.00752 0.15224,1.93532 1.50164,4.39884 3.58926,6.55271 l 3.34529,3.45148 3.64861,-3.56277 c 2.58166,-2.52092 3.52477,-4.2106 3.22511,-5.77814 -0.69738,-3.64812 3.21812,-7.6708 7.46644,-7.6708 4.83146,0 7.25616,2.36664 7.25616,7.0824 0,2.91685 -0.61865,4.25907 -2.72772,5.91806 -1.58301,1.2452 -3.65582,1.96821 -4.93928,1.72286 -1.59171,-0.30427 -3.33869,0.72628 -6.23307,3.67696 l -4.02151,4.09972 -0.28921,32.5 -0.28921,32.5 4.75,-5.09662 c 4.59987,-4.93554 4.75,-5.29112 4.75,-11.25 0,-4.82005 -0.43337,-6.58675 -2,-8.15338 -2.97766,-2.97766 -2.66668,-8.33043 0.63486,-10.92742 4.87833,-3.83729 10.77136,-1.62056 11.95072,4.4954 0.45988,2.38485 0.0152,3.753 -1.99698,6.14436 -1.44627,1.71879 -2.5886,4.32148 -2.5886,5.89786 0,2.77892 0.083,2.73955 5.5,-2.6102 4.84463,-4.78445 5.5,-5.90829 5.5,-9.43149 0,-3.42372 -0.67873,-4.68891 -4.71241,-8.78416 -3.19547,-3.24426 -5.53811,-4.78435 -7.27749,-4.78435 -4.41962,0 -7.0101,-2.6077 -7.0101,-7.0567 0,-4.82725 2.74601,-7.9433 7,-7.9433 3.99975,0 7,3.13985 7,7.32569 0,2.25443 0.80529,4.08221 2.5,5.67431 l 2.5,2.34863 v -8.77996 c 0,-7.90633 -0.24876,-9.07559 -2.5,-11.75104 -3.11365,-3.70036 -3.15139,-5.94882 -0.15826,-9.42854 2.79358,-3.24773 7.60237,-3.65464 10.64535,-0.90077 2.7156,2.45758 2.72275,8.5593 0.0129,11.01168 -1.70118,1.53954 -2,3.07997 -2,10.30998 0,8.43665 0.0149,8.48651 2,6.69002 1.12125,-1.01472 2,-3.07997 2,-4.70044 0,-3.71282 4.00319,-7.79956 7.64009,-7.79956 3.88259,0 7.35991,3.60747 7.35991,7.63536 0,4.15 -3.26514,7.36464 -7.48035,7.36464 -2.33421,0 -4.14609,1.06259 -7.31144,4.28785 -3.96542,4.04047 -4.20821,4.62169 -4.20821,10.07424 0,5.66709 -0.11653,5.90855 -5.65222,11.71215 l -5.65221,5.92576 h 7.24449 c 5.7303,0 7.77593,-0.41803 9.78708,-2 5.42272,-4.26551 12.27287,-1.21741 12.27287,5.46104 0,6.97536 -7.16761,9.79314 -12.81763,5.03896 -2.73045,-2.29752 -3.77133,-2.5 -12.85175,-2.5 h -9.88068 l -7.22497,7.27352 -7.22497,7.27351 v 5.94233 5.94232 l 5.28145,-5.21584 5.28144,-5.21584 h 6.56357 c 5.29357,0 6.91378,-0.38698 8.37354,-2 2.76374,-3.0539 8.78915,-2.71915 11.42742,0.63486 2.8214,3.58682 2.60526,5.9863 -0.8505,9.44206 -3.57858,3.57859 -6.02036,3.683 -9.89455,0.42308 -2.26055,-1.90213 -4.11199,-2.5 -7.74179,-2.5 -4.46995,0 -5.16465,0.37827 -11.0191,6 l -6.24837,6 h 29.97919 c 18.75306,0 30.70349,-0.38764 31.91344,-1.03518 1.84834,-0.9892 1.93426,-2.40903 1.93426,-31.96248 v -30.92729 l 9.14409,-0.28752 c 13.7632,-0.43277 13.82979,-1.26788 1.11883,-14.02969 l -10.21696,-10.25784 -0.27298,-16.5 -0.27298,-16.5 h -9.5 -9.5 l -0.30479,4.75 c -0.17835,2.77947 -0.78899,4.75 -1.47197,4.75 -0.64195,0 -11.36902,-10.16667 -23.83793,-22.5926 -20.20107,-20.13141 -22.88921,-22.47568 -24.67602,-21.51941 -2.22205,1.18921 -85.12957,85.21817 -86.50394,87.67404 -1.80463,3.22469 1.04326,4.43797 10.41709,4.43797 h 8.87756 v 30.8 c 0,22.62222 0.31862,31.11861 1.2,32 0.88126,0.88126 9.36128,1.2 31.92576,1.2 h 30.72577 z m -27.11487,-7.03557 c -1.81696,-2.1893 -0.0625,-4.96443 3.13851,-4.96443 1.99001,0 2.39101,0.50313 2.39101,3 0,2.28 -0.501,3.07158 -2.0875,3.29826 -1.14813,0.16404 -2.69704,-0.43618 -3.44202,-1.33383 z m 4.08234,-1.96443 c -0.0784,-1.48429 -2.31562,-1.2116 -2.83465,0.3455 -0.28038,0.84112 0.17677,1.21599 1.21948,1 0.9174,-0.19002 1.64422,-0.7955 1.61517,-1.3455 z m 66.19718,2.83772 c -1.82205,-0.73521 -1.53026,-5.29294 0.38592,-6.02825 1.74117,-0.66815 4.51178,0.63364 5.0992,2.3959 0.36864,1.10591 -2.37125,4.35358 -3.55655,4.21568 -0.37321,-0.0434 -1.24107,-0.30592 -1.92857,-0.58333 z m 3.30385,-2.42485 c 1.03052,-1.66742 -1.28721,-3.57951 -2.66672,-2.2 -1.15392,1.15392 -0.43172,3.28713 1.11287,3.28713 0.48508,0 1.18431,-0.48921 1.55385,-1.08713 z m -53.47843,-18.32199 c -1.88532,-2.27167 -0.38725,-5.59088 2.52335,-5.59088 2.81765,0 4.20301,2.504 2.70319,4.88592 -1.38325,2.1968 -3.72615,2.51281 -5.22654,0.70496 z m 3.73421,-2.34088 c -0.40593,-2.10784 -2.18068,-1.97493 -2.63295,0.19718 -0.18865,0.90598 0.36259,1.55282 1.32332,1.55282 1.02996,0 1.52043,-0.6554 1.30963,-1.75 z m 57.16085,0.21443 c -1.81696,-2.1893 -0.0625,-4.96443 3.13851,-4.96443 1.99001,0 2.39101,0.50313 2.39101,3 0,2.28 -0.501,3.07158 -2.08751,3.29826 -1.14812,0.16404 -2.69703,-0.43618 -3.44201,-1.33383 z m 4.33234,-1.95073 c 0.10845,-0.54247 -0.59032,-1.13797 -1.55282,-1.32333 -1.0946,-0.2108 -1.75,0.27967 -1.75,1.30963 0,1.73979 2.9553,1.75204 3.30282,0.0137 z m -88.26295,1.03434 c -1.91383,-2.30603 -0.83645,-5.01164 2.13284,-5.35618 3.4701,-0.40265 5.05288,3.4388 2.25871,5.48194 -2.29953,1.68147 -2.9061,1.66409 -4.39155,-0.12576 z m 3.46013,-2.38137 c 0,-1.80866 -1.9573,-1.47847 -2.3455,0.39568 -0.21599,1.04271 0.15888,1.49986 1,1.21948 0.74002,-0.24667 1.3455,-0.9735 1.3455,-1.61516 z m 50.20885,-16.79115 c -1.54883,-1.54884 -0.6698,-5.25314 1.40266,-5.91091 2.94593,-0.935 5.76929,1.91133 4.26941,4.30415 -1.15439,1.84167 -4.49177,2.78706 -5.67207,1.60676 z m 4.29115,-2.3165 c 0,-1.35037 -1.82294,-2.28649 -3.01631,-1.54894 -0.55897,0.34546 -0.75742,1.04702 -0.44098,1.55902 0.75067,1.21461 3.45729,1.20672 3.45729,-0.0101 z m -60.58904,-1.43047 c -1.1117,-2.89703 0.0208,-5.12855 2.60273,-5.12855 2.0959,0 2.48631,0.47107 2.48631,3 0,2.35154 -0.48731,3.0692 -2.25447,3.32014 -1.32218,0.18775 -2.49436,-0.30501 -2.83457,-1.19159 z m 4.04634,-1.55945 c 0.73954,-1.1966 -1.14163,-2.38223 -2.47361,-1.55902 -1.11836,0.69118 -0.38417,2.48992 1.01631,2.48992 0.48508,0 1.14086,-0.41891 1.4573,-0.9309 z m 53.78031,-17.3191 c -1.49817,-1.85918 0.32542,-5.75 2.69498,-5.75 2.67901,0 4.63526,3.61086 3.01436,5.56392 -1.46785,1.76866 -4.35815,1.86286 -5.70934,0.18608 z m 4.21968,-1.6809 c 0.73955,-1.1966 -1.14162,-2.38223 -2.4736,-1.55902 -1.11836,0.69118 -0.38417,2.48992 1.01631,2.48992 0.48508,0 1.14086,-0.41891 1.45729,-0.9309 z m 25.78103,1.76922 c -2.67967,-2.67967 0.036,-6.52082 3.77183,-5.3351 1.56977,0.49823 2.02766,1.34693 1.79799,3.33262 -0.34327,2.96789 -3.47756,4.09474 -5.56982,2.00248 z m 3.76168,-2.33832 c 0,-0.825 -0.675,-1.5 -1.5,-1.5 -0.825,0 -1.5,0.675 -1.5,1.5 0,0.825 0.675,1.5 1.5,1.5 0.825,0 1.5,-0.675 1.5,-1.5 z m -72.06957,0.91618 c -1.77644,-2.14049 0.0104,-4.91618 3.16486,-4.91618 2.72109,0 3.74779,2.77923 1.86484,5.04804 -1.56829,1.88967 -3.39164,1.84187 -5.0297,-0.13186 z m 4.49954,-1.30287 c 0.30141,-0.48768 -0.082,-1.40954 -0.85195,-2.04856 -1.55873,-1.29363 -3.15488,0.19286 -2.07802,1.93525 0.7652,1.23812 2.20049,1.29363 2.92997,0.11331 z m -21.45949,-15.64888 c -1.81696,-2.1893 -0.0625,-4.96443 3.13851,-4.96443 1.99001,0 2.39101,0.50313 2.39101,3 0,2.28 -0.501,3.07158 -2.0875,3.29825 -1.14813,0.16404 -2.69704,-0.43617 -3.44202,-1.33382 z m 4.33234,-1.95074 c 0.10845,-0.54247 -0.59032,-1.13796 -1.55282,-1.32332 -1.0946,-0.2108 -1.75,0.27967 -1.75,1.30963 0,1.73979 2.9553,1.75204 3.30282,0.0137 z m 65.35631,2.0404 c -1.32747,-3.45934 2.30878,-6.65554 5.01588,-4.40885 0.78183,0.64886 1.28729,2.11912 1.12325,3.26725 -0.372,2.60364 -5.23134,3.50726 -6.13913,1.1416 z m 4.89472,-0.64122 c 1.03052,-1.66742 -1.28721,-3.57952 -2.66672,-2.20001 -1.15392,1.15393 -0.43172,3.28714 1.11287,3.28714 0.48508,0 1.18431,-0.48921 1.55385,-1.08713 z m -50.30385,-8.57515 c -1.82205,-0.73521 -1.53026,-5.29294 0.38592,-6.02825 1.74117,-0.66815 4.51178,0.63364 5.0992,2.3959 0.36864,1.10591 -2.37125,4.35358 -3.55655,4.21568 -0.37321,-0.0434 -1.24107,-0.30592 -1.92857,-0.58333 z m 3.30385,-2.42485 c 1.03052,-1.66742 -1.28721,-3.57951 -2.66672,-2.2 -1.15392,1.15392 -0.43172,3.28713 1.11287,3.28713 0.48508,0 1.18431,-0.48921 1.55385,-1.08713 z m 25.01758,1.5157 c -0.86429,-0.86429 -1.56454,-1.87679 -1.55612,-2.25 0.0879,-3.89677 6.27505,-4.16128 6.82218,-0.29166 0.52452,3.70968 -2.59325,5.21447 -5.26606,2.54166 z m 3.85854,-1.31527 c 0.30141,-0.48768 -0.082,-1.40953 -0.85195,-2.04855 -1.55873,-1.29363 -3.15488,0.19285 -2.07802,1.93525 0.7652,1.23812 2.20049,1.29362 2.92997,0.1133 z"
         id="path245" />
      <g
         id="g288"
         transform="matrix(0.94242952,0,0,0.94242952,34.861851,183.13167)">
        <path
           style="fill:#000000;stroke-width:0.341511"
           d="m 581.25325,85.086436 c -1.175,-0.224998 -2.94052,-2.180443 -3.42318,-3.791416 -0.37607,-1.255231 -0.34849,-1.607021 0.22826,-2.910851 0.62171,-1.405478 2.21432,-2.922423 3.57188,-3.402174 0.45859,-0.162061 0.59082,-0.501992 0.51146,-1.314833 -0.096,-0.983345 -0.52849,-1.379567 -4.19871,-3.846534 l -4.09168,-2.75027 -0.17049,-3.310857 c -0.14443,-2.804736 -0.27474,-3.385459 -0.85244,-3.79885 -0.37507,-0.268397 -2.13961,-1.651483 -3.9212,-3.073529 -1.78159,-1.422046 -3.50777,-2.585828 -3.83595,-2.586179 -0.32819,-3.54e-4 -1.21046,-0.614397 -1.9606,-1.36454 -1.35946,-1.35945 -1.57009,-2.042496 -1.36693,-4.432662 0.17514,-2.060486 2.21391,-4.091688 4.10694,-4.091688 0.41244,0 2.30215,-1.243042 4.27644,-2.813036 l 3.53745,-2.813035 0.008,-2.80846 0.008,-2.80846 -1.10817,-0.4683 c -2.45999,-1.039572 -3.71731,-3.454626 -3.14801,-6.046666 0.28212,-1.284487 2.62333,-3.723406 3.57423,-3.723406 0.6278,0 0.68195,-0.227317 0.68195,-2.862957 0,-3.109059 0.0848,-2.955819 -2.94478,-5.320419 -0.36041,-0.281303 -1.36712,-1.086855 -2.23714,-1.790113 -0.87001,-0.703259 -1.83065,-1.278653 -2.13475,-1.278653 -0.98911,0 -3.17848,-1.323719 -3.92624,-2.3738542 -0.89271,-1.2537 -1.00017,-3.8819754 -0.22036,-5.3899531 0.58088,-1.1232959 2.18794,-2.2406834 3.75506,-2.6108806 0.54264,-0.1281878 2.49043,-1.41376412 4.32842,-2.856836 l 3.3418,-2.6237674 0.019,-3.1011627 c 0.0221,-3.612259 -0.33731,-3.125904 4.87788,-6.600294 3.26688,-2.176421 3.66547,-2.550329 3.66547,-3.438533 0,-0.815091 -0.24212,-1.12009 -1.32954,-1.67485 -2.52736,-1.289364 -3.59397,-4.094636 -2.49848,-6.571185 0.94902,-2.145412 2.47399,-3.146935 4.74178,-3.114155 2.30058,0.03325 3.89226,1.165059 4.73248,3.365147 0.98638,2.582805 -0.1206,5.026327 -2.93682,6.482649 -0.75004,0.387864 -1.00455,0.761907 -1.00455,1.476368 0,0.773128 0.37652,1.229318 1.9606,2.375445 1.07833,0.780204 2.11404,1.537103 2.30157,1.681998 0.18754,0.144896 1.14653,0.849614 2.13109,1.566041 l 1.79012,1.302593 0.008,3.1249696 0.008,3.1249691 3.25757,2.5573051 c 2.23259,1.75265649 3.72392,2.6645915 4.73968,2.898279 2.07616,0.4776426 3.41197,1.5854098 4.10731,3.4061329 0.97544,2.5541575 -0.0424,4.9929503 -2.64571,6.3393173 -0.69579,0.35984 -1.58746,0.654257 -1.9815,0.654257 -0.39403,0 -2.23893,1.189147 -4.09976,2.642549 l -3.38334,2.642548 -0.006,2.983523 c -0.005,2.562893 0.0748,2.983522 0.56441,2.983522 0.31345,0 1.23408,0.693166 2.04584,1.540371 1.35691,1.416147 1.47583,1.684251 1.47466,3.324496 -0.002,2.298145 -0.93126,3.870161 -2.73708,4.628477 l -1.3464,0.565389 -0.003,2.937648 -0.003,2.937648 3.54207,2.773667 c 2.42437,1.898434 3.83018,2.773667 4.45508,2.773667 1.82952,0 3.66621,1.620359 4.33536,3.824736 0.77137,2.541085 -1.27858,5.632495 -4.1378,6.239984 -0.9554,0.202989 -3.27868,1.657847 -4.10303,2.569342 -0.0938,0.103683 -0.78121,0.640717 -1.52765,1.193409 -3.02702,2.241317 -2.90501,2.018065 -2.90501,5.31528 0,3.494902 0.27789,3.107524 -4.73516,6.600786 -3.23698,2.255632 -3.42587,2.453332 -3.43673,3.596972 -0.0102,1.07741 0.11934,1.257465 1.18121,1.641439 0.65598,0.237205 1.61497,0.985374 2.13109,1.6626 0.77933,1.022598 0.93639,1.566267 0.92661,3.207351 -0.0102,1.712996 -0.14639,2.11914 -1.02293,3.051042 -1.60805,1.709627 -3.20349,2.219479 -5.54325,1.771442 z m 2.86738,-2.7951 c 1.7124,-1.044182 1.7883,-3.117502 0.1599,-4.367744 -1.43829,-1.104282 -3.79922,-0.0106 -3.85023,1.783567 -0.0459,1.614849 0.36903,2.479835 1.36423,2.843852 1.24697,0.456108 1.13104,0.469048 2.3261,-0.259675 z m 0.26863,-12.136162 c 0.54489,-0.468611 1.08193,-0.852206 1.19341,-0.852435 0.11148,-2.28e-4 0.65778,-0.391789 1.214,-0.870128 0.55622,-0.478342 1.52095,-1.18469 2.14384,-1.56966 l 1.13254,-0.699948 -0.098,-2.927647 -0.098,-2.927651 -3.47316,-2.663382 -3.47317,-2.663379 -3.94302,2.757293 -3.94301,2.757297 v 2.795912 c 0,2.793061 0.001,2.796577 1.10816,3.449078 0.60949,0.35924 1.2616,0.783712 1.44914,0.943267 1.11865,0.951751 4.85517,3.287624 5.2851,3.303963 0.2813,0.01071 0.95728,-0.363969 1.50217,-0.83258 z m -6.74961,-13.350748 c 1.76087,-1.248228 3.20159,-2.370162 3.20159,-2.493182 0,-0.12302 -0.44507,-0.552732 -0.98905,-0.954915 -0.54399,-0.402182 -1.24655,-1.405457 -1.56125,-2.229499 -0.72036,-1.886221 -0.30645,-3.735081 1.18575,-5.296516 0.56297,-0.589094 1.01968,-1.187555 1.01492,-1.329915 -0.0101,-0.302488 -5.59314,-4.180945 -6.01441,-4.178135 -0.38511,0.0027 -5.02678,3.715048 -5.18123,4.144027 -0.0675,0.187345 0.20195,0.567974 0.59866,0.845841 0.86849,0.608315 1.64249,2.025917 1.7426,3.191609 0.21267,2.476535 0.009,3.083186 -1.54028,4.588971 l -1.538,1.494762 2.80369,2.24323 c 1.54203,1.233777 2.86482,2.243231 2.93955,2.243231 0.0747,0 1.57658,-1.021279 3.33746,-2.269509 z m 16.54142,-0.168796 3.09108,-2.438309 -1.06355,-0.832345 c -1.16099,-0.908613 -2.0701,-2.726612 -2.0681,-4.135684 10e-4,-1.024289 1.0666,-2.921809 2.15659,-3.841928 l 0.74042,-0.625022 -0.72326,-0.601362 c -2.25809,-1.877529 -4.89083,-3.840615 -5.15071,-3.840615 -0.31203,0 -2.9808,1.864555 -3.80639,2.659358 -0.26073,0.251012 -0.85505,0.706014 -1.3207,1.011121 l -0.84664,0.554741 0.85834,0.700425 c 1.17364,0.957711 2.29171,2.899752 2.29325,3.983282 0.002,1.464266 -0.91118,3.211372 -2.23297,4.271747 l -1.23913,0.994058 2.98069,2.289419 c 1.63938,1.25918 3.03904,2.289419 3.11035,2.289419 0.0713,0 1.52064,-1.097237 3.22073,-2.438305 z m -26.32123,-4.880024 c 1.07383,-0.5553 1.38829,-1.138116 1.38829,-2.573058 0,-1.118879 -1.35693,-2.383677 -2.55731,-2.383677 -1.2748,0 -2.5573,1.262231 -2.5573,2.516882 0,1.193239 0.461,1.957876 1.53438,2.544969 0.89664,0.490426 1.05498,0.482833 2.19194,-0.105116 z m 16.36676,0 c 1.07382,-0.5553 1.38828,-1.138116 1.38828,-2.573058 0,-1.118879 -1.35693,-2.383677 -2.55731,-2.383677 -1.2748,0 -2.5573,1.262231 -2.5573,2.516882 0,1.193239 0.46101,1.957876 1.53438,2.544969 0.89665,0.490426 1.05498,0.482833 2.19195,-0.105116 z m 16.36675,0 c 1.07383,-0.5553 1.38828,-1.138116 1.38828,-2.573058 0,-1.118879 -1.35692,-2.383677 -2.5573,-2.383677 -1.27481,0 -2.55731,1.262231 -2.55731,2.516882 0,1.193239 0.46101,1.957876 1.53438,2.544969 0.89665,0.490426 1.05498,0.482833 2.19195,-0.105116 z m -14.66103,-9.623473 c 4.59086,-3.449044 4.4562,-3.258548 4.4562,-6.303647 v -2.659424 l -1.24071,-0.5184 c -4.10548,-1.715379 -4.16183,-7.318638 -0.0945,-9.393646 l 1.33519,-0.68116 v -2.680394 -2.680389 l -1.27866,-0.960125 c -0.70326,-0.528067 -1.35537,-1.045826 -1.44914,-1.150576 -0.0938,-0.104747 -0.78424,-0.645249 -1.53438,-1.201115 -0.75014,-0.555866 -1.66135,-1.283825 -2.02489,-1.617687 -0.90553,-0.831577 -1.07791,-0.7917 -3.05822,0.70747 -0.955,0.722971 -2.61864,1.955319 -3.69697,2.73855 l -1.9606,1.424054 v 2.887522 c 0,1.956914 0.12699,2.887524 0.39403,2.887524 0.67455,0 2.65053,1.691937 3.18655,2.728484 1.25448,2.425898 0.0191,5.995101 -2.37466,6.860691 l -1.20592,0.436068 v 2.833119 c 0,2.277164 0.11709,2.932908 0.5967,3.341654 1.29765,1.105902 6.75314,4.919791 7.05168,4.929768 0.17459,0.0058 1.47882,-0.861921 2.89828,-1.928341 z M 576.25344,29.73321 c 0.91612,-1.0123 0.83536,-2.975407 -0.15541,-3.777685 -1.38754,-1.123564 -3.16966,-0.786282 -3.96423,0.750266 -0.69515,1.344259 -0.62731,1.923997 0.33808,2.88939 1.06542,1.065421 2.88227,1.131737 3.78156,0.138029 z m 16.38561,0.437958 c 0.56077,-0.374441 1.15921,-1.644361 1.15921,-2.459923 0,-1.041775 -1.49276,-2.395796 -2.62705,-2.382894 -1.87665,0.02135 -3.15183,1.795222 -2.4714,3.437912 0.22783,0.550038 0.66263,1.145205 0.96623,1.322593 0.65877,0.384919 2.44571,0.434391 2.97301,0.08231 z M 575.20191,15.320754 c 0.24721,-0.247216 1.54048,-1.19493 2.87392,-2.106033 1.33344,-0.911099 2.42444,-1.766671 2.42444,-1.901274 0,-0.1346 -0.4502,-0.726664 -1.00044,-1.3156962 -2.17552,-2.3289071 -2.11596,-5.0890678 0.15746,-7.296989 l 1.17814,-1.1441874 -2.81013,-2.08989585 c -1.54557,-1.14944245 -3.08016,-2.09420305 -3.4102,-2.09946735 -0.33004,-0.00526 -1.7685,0.9377382 -3.19657,2.09556115 l -2.5965,2.10513265 1.03109,0.8783899 c 1.4143,1.2048487 1.84896,2.196589 1.83357,4.1835738 -0.01,1.2874496 -0.22667,1.9743997 -0.90222,2.8600899 -0.48901,0.6411164 -1.03473,1.1656674 -1.21272,1.1656674 -0.95353,0 -0.0256,1.220615 2.31893,3.050251 1.4534,1.13423 2.69186,2.062712 2.75214,2.063295 0.0603,6.82e-4 0.31187,-0.201205 0.55909,-0.448418 z m 18.46608,-1.467835 c 3.42453,-2.622977 3.48065,-2.707143 2.38143,-3.571785 -0.99896,-0.7857846 -1.91019,-2.6666858 -1.91019,-3.9429072 0,-1.125978 1.21521,-3.4214365 2.04696,-3.866573 0.37446,-0.2004044 0.68083,-0.4986445 0.68083,-0.6627556 0,-0.4775337 -5.1463,-4.4519261 -5.75529,-4.4446984 -0.304,0.00361 -1.7614,0.9506106 -3.23868,2.10445026 l -2.68594,2.09789034 1.03487,0.8790722 c 1.20211,1.0211343 2.12069,2.7057723 2.12069,3.8892658 0,1.2741244 -0.9088,3.1585616 -1.89883,3.9373226 -0.4912,0.386374 -0.83924,0.864042 -0.77343,1.061479 0.10301,0.309035 4.99515,4.33141 5.36196,4.408671 0.0728,0.01534 1.25885,-0.834909 2.63562,-1.889432 z M 568.56618,8.268808 c 1.56364,-1.5636455 0.37761,-4.4326621 -1.83243,-4.4326621 -2.03019,0 -3.3687,2.5503492 -2.16317,4.1216153 0.88119,1.1485267 2.99367,1.3129784 3.9956,0.3110468 z m 16.62136,-0.227873 c 1.20899,-1.6533795 -0.0574,-4.2047891 -2.08704,-4.2047891 -2.63753,0 -3.6204,3.8775973 -1.23633,4.8775206 0.85207,0.3573783 2.86862,-0.050819 3.32337,-0.6727315 z m 16.30807,-0.012309 c 1.23146,-1.6237558 -0.0346,-4.19248 -2.06642,-4.19248 -2.66329,0 -3.6305,3.9500168 -1.19827,4.8936112 0.88558,0.3435688 2.78113,-0.063524 3.26469,-0.7011312 z m -14.65846,-9.670414 3.55137,-2.7501418 v -2.6644759 -2.6644756 l -1.79012,-1.3296917 c -0.98456,-0.731331 -2.24649,-1.619767 -2.80428,-1.974303 -0.55779,-0.354535 -1.31556,-0.925396 -1.68392,-1.268579 -0.36836,-0.343183 -0.83262,-0.616598 -1.03168,-0.607588 -0.19905,0.009 -1.97302,1.121438 -3.94215,2.472061 l -3.58022,2.4556807 -0.083,2.8982791 -0.083,2.898279 3.82073,2.6425486 c 2.1014,1.45340168 3.87792,2.6425485 3.94782,2.6425485 0.0699,0 1.7252,-1.23756377 3.67845,-2.7501419 z m -2.05921,-20.250105 c 1.69178,-1.691777 0.61293,-4.277674 -1.78466,-4.277674 -1.46985,0 -2.49635,1.02232 -2.48217,2.472062 0.024,2.449233 2.553,3.51945 4.26683,1.805612 z"
           id="path277" />
        <path
           style="fill:#000000;stroke-width:0.341511"
           d="m 634.02787,84.696734 c -1.34079,-0.713451 -2.70844,-2.829972 -2.71686,-4.204483 -0.0124,-2.029419 1.50743,-4.265929 3.44418,-5.068156 0.8334,-0.345202 0.98039,-0.595282 0.96659,-1.644401 -0.0156,-1.189761 -0.16954,-1.343165 -4.00644,-3.993897 l -3.99017,-2.756611 -0.097,-3.247832 -0.097,-3.247836 -3.682,-2.897494 c -2.47464,-1.947374 -4.0944,-2.974859 -4.93965,-3.133429 -1.6515,-0.309822 -3.39966,-1.881331 -3.95093,-3.55168 -0.9602,-2.909453 1.59666,-6.538862 4.60653,-6.538862 0.50028,0 1.40534,-0.421956 2.01125,-0.937679 0.60591,-0.515723 2.11336,-1.70487 3.3499,-2.642548 l 2.24825,-1.70487 0.0196,-2.967525 0.0196,-2.967527 -1.20013,-0.569495 c -1.8531,-0.879358 -2.72107,-2.347831 -2.72107,-4.60365 0,-1.53902 0.17494,-2.131268 0.91692,-3.104047 0.5043,-0.661179 1.38657,-1.39668 1.9606,-1.634448 l 1.04368,-0.432308 -0.0145,-2.942155 -0.0145,-2.942156 -3.38548,-2.642548 c -2.22598,-1.737505 -3.68658,-2.642549 -4.26465,-2.642549 -2.9861,0 -5.53113,-3.6451008 -4.57269,-6.5492047 0.57686,-1.7479108 2.78531,-3.6783938 4.21497,-3.6844495 0.78846,-0.00334 1.90929,-0.68150611 4.54177,-2.748049 l 3.49499,-2.7436149 v -2.9842144 c 0,-3.5464275 -0.145,-3.3406375 4.71584,-6.6930305 3.11146,-2.145886 3.46114,-2.492342 3.46417,-3.432197 0.003,-0.869509 -0.23076,-1.176965 -1.3883,-1.827539 -1.82574,-1.026119 -2.69714,-2.494646 -2.69875,-4.548049 -0.002,-2.947748 2.07076,-5.024585 5.01548,-5.024585 5.72977,0 7.07803,7.703142 1.73559,9.916056 -0.716,0.296577 -0.95579,0.628737 -0.95579,1.324001 0,0.77084 0.44777,1.242245 2.64255,2.782037 1.4534,1.019664 3.2563,2.224765 4.00645,2.678002 0.75014,0.453238 1.47662,0.985606 1.6144,1.183041 0.13778,0.197435 0.25286,1.6769036 0.25573,3.2877081 0.005,2.8730262 0.0264,2.9476139 1.11674,3.9212011 3.04118,2.71546211 6.08653,4.9136666 6.80732,4.9136666 2.01984,0 4.35623,2.798445 4.35623,5.2177411 0,2.0364571 -2.71566,5.0114791 -4.57458,5.0114791 -0.39766,0 -1.4874,0.622213 -2.42164,1.382694 -2.56147,2.08507 -2.6261,2.136468 -4.00019,3.181437 l -1.27866,0.972394 v 2.78931 2.789311 l 1.21218,0.438329 c 0.71841,0.259781 1.6212,1.002975 2.21633,1.824528 1.94648,2.687035 0.97397,6.292232 -2.05822,7.630033 l -1.37029,0.604567 v 2.768276 2.768276 l 3.55939,2.792175 c 1.95767,1.535696 3.85296,2.792175 4.21175,2.792175 1.84902,0 4.50393,3.016566 4.50393,5.117453 0,1.961082 -1.87384,4.46647 -3.68984,4.933444 -0.43535,0.111952 -2.46841,1.525648 -4.5179,3.141547 L 645.9672,60.5425 v 3.182082 3.182078 l -1.44914,0.939326 c -0.79703,0.51663 -1.52586,1.020361 -1.61963,1.119407 -0.0938,0.09905 -1.35765,0.944392 -2.80863,1.878549 -2.49032,1.603294 -2.63839,1.767796 -2.64255,2.935752 -0.004,1.043994 0.14914,1.300887 0.97846,1.644401 2.35228,0.974344 3.81645,3.934653 3.06128,6.189391 -1.07312,3.204058 -4.53948,4.636872 -7.4592,3.083248 z m 4.28299,-2.591556 c 1.43481,-1.434805 0.9556,-3.519548 -0.978,-4.254701 -1.72879,-0.657286 -3.29967,0.481452 -3.29967,2.391946 0,2.382583 2.61787,3.522562 4.27767,1.862755 z m 2.45657,-13.606691 3.49498,-2.393781 V 63.340744 60.576785 L 640.545,57.950003 c -3.38077,-2.388912 -4.80694,-3.088901 -4.80694,-2.359326 0,0.147103 -0.42196,0.518895 -0.93768,0.826208 -0.51572,0.307309 -1.24456,0.843624 -1.61963,1.19181 -0.37507,0.348182 -1.41078,1.153187 -2.30157,1.788899 l -1.61963,1.155841 v 2.776353 c 0,3.029333 -0.13106,2.808296 2.93544,4.950445 0.40268,0.281304 1.544,1.079875 2.53625,1.774603 0.99224,0.694727 1.96994,1.167355 2.17264,1.050288 0.20271,-0.11707 1.9413,-1.290054 3.86355,-2.606637 z M 630.28247,57.873662 c 0.84392,-0.651056 2.10978,-1.588352 2.81304,-2.082887 1.4797,-1.040527 1.57099,-1.37166 0.51146,-1.855284 -1.34827,-0.615421 -2.30157,-2.490297 -2.30157,-4.526529 0,-1.644876 0.13625,-1.986924 1.3331,-3.346622 l 1.33311,-1.514491 -2.87802,-2.152944 -2.87802,-2.152944 -2.59741,1.999802 c -1.42857,1.09989 -2.76427,2.107956 -2.96821,2.240145 -0.23448,0.151972 0.0341,0.636189 0.73036,1.316947 2.22825,2.178528 2.2371,5.271649 0.0214,7.487333 l -1.06754,1.067545 0.82014,0.747677 c 1.49104,1.359307 4.90585,3.919227 5.2528,3.937766 0.18753,0.01002 1.03144,-0.514458 1.87535,-1.165514 z m 17.11854,-0.419354 c 1.13513,-0.890794 2.35669,-1.854745 2.71456,-2.142111 0.62621,-0.502827 0.59249,-0.583212 -0.89637,-2.137071 -1.4746,-1.538983 -1.54705,-1.707871 -1.54705,-3.606445 0,-1.834652 0.10648,-2.112822 1.34921,-3.524631 l 1.34921,-1.532781 -1.21636,-0.969795 c -0.66899,-0.533385 -1.85153,-1.474849 -2.62786,-2.092141 -0.77633,-0.617293 -1.52807,-1.12384 -1.67053,-1.125658 -0.22827,-0.0031 -5.00773,3.372874 -5.86518,4.14265 -0.20064,0.180123 0.0873,0.673168 0.7429,1.271936 1.24561,1.137694 1.92947,3.26871 1.60463,5.000281 -0.14165,0.755057 -0.72513,1.691572 -1.56968,2.519444 l -1.34422,1.317666 3.1748,2.23678 c 1.74614,1.23023 3.30153,2.242344 3.45643,2.249143 0.1549,0.0068 1.21038,-0.716472 2.34551,-1.607267 z m -25.85936,-5.906549 c 0.67323,-0.529557 0.89842,-1.014268 0.89842,-1.933752 0,-1.705474 -0.79796,-2.474162 -2.5684,-2.474162 -1.76346,0 -2.36022,0.623576 -2.36022,2.466289 0,2.357102 2.17183,3.403421 4.0302,1.941625 z m 16.45055,-0.09178 c 1.1074,-0.952538 1.24614,-2.59221 0.30715,-3.629787 -0.90475,-0.999736 -3.35614,-0.956756 -4.07634,0.07147 -0.81114,1.158057 -0.66303,2.561939 0.37143,3.520638 1.13295,1.049985 2.20704,1.061896 3.39776,0.03768 z m 16.34444,-0.03847 c 0.96537,-0.965372 1.09019,-2.400464 0.30614,-3.519854 -0.75799,-1.08218 -3.29503,-1.08218 -4.05302,0 -1.19686,1.708764 0.0348,4.356792 2.02651,4.356792 0.48589,0 1.26005,-0.376623 1.72037,-0.836938 z m -13.39873,-10.344214 2.98352,-2.219437 v -2.830981 -2.830981 l -1.21423,-0.576188 c -2.86469,-1.359385 -3.76676,-4.945313 -1.89429,-7.530189 0.54074,-0.746471 1.46137,-1.555299 2.04585,-1.797394 l 1.06267,-0.440177 V 20.008266 17.16858 l -2.30157,-1.631363 c -1.26587,-0.897253 -2.55903,-1.863996 -2.8737,-2.148317 -0.31468,-0.284325 -1.00613,-0.772064 -1.53658,-1.083871 l -0.96444,-0.566924 -3.40641,2.558229 c -1.87352,1.407029 -3.51964,2.736211 -3.65805,2.953742 -0.13841,0.217531 -0.25401,1.496439 -0.25688,2.842025 l -0.005,2.446512 1.43594,0.792741 c 4.00636,2.211782 4.05826,7.117215 0.0984,9.304369 l -1.36389,0.753331 -0.0875,2.527974 c -0.0481,1.390383 0.0286,2.692137 0.17049,2.892783 0.14187,0.200646 1.16388,1.044557 2.27114,1.875357 1.10726,0.8308 2.64164,1.992802 3.40974,2.582227 1.63147,1.251964 1.28413,1.377204 6.08493,-2.1941 z M 629.39095,30.387887 c 1.9081,-0.869388 1.89117,-3.823498 -0.0269,-4.697438 -1.2731,-0.580065 -2.99002,0.06641 -3.50994,1.321608 -0.47887,1.156086 -0.22887,2.161332 0.7686,3.090623 0.81915,0.763154 1.55328,0.838789 2.76826,0.285207 z m 17.38227,-0.513725 c 0.97891,-0.978912 1.10338,-1.689025 0.52035,-2.968629 -1.35181,-2.966917 -6.00124,-0.891793 -4.75313,2.121414 0.75967,1.833997 2.83134,2.248656 4.23278,0.847215 z M 630.90628,13.809636 c 1.40042,-1.078331 2.67947,-2.047979 2.84233,-2.154772 0.16286,-0.106796 -0.32024,-0.84209 -1.07355,-1.633985 -1.25661,-1.3209674 -1.36966,-1.5938148 -1.36966,-3.3055929 0,-2.0066716 0.9873,-4.0613551 2.13108,-4.4350244 0.93917,-0.3068203 0.72466,-0.6797808 -1.19341,-2.07497685 -0.98456,-0.71616782 -2.17214,-1.64986585 -2.63906,-2.07488445 -1.0709,-0.9747932 -1.66739,-0.9733161 -2.73476,0.00677 -0.46692,0.4287428 -1.16868,1.00413644 -1.55947,1.27865256 -0.39078,0.27451613 -1.21743,0.92892435 -1.837,1.4542405 l -1.12649,0.95512034 1.05049,1.0270441 c 2.17154,2.1230869 2.23653,4.862973 0.16962,7.1508021 -0.67208,0.74391 -1.16209,1.398884 -1.0889,1.455496 0.0732,0.05662 0.74681,0.550362 1.49696,1.097217 0.75014,0.546854 1.44061,1.077256 1.53438,1.178672 0.32263,0.348942 2.55748,2.02826 2.70426,2.032038 0.0808,0.002 1.29275,-0.878489 2.69318,-1.956819 z m 16.76587,-0.123 c 1.40652,-1.145523 2.59596,-2.117404 2.6432,-2.159736 0.0472,-0.04233 -0.52816,-0.722459 -1.27866,-1.511398 -1.28005,-1.3456131 -1.36454,-1.5606961 -1.36454,-3.4735398 0,-1.907203 0.0888,-2.135434 1.37267,-3.5282743 l 1.37266,-1.4891692 -2.61005,-2.08343946 c -1.43552,-1.14589154 -2.74863,-2.08343944 -2.918,-2.08343944 -0.37417,0 -5.65105,3.6692642 -5.93303,4.1255184 -0.11027,0.178429 0.33052,0.8554319 0.97954,1.5044503 2.01344,2.0134406 1.95301,5.3755299 -0.12997,7.2314785 -0.5577,0.496905 -0.97229,1.021569 -0.92132,1.165917 0.13107,0.371228 5.47654,4.327417 5.88922,4.358619 0.18754,0.01419 1.49176,-0.911464 2.89828,-2.056987 z M 621.33191,8.613519 c 0.94856,-0.5783532 1.10816,-0.869245 1.10816,-2.0198209 0,-2.9089443 -3.78982,-3.8107957 -4.80404,-1.1432006 -0.5427,1.4274025 -0.0578,2.8118865 1.1724,3.34711 1.36932,0.5957737 1.22743,0.6061256 2.52348,-0.1840885 z m 16.1426,0.1504173 c 1.85999,-0.9618399 1.98839,-3.167836 0.25505,-4.3819204 -1.10004,-0.7704955 -2.08936,-0.6788932 -3.13512,0.2902838 -1.45807,1.3512933 -1.1668,3.3643016 0.59794,4.1325399 1.31801,0.5737603 1.08544,0.577927 2.28213,-0.040903 z m 17.10236,-0.5625321 c 0.6043,-0.6988705 0.79486,-2.5184817 0.33576,-3.2060476 -0.36271,-0.5432023 -1.63523,-1.1592107 -2.39464,-1.1592107 -1.03003,0 -2.46059,1.5346183 -2.44818,2.626267 0.0276,2.4330882 2.93645,3.5554111 4.50706,1.7389913 z m -14.28313,-9.7033588 3.62769,-2.6103081 v -2.8286119 -2.8286116 l -3.154,-2.1863358 c -4.83084,-3.348701 -4.08893,-3.302817 -7.96637,-0.492685 -1.85406,1.343711 -3.48375,2.6037712 -3.62153,2.8001327 -0.13778,0.1963615 -0.25286,1.4551608 -0.25573,2.7973317 l -0.005,2.4403103 1.61962,1.3218976 c 0.8908,0.7270435 2.23338,1.771478 2.98353,2.32096575 0.75014,0.54948746 1.56665,1.19642801 1.81447,1.43764564 0.24781,0.24121729 0.64841,0.43857711 0.89021,0.43857711 0.2418,0 2.0721,-1.17463872 4.06733,-2.6103084 z m -2.28369,-20.0565084 c 1.93291,-1.353867 0.79626,-4.570682 -1.6255,-4.60026 -0.49232,-0.006 -1.30814,0.378636 -1.83119,0.86338 -0.80621,0.747167 -0.91369,1.056729 -0.73952,2.129969 0.11208,0.69066 0.46676,1.448046 0.78819,1.683081 0.79084,0.578271 2.52914,0.539419 3.40802,-0.07617 z"
           id="path279" />
        <path
           style="fill:#000000;stroke-width:0.341511"
           d="m 581.69368,90.274175 c -0.56261,-0.256702 -1.5216,-0.667941 -2.13109,-0.913865 -0.60949,-0.245924 -1.10816,-0.563115 -1.10816,-0.704872 0,-0.141756 -0.19757,-0.257739 -0.43904,-0.257739 -0.46232,0 -3.65265,-3.076386 -3.65265,-3.522193 0,-0.142735 -0.3836,-0.643114 -0.85244,-1.111954 -0.46884,-0.468839 -0.85243,-0.987938 -0.85243,-1.153556 0,-0.751939 -1.16142,-1.372751 -2.56816,-1.372751 -1.62008,0 -5.27424,-0.993567 -5.27424,-1.434065 0,-0.148944 -0.20659,-0.270805 -0.45908,-0.270805 -0.77383,0 -2.62347,-1.054233 -3.05114,-1.739052 -0.2225,-0.35627 -0.54143,-0.647766 -0.70874,-0.647766 -0.3252,0 -1.04259,-0.758926 -2.11033,-2.232517 -0.36337,-0.501498 -0.83071,-1.092245 -1.03853,-1.31277 -0.20782,-0.220525 -0.57268,-1.009075 -0.8108,-1.75233 -0.23812,-0.743256 -0.56677,-1.70383 -0.73032,-2.13461 -0.38398,-1.011387 -0.38667,-6.417977 -0.004,-7.166827 0.1616,-0.315858 0.3933,-0.990758 0.5149,-1.499774 0.20392,-0.853615 0.0769,-0.996091 -1.63565,-1.834645 -1.97538,-0.967248 -5.07915,-3.729441 -6.0939,-5.423246 -1.83,-3.054629 -2.06945,-3.964706 -2.06344,-7.842402 0.005,-3.341532 0.10649,-3.972641 0.92863,-5.784972 0.50756,-1.118838 1.03523,-2.116187 1.17262,-2.216331 0.36511,-0.266127 1.42855,-1.98837 1.42091,-2.301166 -0.004,-0.147249 -0.5563,-0.881479 -1.22824,-1.631622 -2.61896,-2.923804 -3.76955,-7.250703 -3.10543,-11.678359 0.20393,-1.359634 0.47216,-2.472062 0.59606,-2.472062 0.12389,0 0.42833,-0.615311 0.67653,-1.367364 0.2482,-0.752048 1.28864,-2.292688 2.3121,-3.423645 l 1.86083,-2.056284 -0.89618,-1.727354 c -0.4929,-0.950046 -1.06038,-2.7856315 -1.26107,-4.0790857 -0.71658,-4.6184691 0.64787,-8.9613548 3.87783,-12.3427408 1.67318,-1.7516131 2.54932,-2.3735647 4.73896,-3.3640761 0.74978,-0.3391744 0.88283,-0.5793667 0.73378,-1.3246387 -0.30301,-1.5150447 0.5253,-5.7412157 1.44982,-7.3971777 0.96696,-1.73199 2.51234,-3.885759 3.03606,-4.231298 0.18865,-0.124464 0.80331,-0.628728 1.36591,-1.120588 0.56261,-0.491861 1.67881,-1.18862 2.48045,-1.548355 1.84525,-0.828052 6.16797,-2.04863 7.25906,-2.049694 0.66002,-6.48e-4 1.03111,-0.384378 1.8062,-1.867775 0.92568,-1.771593 2.96261,-4.268947 3.48191,-4.268947 0.13257,0 0.41139,-0.207218 0.6196,-0.460485 0.20821,-0.253267 1.29919,-0.828661 2.42441,-1.278653 1.69744,-0.678835 2.6352,-0.816582 5.50659,-0.808863 1.90341,0.0051 3.82139,0.181431 4.26218,0.391807 0.44078,0.210376 1.33845,0.583305 1.99483,0.828731 0.65637,0.245426 1.37988,0.606147 1.60779,0.801603 0.22791,0.195455 0.64539,0.549038 0.92773,0.785739 0.35078,0.294079 1.0873,0.362908 2.32579,0.217348 2.06725,-0.242965 5.98497,0.592487 6.59891,1.407217 0.20821,0.276306 0.46975,0.502374 0.58121,0.502374 0.33163,0 1.9385,1.708693 1.9385,2.061343 0,0.179012 0.15344,0.325475 0.34098,0.325475 0.18753,0 2.21633,2.581343 2.21633,3.157701 0,1.420765 -2.53126,-0.902625 -3.96731,-2.791083 -1.71154,-2.250736 -3.58711,-3.073057 -7.03588,-3.084805 -2.32132,-0.0079 -3.04465,-0.146597 -4.09169,-0.784532 -2.96028,-1.80364 -4.66044,-2.293839 -7.9557,-2.293839 -1.46348,0 -3.09005,0.175001 -3.61459,0.388892 -2.74089,1.117627 -3.42315,1.536604 -4.8886,3.00205 -1.00719,1.007184 -1.85055,2.279761 -2.28631,3.449877 l -0.69045,1.854018 -2.80678,0.27764 c -4.63358,0.458342 -8.68867,2.705308 -11.03782,6.116163 -1.59694,2.318693 -1.96068,3.506092 -2.21846,7.242052 l -0.21154,3.0656611 -1.39269,0.6850533 c -2.86163,1.4076103 -4.4371,2.8084617 -6.05644,5.3852006 -1.44727,2.30291662 -1.92881,4.0391835 -1.92269,6.9325287 0.005,2.5370955 0.55829,4.5102337 1.91049,6.8175773 l 0.85966,1.466908 -1.68774,1.634537 c -5.78916,5.606646 -6.01197,13.275018 -0.55703,19.170756 0.61948,0.66954 1.17553,1.31232 1.23567,1.428394 0.10387,0.200483 -0.90538,1.640638 -2.18348,3.115736 -0.32337,0.373216 -0.89876,1.509304 -1.27865,2.524646 -0.80206,2.143697 -0.9392,6.712684 -0.25935,8.640793 1.25237,3.551834 4.63734,7.212514 7.67046,8.295205 2.18108,0.778553 2.65579,1.286874 2.12609,2.276622 -0.60433,1.129204 -1.36302,4.326667 -1.35853,5.725493 0.0105,3.280616 1.52934,6.744343 4.07359,9.28998 2.70134,2.702802 6.68001,4.404395 10.31976,4.41354 1.47129,0.0037 1.66032,0.100066 2.18162,1.112213 1.41918,2.755455 4.42047,5.839043 6.94819,7.138713 1.23405,0.634509 2.06831,0.787122 4.26217,0.779678 3.01273,-0.01023 4.54229,-0.594389 6.84109,-2.612754 1.0882,-0.955457 1.31674,-1.031739 1.93477,-0.645777 1.8015,1.12505 5.12464,2.074376 7.26142,2.074376 3.60337,0 5.97695,-1.473771 7.64755,-4.748407 0.60905,-1.193835 0.64558,-3.267697 0.8476,-48.117048 0.11611,-25.7781942 0.28114,-49.671747 0.36671,-53.096787 0.1437,-5.75122 0.21878,-6.350828 0.982,-7.842402 1.02074,-1.994838 3.00259,-3.926604 4.80653,-4.685058 0.75014,-0.315392 2.62976,-0.657564 4.17693,-0.760383 1.54717,-0.102818 2.81303,-0.318752 2.81303,-0.479854 0,-0.161101 0.21137,-0.292911 0.46971,-0.292911 0.25834,0 0.65981,-0.229056 0.89216,-0.509014 0.23234,-0.279957 1.05668,-0.66708 1.83186,-0.860273 0.77518,-0.193193 1.69023,-0.510146 2.03343,-0.70434 0.34321,-0.194194 2.04353,-0.366661 3.77849,-0.383259 2.56218,-0.02451 3.5494,0.122957 5.25779,0.7854 1.15682,0.448569 2.10331,0.931439 2.10331,1.073046 0,0.141606 0.19757,0.257466 0.43904,0.257466 0.5538,0 3.65265,3.119666 3.65265,3.677183 0,0.227978 0.12262,0.414505 0.27248,0.414505 0.14986,0 0.45648,0.508846 0.68137,1.130768 0.39845,1.101895 0.49161,1.146347 3.64872,1.740976 1.78191,0.335615 3.23983,0.7474 3.23983,0.915077 0,0.167677 0.27684,0.304867 0.6152,0.304867 1.8074,0 6.54776,4.297965 7.98526,7.240038 1.46351,2.995285 1.62877,3.610996 1.62877,6.068248 v 2.3650305 l 1.73113,0.8772327 c 3.16226,1.6024398 5.39082,4.3221497 7.30486,8.9147913 0.9669,2.3200213 0.59655,7.1450285 -0.76423,9.9567245 l -1.05366,2.177095 1.13686,1.232645 c 1.69836,1.841443 2.4356,2.851985 2.70276,3.704703 0.13221,0.421955 0.35446,0.767191 0.49391,0.767191 0.97786,0 1.50372,8.021349 0.68945,10.516713 -0.44849,1.374404 -2.36985,4.562535 -3.47678,5.769031 l -0.70776,0.771426 0.75701,0.933444 c 0.41636,0.513394 1.28881,2.054372 1.93877,3.424395 1.08819,2.293708 1.18177,2.745035 1.18177,5.699745 0,2.038841 -0.17829,3.617063 -0.48899,4.328529 -0.26893,0.615854 -0.68998,1.618409 -0.93567,2.2279 -0.24567,0.609491 -0.56267,1.108166 -0.70442,1.108166 -0.14176,0 -0.25774,0.187348 -0.25774,0.416329 0,0.557152 -3.78223,4.357307 -4.33675,4.357307 -0.24029,0 -0.43689,0.12198 -0.43689,0.271067 0,0.149088 -0.69698,0.558492 -1.54885,0.909787 -1.16976,0.482386 -1.49267,0.770735 -1.3193,1.178072 0.12626,0.296644 0.4571,1.459983 0.73521,2.585197 0.76259,3.085351 -0.11841,8.561076 -1.61832,10.058474 -0.0941,0.09391 -0.38712,0.59011 -0.65124,1.102669 -0.90211,1.750687 -3.7754,4.236906 -5.99721,5.189311 -0.75014,0.321559 -1.86777,0.802008 -2.48363,1.067664 -0.61585,0.26566 -1.53648,0.484705 -2.04584,0.486771 -2.55834,0.01037 -3.4494,0.389877 -4.29635,1.829851 -0.77433,1.316501 -1.40804,2.139179 -2.92138,3.792466 -2.09827,2.292314 -5.88377,3.921202 -9.1128,3.921202 -1.86328,0 -4.24789,-0.675439 -4.88353,-1.383254 -0.0938,-0.104416 -0.65814,-0.386981 -1.25415,-0.627924 -0.59602,-0.240942 -1.1666,-0.654186 -1.26796,-0.918321 -0.22391,-0.583499 -0.94905,-0.62341 -1.49043,-0.08203 -1.32714,1.327139 -6.24453,1.712856 -9.29144,0.728815 -1.84883,-0.597107 -6.86608,-4.998299 -6.86608,-5.887283 0,-1.028722 2.22137,0.690239 3.75239,2.122327 3.59664,3.36424 8.67535,3.873509 12.3728,1.240688 l 1.02469,-0.729643 0.91338,0.838097 c 1.6288,1.494533 2.93519,2.236104 4.99326,2.834401 1.66841,0.485018 2.30548,0.52079 3.66914,0.206023 3.90325,-0.90098 6.75783,-3.065486 9.0553,-6.866252 l 1.33973,-2.216331 2.35061,-0.219386 c 1.29283,-0.12066 2.81092,-0.368825 3.37353,-0.551477 3.88462,-1.261147 7.14408,-3.997559 8.85059,-7.430315 0.91441,-1.839398 1.00822,-2.345206 1.00854,-5.437782 2.8e-4,-2.787762 -0.13697,-3.713084 -0.75246,-5.072711 -0.41404,-0.914632 -0.75281,-1.7266 -0.75281,-1.804373 0,-0.07777 0.95899,-0.577191 2.13109,-1.109816 3.10819,-1.412434 4.89086,-2.857458 6.3938,-5.182791 3.52519,-5.454156 3.04968,-11.283775 -1.33034,-16.309513 l -1.02697,-1.178366 1.51009,-1.488757 c 2.26506,-2.233066 3.70916,-5.42582 3.86689,-8.549289 0.21167,-4.191662 -1.01738,-7.255245 -4.15428,-10.355183 l -1.98652,-1.963096 0.64732,-0.94146 c 3.70197,-5.3842251 2.88753,-12.45074092 -1.94579,-16.8825758 -1.07341,-0.984243 -2.70473,-2.1826152 -3.62517,-2.6630493 l -1.67353,-0.8735171 0.10518,-1.6837879 c 0.13512,-2.1631669 -0.66622,-5.5595729 -1.74622,-7.4012259 -1.28449,-2.190373 -3.8915,-4.565893 -6.26941,-5.712739 -2.40421,-1.159529 -3.17382,-1.344753 -6.0324,-1.451831 -1.3762,-0.05155 -2.09529,-0.236265 -2.28357,-0.586586 -0.15115,-0.281237 -0.67799,-1.355251 -1.17076,-2.386698 -1.07116,-2.242115 -1.91277,-3.200171 -3.77201,-4.293945 -4.56774,-2.687158 -10.02694,-2.39406 -14.866,0.798141 -0.81162,0.535399 -1.49948,0.751118 -1.94461,0.609839 -0.95132,-0.301937 -4.67947,0.417451 -6.21005,1.198299 -1.65811,0.845901 -3.21867,2.775748 -3.66879,4.53694 -0.2419,0.946492 -0.428,18.6342934 -0.56375,53.581924 -0.19642,50.565576 -0.26111,53.571013 -1.17051,54.385354 -0.10471,0.09377 -0.4203,0.630802 -0.70131,1.193409 -0.63907,1.279516 -0.84947,1.501728 -2.66693,2.816691 -1.95219,1.412437 -4.46614,1.924914 -7.27691,1.483421 -3.11954,-0.48999 -4.1353,-0.770925 -4.65062,-1.286246 -0.72352,-0.723523 -1.64805,-0.541323 -3.39059,0.668187 -3.05127,2.117929 -7.06196,2.870087 -9.46281,1.77465 z"
           id="path283"
           sodipodi:nodetypes="cssssssssssssssscssscsscssssscsssssssssssssssssssssssssssssssscssscsscscsssssssssssssssssssssssssssssssssssssssscssscssssscsssssssssssssssssssssssssssscsssscssssssssscssscssscsssssssssssssssssscc" />
      </g>
      <path
         style="fill:#ffffff;stroke-width:0.455164"
         d="m 580.95038,265.14558 c -1.20717,-0.81233 -2.87955,-2.39722 -3.71639,-3.52198 -2.70645,-3.63765 -2.70342,-3.63533 -4.75294,-3.64003 -3.90745,-0.009 -9.06984,-3.40039 -10.99903,-7.22583 -1.48331,-2.9413 -1.75064,-5.26644 -0.9452,-8.22099 0.995,-3.64988 0.94094,-3.81816 -1.61006,-5.01299 -4.32692,-2.02662 -7.2134,-6.39293 -7.23122,-10.93853 -0.0121,-3.07195 0.60622,-5.04348 2.32956,-7.42852 0.71282,-0.98654 1.29605,-2.01456 1.29605,-2.28448 0,-0.26992 -0.81177,-1.57113 -1.80394,-2.89159 -4.01868,-5.34835 -3.60051,-11.0306 1.20724,-16.40424 l 1.80272,-2.01492 -1.10138,-1.97057 c -1.30689,-2.3383 -1.78381,-6.38491 -1.06541,-9.03999 0.69814,-2.58021 2.88098,-5.4338 5.3584,-7.00493 1.1484,-0.72829 2.26911,-1.38454 2.49047,-1.45833 0.22136,-0.0738 0.5793,-1.71098 0.79543,-3.63821 0.62256,-5.5513 2.83591,-8.56935 7.94049,-10.82735 1.19224,-0.52739 3.22963,-1.06848 4.5275,-1.20244 2.32569,-0.24003 2.37977,-0.28052 3.74449,-2.80395 1.06514,-1.96948 1.95015,-2.90127 3.83468,-4.03736 2.14785,-1.29482 2.84473,-1.47691 5.65121,-1.4766 2.6129,3e-4 3.73076,0.25086 6.08236,1.36335 1.62101,0.76686 3.63346,1.36299 4.6013,1.36299 3.44373,0 4.63431,0.5234 7.26253,3.19274 l 2.55536,2.59535 -0.30745,49.80976 c -0.29579,47.92031 -0.34041,49.86619 -1.17631,51.29745 -2.13797,3.66071 -5.66847,4.59709 -10.81671,2.86888 -3.41565,-1.14659 -3.55487,-1.15772 -4.64314,-0.37117 -2.57351,1.86002 -4.04778,2.40005 -6.554,2.40074 -2.13762,4.5e-4 -2.9251,-0.24381 -4.75661,-1.47626 z m 6.93665,-3.13589 c 1.55255,-1.45855 1.4962,-4.80087 -0.11317,-6.7135 -0.64709,-0.76902 -1.44321,-1.39822 -1.76917,-1.39822 -0.32597,0 -0.71651,-0.32276 -0.86789,-0.71724 -0.31416,-0.8187 0.98668,-2.1749 4.86748,-5.0746 2.53279,-1.89249 2.5817,-1.97171 2.5817,-4.18227 0,-1.23929 0.22175,-2.723 0.49278,-3.29714 0.63359,-1.34213 5.47575,-4.97741 8.22309,-6.17354 3.53093,-1.53728 4.62927,-5.11147 2.38892,-7.77399 -0.64094,-0.7617 -1.87556,-1.58102 -2.74361,-1.8207 -0.86804,-0.23967 -3.00216,-1.52169 -4.7425,-2.84892 l -3.16423,-2.41315 v -2.58713 c 0,-2.11396 0.15308,-2.63572 0.83701,-2.85279 1.73049,-0.54924 2.93612,-2.40486 2.98198,-4.58965 0.0398,-1.89445 -0.13473,-2.25397 -1.88759,-3.88925 -1.76937,-1.65069 -1.9314,-1.99054 -1.9314,-4.05104 0,-2.19114 0.0659,-2.30087 2.55203,-4.25218 1.40363,-1.10166 3.09076,-2.25094 3.7492,-2.55396 3.65937,-1.68409 4.32289,-2.14805 4.94863,-3.46025 1.32495,-2.77845 -0.48972,-6.55363 -3.46428,-7.20695 -0.68041,-0.14945 -2.6594,-1.33831 -4.39774,-2.64191 l -3.16062,-2.3702 -0.13401,-3.0512 -0.134,-3.0512 -3.50159,-2.55475 c -1.92587,-1.40511 -3.67138,-2.85513 -3.87889,-3.22227 -0.27075,-0.47903 0.21048,-1.21489 1.70419,-2.6059 1.64259,-1.52965 2.08148,-2.24785 2.08148,-3.40613 0,-4.87493 -5.78939,-7.2633 -8.83436,-3.64456 -0.75961,0.90274 -1.16352,1.93066 -1.16352,2.96104 0,1.59908 1.08918,4.25983 1.74378,4.25983 0.1964,0 0.81505,0.42665 1.37476,0.94811 1.25409,1.16835 0.97598,1.57891 -2.81216,4.15138 -4.20053,2.85252 -4.39455,3.13303 -4.40966,6.37534 l -0.0133,2.84031 -2.78904,2.04502 c -1.53397,1.12476 -3.82865,2.56954 -5.0993,3.21063 -2.74202,1.38344 -3.55195,2.68914 -3.29383,5.31004 0.2359,2.39535 0.88253,3.20022 3.48303,4.33545 2.07584,0.90618 5.48317,3.35606 6.93035,4.98294 0.52384,0.5889 0.79528,1.64194 0.79528,3.08532 0,1.79239 -0.1655,2.2438 -0.9092,2.47984 -1.4084,0.44701 -3.18084,3.07904 -3.18084,4.72347 0,2.06595 1.09147,3.9153 2.70526,4.58376 1.31456,0.54451 1.38402,0.70331 1.36962,3.13154 l -0.0152,2.55795 -3.18377,2.4274 c -1.75108,1.33508 -3.90217,2.62576 -4.78019,2.8682 -3.22074,0.88929 -4.44364,5.39797 -2.19041,8.07578 0.64708,0.76902 1.38761,1.39821 1.64561,1.39821 0.92914,0 8.0197,5.60984 8.27025,6.54318 0.14104,0.52538 0.25923,2.00309 0.26264,3.28379 l 0.007,2.32857 3.65822,2.40168 c 4.7424,3.11348 4.97303,3.56051 2.75613,5.34206 -3.07715,2.47286 -3.46411,5.03446 -1.172,7.75848 1.76261,2.09474 5.09528,2.09258 7.32777,-0.005 z"
         id="path290" />
      <path
         style="fill:#ffffff;stroke-width:0.455164"
         d="m 630.53247,266.55824 c -0.74985,-0.27107 -2.11824,-1.08326 -3.04089,-1.80485 -2.00519,-1.56825 -2.13514,-1.57905 -4.21712,-0.35066 -3.24879,1.91684 -7.47278,1.00312 -11.17822,-2.41805 l -1.62161,-1.4972 0.32413,-35.2198 c 0.17827,-19.37089 0.34561,-41.88699 0.37187,-50.03579 0.0469,-14.57797 0.0642,-14.84014 1.07026,-16.31838 1.58622,-2.33064 3.06383,-3.17121 6.72799,-3.82734 1.86093,-0.33323 4.50826,-1.13913 5.88297,-1.79088 3.17338,-1.50452 7.0145,-1.59934 9.99788,-0.24681 2.69128,1.22011 3.72816,2.2476 4.99272,4.94747 1.03512,2.21004 1.07793,2.24026 3.59444,2.53763 7.31735,0.86467 12.09349,5.65134 12.65818,12.68609 0.18828,2.3456 0.40826,2.99974 1.08053,3.21311 0.46427,0.14736 1.84745,1.06101 3.07375,2.03034 4.6011,3.63695 6.01989,9.57006 3.51353,14.69287 l -1.23196,2.51804 2.29801,2.85181 c 2.51912,3.1262 3.19434,4.89464 3.18306,8.33666 -0.008,2.64447 -1.19061,5.51855 -3.3564,8.16162 l -1.51721,1.85155 1.73683,2.41412 c 2.24224,3.1166 3.03445,6.40523 2.27914,9.46125 -0.8741,3.53667 -3.1289,6.49764 -6.4256,8.43804 -1.58508,0.93295 -3.0556,1.75416 -3.26781,1.82489 -0.21221,0.0707 -0.0695,0.88573 0.31715,1.8111 0.41795,1.00031 0.70126,3.02428 0.69872,4.99183 -0.004,2.81764 -0.20051,3.65151 -1.32505,5.61207 -2.11145,3.68118 -5.61104,5.93709 -10.20632,6.5792 -2.01016,0.28089 -2.96819,0.65226 -3.46118,1.34168 -0.37492,0.52432 -1.4329,1.94034 -2.35107,3.14672 -2.61909,3.44122 -7.32715,5.24512 -10.60072,4.06167 z m 6.37224,-3.31894 c 2.01476,-0.84182 3.18611,-3.13633 2.76017,-5.40677 -0.21104,-1.12502 -0.88503,-2.11737 -2.20603,-3.24809 -2.37306,-2.03126 -2.23189,-2.32344 2.74699,-5.68541 l 3.70156,-2.49947 0.0156,-3.0284 0.0156,-3.0284 2.84031,-2.24601 c 1.56216,-1.23531 3.70427,-2.78598 4.76021,-3.44595 4.75397,-2.97118 4.59623,-7.13935 -0.36933,-9.75938 -1.10276,-0.58186 -3.27807,-2.01337 -4.83401,-3.18114 l -2.82899,-2.12321 -0.0113,-2.37419 c -0.0104,-2.17247 0.10218,-2.43287 1.32444,-3.06493 1.88985,-0.97728 2.75428,-2.42056 2.75428,-4.59859 0,-2.10665 -1.2544,-4.08573 -3.0136,-4.75457 -0.94498,-0.35928 -1.07644,-0.70274 -1.07644,-2.81236 0,-2.37877 0.0261,-2.42372 2.57633,-4.44212 1.41697,-1.12147 3.60305,-2.55029 4.85795,-3.17516 2.78467,-1.38661 4.12223,-3.10109 4.06253,-5.20736 -0.056,-1.97491 -1.6393,-4.24268 -3.23329,-4.631 -1.27674,-0.31103 -3.75393,-1.92588 -6.44573,-4.2019 -1.46759,-1.24091 -1.60813,-1.58413 -1.81779,-4.43936 l -0.22722,-3.09447 -3.39654,-2.33813 c -4.63659,-3.19176 -4.7177,-3.38025 -2.38223,-5.53634 1.73235,-1.5993 1.91595,-1.97481 1.91595,-3.91859 0,-1.77015 -0.23458,-2.38437 -1.32838,-3.47818 -1.10973,-1.10972 -1.69799,-1.32838 -3.57363,-1.32838 -3.5121,0 -4.9907,1.85792 -4.7017,5.90783 0.0483,0.67615 0.81283,1.80509 1.88847,2.78844 0.99408,0.90878 1.8074,1.87354 1.8074,2.14391 0,0.27038 -1.17589,1.35579 -2.61308,2.41203 -4.96922,3.65202 -5.11255,3.84734 -5.11255,6.9667 v 2.7798 l -3.07629,2.33872 c -1.69195,1.28629 -3.88287,2.60452 -4.86871,2.92939 -2.40722,0.79329 -4.04195,3.16271 -3.6923,5.35174 0.35582,2.22769 1.6793,3.80389 3.60375,4.29187 0.9075,0.23011 3.03517,1.45712 4.72817,2.72669 3.05317,2.28956 3.07927,2.32764 3.21537,4.68991 0.1305,2.26495 0.047,2.46742 -1.70419,4.13329 -1.62227,1.54324 -1.84139,1.99611 -1.84139,3.80578 0,2.22095 1.14248,4.17334 2.73855,4.67991 0.75866,0.24079 0.89704,0.69556 0.89704,2.94804 v 2.66334 l -3.25894,2.5322 c -1.79242,1.39271 -3.68968,2.5322 -4.21615,2.5322 -1.30328,0 -2.84285,1.14862 -3.66151,2.73172 -1.46724,2.83732 -0.36586,5.39406 3.02915,7.03187 1.27339,0.6143 3.72075,2.18543 5.43857,3.49139 l 3.12333,2.37448 v 3.00862 3.00863 l 3.32352,2.32049 c 1.82794,1.27626 3.56974,2.61715 3.87067,2.97974 0.71554,0.86219 0.2994,1.86519 -1.08023,2.60354 -2.19176,1.173 -3.21641,3.89422 -2.29004,6.08177 0.90314,2.13268 2.36258,3.18512 4.7116,3.39765 0.32045,0.029 1.28976,-0.24273 2.154,-0.60383 z"
         id="path292" />
      <path
         style="fill:#ffffff;stroke-width:0.455164"
         d="m 624.31,195.81131 c -1.17282,-0.92036 -2.14421,-1.84563 -2.15863,-2.05615 -0.0144,-0.21053 0.38279,-0.90274 0.88269,-1.53825 1.23152,-1.56563 1.19502,-4.35359 -0.0805,-6.14482 l -0.98935,-1.38941 1.33018,-1.08975 c 0.73161,-0.59936 1.86924,-1.48564 2.52807,-1.96952 l 1.19787,-0.87977 2.32411,1.85047 c 1.27826,1.01777 2.3241,1.94994 2.3241,2.07151 0,0.12156 -0.30135,0.52237 -0.66966,0.89069 -1.2262,1.2262 -1.70474,4.04905 -0.98032,5.78283 0.35659,0.85344 0.87371,1.69099 1.14916,1.86123 0.27545,0.17024 0.50082,0.4583 0.50082,0.64015 0,0.40904 -4.38739,3.71743 -4.87352,3.67497 -0.19395,-0.0169 -1.31223,-0.78382 -2.48507,-1.70418 z"
         id="path294" />
      <path
         style="fill:#ffffff;stroke-width:0.227583"
         d="m 580.83761,181.57016 -3.55378,-2.41296 v -2.65233 -2.65233 l 3.54452,-2.35469 c 2.49432,-1.65703 3.63104,-2.29193 3.83656,-2.14284 0.16063,0.11652 1.68426,1.21223 3.38584,2.43491 l 3.09378,2.22306 v 2.46361 2.4636 l -3.12433,2.3737 c -1.71839,1.30554 -3.23784,2.4402 -3.37658,2.52147 -0.13872,0.0813 -1.85143,-0.93807 -3.80601,-2.2652 z"
         id="path296" />
      <path
         style="fill:#ffffff;stroke-width:0.227583"
         d="m 574.35887,196.2637 c -1.11024,-0.85805 -2.2401,-1.84166 -2.5108,-2.1858 l -0.49218,-0.62571 0.4887,-0.26155 c 0.26879,-0.14386 0.78457,-0.70208 1.14619,-1.2405 0.58364,-0.86903 0.65746,-1.17566 0.65746,-2.73085 0,-1.49986 -0.0827,-1.87385 -0.5753,-2.59965 -0.31642,-0.46627 -0.88007,-1.1042 -1.25256,-1.41763 l -0.67726,-0.56987 1.76382,-1.44745 c 0.9701,-0.7961 2.17937,-1.67038 2.68728,-1.94284 l 0.92346,-0.49539 1.23517,0.79935 c 0.67934,0.43965 1.92359,1.30575 2.76499,1.92467 l 1.52981,1.12532 -0.81125,0.77922 c -1.50372,1.44437 -2.13504,3.29414 -1.68929,4.94955 0.14039,0.52137 0.70966,1.50582 1.26504,2.18768 l 1.00978,1.23975 -0.73528,0.57021 c -0.40441,0.31362 -1.6294,1.22978 -2.72223,2.0359 l -1.98693,1.46568 z"
         id="path298" />
      <path
         style="fill:#ffffff;stroke-width:0.227583"
         d="m 589.5555,196.01759 c -1.27172,-1.02294 -2.36841,-2.0063 -2.43708,-2.18525 -0.0717,-0.18684 0.22198,-0.6813 0.6898,-1.16142 1.49322,-1.53246 1.9738,-3.70476 1.17218,-5.29841 -0.21132,-0.4201 -0.83366,-1.22778 -1.38299,-1.79484 l -0.99877,-1.03103 2.21203,-1.66774 c 1.21662,-0.91726 2.44142,-1.77226 2.72177,-1.9 0.59379,-0.27054 1.1611,0.058 4.00835,2.32153 l 1.78316,1.41758 -0.81644,0.74783 c -2.19779,2.0131 -2.28225,5.07725 -0.19887,7.21532 0.82162,0.84319 0.82303,0.8481 0.38655,1.33513 -0.34605,0.38613 -2.71305,2.2869 -4.56419,3.66518 -0.17171,0.12785 -1.06738,-0.45079 -2.5755,-1.66388 z"
         id="path300" />
      <path
         style="fill:#ffffff;stroke-width:0.227583"
         d="m 630.94479,181.48456 -3.21711,-2.51106 v -2.23549 c 0,-2.64663 -0.11982,-2.45778 3.06753,-4.83494 2.67236,-1.99308 3.07054,-2.2226 3.85587,-2.2226 0.67489,0 0.89245,0.12736 4.38102,2.56472 l 2.55627,1.78598 v 2.5784 2.5784 l -2.55627,1.80103 c -3.53983,2.49399 -4.32721,3.00662 -4.61808,3.00662 -0.13866,0 -1.69982,-1.12998 -3.46923,-2.51106 z"
         id="path302" />
      <path
         style="fill:#ffffff;stroke-width:0.227583"
         d="m 639.93227,196.03365 c -1.34826,-1.00167 -2.51229,-1.97995 -2.58673,-2.17394 -0.0852,-0.22196 0.17509,-0.67065 0.70199,-1.21025 1.43234,-1.46684 1.80348,-3.75445 0.89664,-5.52644 -0.17502,-0.34199 -0.64206,-0.99064 -1.03786,-1.44143 -0.56532,-0.64386 -0.66899,-0.90035 -0.48347,-1.196 0.26746,-0.4262 4.83659,-3.64937 5.19198,-3.66255 0.29282,-0.0109 4.88139,3.59155 4.88139,3.83229 0,0.0983 -0.21947,0.37354 -0.48772,0.61161 -0.26824,0.23807 -0.77949,0.83164 -1.13612,1.31904 -0.58933,0.80546 -0.64841,1.05736 -0.64841,2.76511 V 191.23 l 1.14254,1.32494 1.14253,1.32494 -0.97188,0.87636 c -1.04426,0.94163 -3.85275,3.09475 -4.03988,3.09717 -0.0625,8.2e-4 -1.21673,-0.81809 -2.565,-1.81976 z"
         id="path304" />
      <path
         style="fill:#ffffff;stroke-width:0.227583"
         d="m 581.59837,222.68059 c -1.4225,-0.96855 -2.9752,-2.1286 -3.45045,-2.5779 l -0.86409,-0.81691 v -2.47918 -2.47917 l 1.14222,-0.524 c 1.37402,-0.63035 2.16773,-1.71929 2.52653,-3.46632 0.44106,-2.14755 -0.43796,-3.99811 -2.4917,-5.24572 -0.45991,-0.27938 -0.91133,-0.61562 -1.00315,-0.74719 -0.0918,-0.13157 -0.16621,-1.31285 -0.16532,-2.62507 l 0.002,-2.38586 3.09379,-2.27225 c 4.31396,-3.1684 3.89001,-3.02099 5.3388,-1.85634 0.66785,0.53686 2.1601,1.72004 3.3161,2.62928 l 2.10182,1.65317 v 2.44484 2.44483 l -0.9138,0.41207 c -1.24703,0.56233 -2.63379,2.12228 -2.9592,3.32875 -0.64837,2.40377 0.32365,4.58139 2.57019,5.75802 l 1.30152,0.68167 6.6e-4,2.04857 c 7.7e-4,2.47049 -0.26566,3.05464 -2.04438,4.48231 -1.88317,1.5115 -4.46721,3.35339 -4.70457,3.35339 -0.11561,0 -1.37407,-0.79245 -2.79658,-1.76099 z"
         id="path306" />
      <path
         style="fill:#ffffff;stroke-width:0.227583"
         d="m 631.65352,222.59202 c -1.34689,-1.01726 -2.7812,-2.16208 -3.18737,-2.54404 l -0.73847,-0.69449 v -2.29944 -2.29944 l 0.90842,-0.51057 c 2.23818,-1.25792 3.16789,-2.64858 3.17663,-4.75153 0.008,-1.96363 -1.25811,-3.78278 -3.31624,-4.76424 l -0.76881,-0.36662 v -2.2992 c 0,-2.29813 3.4e-4,-2.29952 0.73847,-3.00294 0.92329,-0.87986 5.84402,-4.61157 6.08094,-4.61157 0.18049,0 0.60302,0.2897 4.63982,3.18114 l 2.37924,1.70419 0.0111,2.64766 0.0111,2.64766 -0.64623,0.22528 c -1.05502,0.36778 -2.21569,1.55321 -2.7603,2.8192 -1.02975,2.39369 -0.16083,4.8287 2.21334,6.20257 l 1.178,0.68167 0.008,2.55763 0.008,2.55764 -2.61216,1.93283 c -3.0903,2.28662 -3.95593,2.83417 -4.48239,2.83532 -0.21529,4.5e-4 -1.49343,-0.83145 -2.84031,-1.84871 z"
         id="path308" />
      <path
         style="fill:#ffffff;stroke-width:0.227583"
         d="m 573.42631,236.56181 -2.53121,-1.96768 1.12331,-1.15665 c 1.48303,-1.52706 1.68266,-1.97135 1.65692,-3.68765 -0.0256,-1.70547 -0.45812,-2.86416 -1.45875,-3.90788 l -0.72696,-0.75826 1.01487,-0.90682 c 0.55817,-0.49875 1.61703,-1.35947 2.35299,-1.91271 l 1.33813,-1.00588 0.82814,0.46923 c 1.45469,0.82424 4.37215,2.9615 4.50102,3.29734 0.0684,0.17842 -0.19119,0.68393 -0.57702,1.12337 -2.04324,2.32712 -2.00438,4.89757 0.10816,7.15605 l 1.0111,1.08095 -1.99394,1.47054 c -2.34919,1.73252 -3.74305,2.67374 -3.95959,2.67374 -0.0858,0 -1.295,-0.88546 -2.68717,-1.96769 z"
         id="path310" />
      <path
         style="fill:#ffffff;stroke-width:0.227583"
         d="m 588.99331,236.55021 -2.624,-1.97929 1.12763,-1.14505 c 2.42144,-2.45884 2.4936,-4.80808 0.22333,-7.27104 -0.52769,-0.57248 -0.91893,-1.07644 -0.86942,-1.11991 0.83683,-0.73467 2.92265,-2.32504 3.90352,-2.97629 l 1.26596,-0.84056 1.66393,1.23572 c 0.91516,0.67965 2.093,1.59677 2.61743,2.03805 l 0.95351,0.80233 -0.58005,0.53941 c -0.31903,0.29667 -0.87497,1.05066 -1.23541,1.67553 -1.12734,1.95436 -0.7498,4.10118 1.01682,5.78199 0.45267,0.43068 0.82304,0.86036 0.82304,0.95484 0,0.21191 -5.19687,4.28356 -5.46734,4.28356 -0.10722,0 -1.37574,-0.89069 -2.81895,-1.97929 z"
         id="path312" />
      <path
         style="fill:#ffffff;stroke-width:0.227583"
         d="m 582.11967,248.69345 c -1.02702,-0.65372 -2.57212,-1.66708 -3.43358,-2.25191 -1.78733,-1.2134 -1.86278,-1.39161 -1.84671,-4.36166 l 0.01,-1.8462 3.59573,-2.4855 c 1.97765,-1.36703 3.67085,-2.49179 3.76265,-2.49947 0.0918,-0.008 1.57414,1.05967 3.29409,2.37189 l 3.12718,2.38585 0.12772,2.61309 c 0.14514,2.96984 0.38966,2.50429 -2.32712,4.43087 -0.88116,0.62487 -2.12368,1.51957 -2.76117,1.98822 -0.63749,0.46865 -1.27662,0.85014 -1.42029,0.84775 -0.14366,-0.002 -1.10149,-0.53921 -2.1285,-1.19293 z"
         id="path314" />
      <path
         style="fill:#ffffff;stroke-width:0.227583"
         d="m 632.4016,248.50633 c -1.31906,-0.89011 -2.83362,-2.00452 -3.36569,-2.47646 l -0.9674,-0.85807 -0.0768,-2.38852 -0.0768,-2.38852 1.66738,-1.25088 c 3.55328,-2.6657 4.17556,-3.15525 4.43093,-3.4859 0.35033,-0.4536 0.88997,-0.17364 4.79166,2.48591 l 3.01072,2.05224 -0.007,2.63185 -0.007,2.63186 -3.19189,2.15863 c -1.75555,1.18725 -3.33096,2.23685 -3.50092,2.33244 -0.20006,0.11253 -1.15458,-0.39678 -2.70729,-1.44458 z"
         id="path316" />
      <path
         style="fill:#ffffff;stroke-width:0.227583"
         d="m 625.99452,237.90366 c -0.51582,-0.34315 -1.72809,-1.27315 -2.69391,-2.06667 l -1.75605,-1.44278 0.79428,-0.82947 c 2.1269,-2.22115 2.26122,-4.68366 0.38495,-7.05732 -0.49717,-0.62897 -0.90395,-1.18992 -0.90395,-1.24657 0,-0.19599 4.85346,-3.84893 5.11388,-3.84893 0.19397,0 3.23664,2.17024 5.08319,3.62568 0.047,0.0371 -0.32142,0.55724 -0.81886,1.15587 -1.28038,1.54082 -1.42535,1.89969 -1.42535,3.52833 0,1.81486 0.75486,3.45293 1.94389,4.2183 0.44701,0.28774 0.78044,0.61735 0.74096,0.73248 -0.10511,0.30654 -4.94896,3.85709 -5.26049,3.85594 -0.14557,-5.4e-4 -0.68671,-0.28172 -1.20254,-0.62486 z"
         id="path318" />
      <path
         style="fill:#ffffff;stroke-width:0.227583"
         d="m 639.59134,236.54808 -2.79232,-1.95779 0.76846,-0.8139 c 1.51994,-1.60981 1.83418,-2.25363 1.82987,-3.74911 -0.005,-1.54482 -0.58038,-2.94369 -1.6959,-4.11916 l -0.65678,-0.69208 1.07892,-0.8188 c 0.59341,-0.45034 1.83833,-1.34027 2.76648,-1.97761 1.65694,-1.13779 1.69816,-1.15195 2.27224,-0.78062 0.47314,0.30604 3.38615,2.58378 4.18864,3.27517 0.10757,0.0927 -0.32699,0.79645 -0.96571,1.56393 l -1.16128,1.39543 v 1.91655 1.91655 l 1.24974,1.47318 c 0.68735,0.81024 1.24618,1.55294 1.24182,1.65043 -0.0138,0.30948 -4.576,3.69976 -4.96206,3.68743 -0.20339,-0.007 -1.62635,-0.89281 -3.16212,-1.9696 z"
         id="path320" />
      <path
         style="fill:#ffffff;stroke-width:0.227583"
         d="m 631.65036,222.59655 c -1.34515,-1.01476 -2.77804,-2.15958 -3.18421,-2.54404 -0.73825,-0.69881 -0.73847,-0.69971 -0.73597,-2.9835 l 0.003,-2.28448 1.3443,-0.83196 c 1.71908,-1.06391 2.55697,-2.29489 2.695,-3.95931 0.1834,-2.21154 -1.05228,-4.20481 -3.25903,-5.25713 l -0.78527,-0.37448 v -2.2992 c 0,-2.29813 3.4e-4,-2.29952 0.73847,-3.00294 0.92329,-0.87986 5.84402,-4.61157 6.08094,-4.61157 0.17731,0 0.3907,0.14622 4.6423,3.18114 l 2.38737,1.70419 0.006,2.64766 0.006,2.64766 -0.62792,0.21889 c -1.5802,0.55086 -3.2349,2.90792 -3.2349,4.60799 0,1.87621 1.01361,3.53438 2.74365,4.48833 l 1.11262,0.61351 0.003,2.54606 0.003,2.54607 -1.761,1.33827 c -2.84121,2.1592 -4.82575,3.45387 -5.29428,3.45387 -0.24036,0 -1.5376,-0.83026 -2.88274,-1.84503 z"
         id="path322" />
      <path
         style="fill:#ffffff;stroke-width:0.227583"
         d="m 568.25942,191.33468 c -0.27692,-0.0536 -0.77276,-0.41746 -1.10187,-0.80858 -1.73624,-2.0634 1.41634,-4.82306 3.32703,-2.91237 0.71546,0.71545 0.89282,1.89241 0.41869,2.77835 -0.22593,0.42214 -1.54745,1.14329 -1.96263,1.071 -0.0978,-0.017 -0.4043,-0.0748 -0.68122,-0.1284 z"
         id="path324" />
      <path
         style="fill:#ffffff;stroke-width:0.227583"
         d="m 582.73477,190.85606 c -0.85334,-0.691 -0.80344,-2.2651 0.10177,-3.20993 1.40098,-1.46231 3.7635,-0.49998 3.7635,1.533 0,1.35022 -0.56743,1.90835 -2.06653,2.03267 -0.99778,0.0827 -1.34108,0.0148 -1.79874,-0.35574 z"
         id="path326" />
      <path
         style="fill:#ffffff;stroke-width:0.227583"
         d="m 598.06456,190.70907 c -0.9001,-0.90009 -0.57688,-2.91403 0.56579,-3.52558 0.58935,-0.3154 1.86264,-0.28362 2.29526,0.0573 1.03381,0.81466 1.44128,2.34642 0.83444,3.1368 -0.80275,1.04557 -2.80208,1.2249 -3.69549,0.33148 z"
         id="path328" />
      <path
         style="fill:#ffffff;stroke-width:0.227583"
         d="m 583.13486,162.84553 c -0.2187,-0.12738 -0.55102,-0.5282 -0.73848,-0.8907 -0.996,-1.92607 0.55753,-3.82384 2.62354,-3.20485 1.67895,0.50303 2.08384,2.29213 0.80756,3.56842 -0.81069,0.81069 -1.85483,1.0151 -2.69262,0.52713 z"
         id="path330" />
      <path
         style="fill:#ffffff;stroke-width:0.227583"
         d="m 575.46604,211.56695 c -0.45815,-0.18148 -1.35602,-1.0087 -1.6138,-1.48681 -0.28606,-0.53054 0.3631,-2.09861 1.05701,-2.55328 0.81244,-0.53233 2.01327,-0.44789 2.75956,0.19404 0.54228,0.46645 0.63754,0.72014 0.63754,1.69787 0,0.85764 -0.11883,1.26832 -0.46804,1.61752 -0.48165,0.48166 -1.76899,0.76963 -2.37227,0.53066 z"
         id="path332" />
      <path
         style="fill:#ffffff;stroke-width:0.227583"
         d="m 590.97555,211.48323 c -0.76751,-0.30857 -1.463,-1.5647 -1.31736,-2.37931 0.17682,-0.98906 1.30288,-1.93141 2.30793,-1.93141 0.62325,0 0.99578,0.18136 1.58699,0.77257 0.80278,0.80277 0.92396,1.29914 0.55441,2.2711 -0.50836,1.33709 -1.72925,1.831 -3.13197,1.26705 z"
         id="path334" />
      <path
         style="fill:#ffffff;stroke-width:0.227583"
         d="m 567.91368,231.81151 c -1.46023,-0.79231 -1.65278,-2.75936 -0.37533,-3.83426 0.93781,-0.78912 1.81163,-0.75069 2.80723,0.12346 0.68071,0.59766 0.8021,0.84889 0.79597,1.64737 -0.008,1.09202 -0.2796,1.5223 -1.28803,2.04337 -0.87891,0.45415 -1.13494,0.4568 -1.93984,0.0201 z"
         id="path336" />
      <path
         style="fill:#ffffff;stroke-width:0.227583"
         d="m 583.24282,231.71181 c -1.39411,-0.84999 -1.57372,-2.38474 -0.4147,-3.54375 1.04827,-1.04828 1.95108,-1.04828 2.99936,0 1.23843,1.23843 0.97762,2.84726 -0.59329,3.65961 -0.85553,0.44241 -1.09895,0.42825 -1.99137,-0.11586 z"
         id="path338" />
      <path
         style="fill:#ffffff;stroke-width:0.227583"
         d="m 598.71425,231.72407 c -1.46383,-0.89256 -1.64193,-2.34895 -0.43487,-3.55601 1.04829,-1.04828 1.95109,-1.04828 2.99937,0 1.23843,1.23843 0.97761,2.84726 -0.5933,3.65961 -0.85239,0.44079 -1.0997,0.42779 -1.9712,-0.1036 z"
         id="path340" />
      <path
         style="fill:#ffffff;stroke-width:0.227583"
         d="m 582.71975,260.36053 c -1.29362,-1.29362 -0.71067,-3.57483 1.02482,-4.01041 1.12826,-0.28317 2.50763,0.68636 2.63332,1.85092 0.1041,0.96443 -0.0389,1.325 -0.81654,2.05837 -1.04575,0.98627 -1.92516,1.01756 -2.8416,0.10112 z"
         id="path342" />
      <path
         style="fill:#ffffff;stroke-width:0.227583"
         d="m 633.49016,260.69293 c -1.76674,-1.23748 -0.90425,-4.2127 1.22123,-4.2127 0.99778,0 2.33249,1.23077 2.33249,2.15085 0,1.83692 -2.11931,3.06655 -3.55372,2.06185 z"
         id="path344" />
      <path
         style="fill:#ffffff;stroke-width:0.227583"
         d="m 633.04473,231.39465 c -1.73896,-1.73897 -0.38726,-4.13387 2.0727,-3.67238 0.97652,0.1832 1.69922,1.08165 1.69922,2.11245 0,0.59247 -0.19122,0.97859 -0.77255,1.55993 -1.04829,1.04828 -1.95109,1.04828 -2.99937,0 z"
         id="path346" />
      <path
         style="fill:#ffffff;stroke-width:0.227583"
         d="m 617.60586,231.60948 c -0.4542,-0.45421 -0.55774,-0.78509 -0.55774,-1.78258 0,-1.60102 0.48908,-2.09057 2.08856,-2.09057 0.95851,0 1.21596,0.0977 1.68032,0.63754 0.82435,0.95837 0.74309,2.05352 -0.22418,3.02078 -0.97976,0.97977 -2.13867,1.06312 -2.98696,0.21483 z"
         id="path348" />
      <path
         style="fill:#ffffff;stroke-width:0.227583"
         d="m 648.80275,231.92178 c -0.92579,-0.53922 -1.40386,-2.6078 -0.78806,-3.40985 1.07152,-1.39562 3.48322,-1.05693 4.01827,0.56431 0.62678,1.89917 -1.55509,3.82121 -3.23021,2.84554 z"
         id="path350" />
      <path
         style="fill:#ffffff;stroke-width:0.227583"
         d="m 641.64322,211.6544 c -1.8694,-1.07934 -1.56889,-3.56751 0.5139,-4.25489 1.36774,-0.45139 2.83961,0.68165 2.83961,2.18592 0,1.56915 -2.03967,2.82754 -3.35351,2.06897 z"
         id="path352" />
      <path
         style="fill:#ffffff;stroke-width:0.227583"
         d="m 625.44959,211.29167 c -1.30111,-1.30111 -1.04133,-2.99661 0.57678,-3.76446 1.17071,-0.55553 2.32211,-0.1331 2.9123,1.06849 0.54343,1.10638 0.20781,2.27386 -0.83677,2.91082 -1.02836,0.62705 -1.87935,0.55812 -2.65231,-0.21485 z"
         id="path354" />
      <path
         style="fill:#ffffff;stroke-width:0.227583"
         d="m 618.22926,191.34114 c -1.48662,-0.73264 -1.79207,-2.66521 -0.60834,-3.84893 1.52824,-1.52825 4.31554,0.48124 3.63623,2.62153 -0.15045,0.47404 -1.60403,1.61223 -2.04633,1.60233 -0.12721,-0.003 -0.56891,-0.17156 -0.98156,-0.37493 z"
         id="path356" />
      <path
         style="fill:#ffffff;stroke-width:0.227583"
         d="m 633.86285,191.46597 c -1.7821,-0.71062 -2.15319,-2.4088 -0.81812,-3.74387 0.5567,-0.5567 0.97573,-0.77257 1.49968,-0.77257 1.00586,0 2.27224,1.26204 2.27224,2.26446 0,0.96541 -0.29938,1.46546 -1.21687,2.0325 -0.85731,0.52985 -0.93421,0.53957 -1.73693,0.21948 z"
         id="path358" />
      <path
         style="fill:#ffffff;stroke-width:0.227583"
         d="m 648.38762,190.82983 c -0.96043,-0.96044 -0.92147,-2.07789 0.10837,-3.10773 0.8625,-0.86249 1.58232,-0.97651 2.65685,-0.42085 1.92381,0.99484 1.00425,4.19277 -1.20563,4.19277 -0.68667,0 -1.05021,-0.15482 -1.55959,-0.66419 z"
         id="path360" />
      <path
         style="fill:#ffffff;stroke-width:0.227583"
         d="m 632.96652,162.64919 c -0.50374,-0.50374 -0.80904,-1.79284 -0.58889,-2.48649 0.21775,-0.68605 1.45751,-1.47989 2.31119,-1.47989 0.86457,0 1.60881,0.58547 2.04053,1.60525 0.40201,0.94961 0.0415,2.01576 -0.83494,2.46897 -0.93486,0.48343 -2.39023,0.42983 -2.92789,-0.10784 z"
         id="path362" />
    </g>
  </g>
</svg>
