<svg class="main-svg" xmlns="http://www.w3.org/2000/svg" xmlns:xlink="http://www.w3.org/1999/xlink" width="1080" height="864" style="" viewBox="0 0 1080 864"><rect x="0" y="0" width="1080" height="864" style="fill: rgb(255, 255, 255); fill-opacity: 1;"/><defs id="defs-f44e5e"><g class="clips"><clipPath id="clipf44e5exyplot" class="plotclip"><rect width="581" height="724"/></clipPath><clipPath class="axesclip" id="clipf44e5ex"><rect x="80" y="0" width="581" height="864"/></clipPath><clipPath class="axesclip" id="clipf44e5ey"><rect x="0" y="60" width="1080" height="724"/></clipPath><clipPath class="axesclip" id="clipf44e5exy"><rect x="80" y="60" width="581" height="724"/></clipPath></g><g class="gradients"/><g class="patterns"/></defs><g class="bglayer"/><g class="layer-below"><g class="imagelayer"/><g class="shapelayer"/></g><g class="cartesianlayer"><g class="subplot xy"><g class="layer-subplot"><g class="shapelayer"/><g class="imagelayer"/></g><g class="minor-gridlayer"><g class="x"/><g class="y"/></g><g class="gridlayer"><g class="x"><path class="xgrid crisp" transform="translate(83.03,0)" d="M0,60v724" style="stroke: rgb(238, 238, 238); stroke-opacity: 1; stroke-width: 1px;"/><path class="xgrid crisp" transform="translate(155.65,0)" d="M0,60v724" style="stroke: rgb(238, 238, 238); stroke-opacity: 1; stroke-width: 1px;"/><path class="xgrid crisp" transform="translate(228.28,0)" d="M0,60v724" style="stroke: rgb(238, 238, 238); stroke-opacity: 1; stroke-width: 1px;"/><path class="xgrid crisp" transform="translate(300.9,0)" d="M0,60v724" style="stroke: rgb(238, 238, 238); stroke-opacity: 1; stroke-width: 1px;"/><path class="xgrid crisp" transform="translate(373.53,0)" d="M0,60v724" style="stroke: rgb(238, 238, 238); stroke-opacity: 1; stroke-width: 1px;"/><path class="xgrid crisp" transform="translate(446.15,0)" d="M0,60v724" style="stroke: rgb(238, 238, 238); stroke-opacity: 1; stroke-width: 1px;"/><path class="xgrid crisp" transform="translate(518.78,0)" d="M0,60v724" style="stroke: rgb(238, 238, 238); stroke-opacity: 1; stroke-width: 1px;"/><path class="xgrid crisp" transform="translate(591.4,0)" d="M0,60v724" style="stroke: rgb(238, 238, 238); stroke-opacity: 1; stroke-width: 1px;"/></g><g class="y"><path class="ygrid crisp" transform="translate(0,645.94)" d="M80,0h581" style="stroke: rgb(238, 238, 238); stroke-opacity: 1; stroke-width: 1px;"/><path class="ygrid crisp" transform="translate(0,544.0699999999999)" d="M80,0h581" style="stroke: rgb(238, 238, 238); stroke-opacity: 1; stroke-width: 1px;"/><path class="ygrid crisp" transform="translate(0,442.21)" d="M80,0h581" style="stroke: rgb(238, 238, 238); stroke-opacity: 1; stroke-width: 1px;"/><path class="ygrid crisp" transform="translate(0,340.34)" d="M80,0h581" style="stroke: rgb(238, 238, 238); stroke-opacity: 1; stroke-width: 1px;"/><path class="ygrid crisp" transform="translate(0,238.48)" d="M80,0h581" style="stroke: rgb(238, 238, 238); stroke-opacity: 1; stroke-width: 1px;"/><path class="ygrid crisp" transform="translate(0,136.62)" d="M80,0h581" style="stroke: rgb(238, 238, 238); stroke-opacity: 1; stroke-width: 1px;"/></g></g><g class="zerolinelayer"><path class="yzl zl crisp" transform="translate(0,747.8)" d="M80,0h581" style="stroke: rgb(68, 68, 68); stroke-opacity: 1; stroke-width: 1px;"/></g><path class="xlines-below"/><path class="ylines-below"/><g class="overlines-below"/><g class="xaxislayer-below"/><g class="yaxislayer-below"/><g class="overaxes-below"/><g class="plot" transform="translate(80,60)" clip-path="url(#clipf44e5exyplot)"><g class="scatterlayer mlayer"><g class="trace scatter trace6b4dbe" style="stroke-miterlimit: 2; opacity: 1;"><g class="fills"/><g class="errorbars"/><g class="lines"><path class="js-line" d="M0,687.8L25.72,687.8L27.23,680.91L28.75,663.62L30.26,588.66L36.31,394.57L37.83,364.25L40.85,330.09L42.36,324.56L43.88,327.55L45.39,334.21L48.42,372.01L49.93,409.28L51.44,456.89L52.96,558.14L54.47,676.79L55.98,682.71L57.49,687.8L59.01,687.8L98.35,687.8L99.86,680.61L101.37,659.4L102.89,590.76L107.42,438.01L108.94,399.04L111.96,347.86L113.48,331.95L114.99,321.38L116.5,321.09L118.02,332.16L119.53,349.75L122.55,410.03L124.07,456.26L127.09,676.3L128.61,682.56L130.12,687.8L131.63,687.8L170.97,687.8L172.48,680.24L174,655.95L175.51,591.46L180.05,430.57L181.56,390.68L184.59,338.05L186.1,328.46L187.61,321.92L189.13,322.68L190.64,344.82L192.15,503.36L193.67,576.26L195.18,477.06L196.69,441.32L198.21,542.57L199.72,658.55L201.23,677.06L202.74,687.8L204.26,687.8L243.6,687.8L245.11,680.12L246.62,646.96L248.14,587.69L252.67,431.56L254.19,392.81L257.21,335.79L258.73,320.73L260.24,317.77L261.75,323.5L263.27,334.39L264.78,351.45L267.8,410.57L269.32,451.93L270.83,539.02L272.34,675.22L275.37,687.8L276.88,687.8L314.71,687.8L316.22,681.12L317.73,674.06L319.25,657.25L320.76,600.82L322.27,515.28L323.79,584.73L325.3,522.79L328.33,384.82L329.84,360.02L331.35,345.84L332.86,342.73L334.38,367.57L335.89,372.08L337.4,370.4L338.92,381.71L341.94,618.85L343.46,646.88L346.48,681.24L347.99,687.8L388.85,687.8L390.36,677.76L393.39,647.31L394.9,625.57L396.41,600.87L397.92,553.28L399.44,533.92L400.95,581.36L402.46,607.53L403.98,600.63L405.49,581.05L407,576.75L408.52,583.83L410.03,516.8L411.54,370.03L413.05,404.91L414.57,444.37L416.08,521.71L417.59,675.27L419.11,681.82L420.62,687.8L422.13,687.8L461.47,687.8L462.98,678.91L466.01,605.78L467.52,604.45L469.04,609.63L470.55,605.01L472.06,561.42L473.58,562.1L475.09,607.32L476.6,622.99L478.11,618.28L479.63,603.04L485.68,664.56L487.19,672.08L488.71,677.75L490.22,679.89L493.24,687.8L494.76,687.8L532.58,687.8L534.1,681.08L535.61,673.5L537.12,637.01L538.64,602.21L540.15,549.85L543.17,437.3L544.69,397.39L549.23,327.55L550.74,320.76L552.25,321.31L553.77,329.77L558.3,407.03L559.82,447.58L561.33,517.05L562.84,667.26L564.36,681.39L565.87,687.8L581,687.8" style="vector-effect: non-scaling-stroke; fill: none; stroke: rgb(99, 110, 250); stroke-opacity: 1; stroke-width: 3px; opacity: 1;"/></g><g class="points"/><g class="text"/></g><g class="trace scatter traced273ab" style="stroke-miterlimit: 2; opacity: 1;"><g class="fills"/><g class="errorbars"/><g class="lines"><path class="js-line" d="M0,476.73L1.51,385.24L3.03,583.99L4.54,589.06L6.05,512.85L7.57,592.73L9.08,595.86L10.59,578.67L12.1,635.32L13.62,618.1L15.13,610.61L16.64,569.67L18.16,564.27L19.67,561.29L21.18,351.58L22.7,360.65L24.21,454.45L25.72,549.54L27.23,513.17L28.75,508.38L30.26,552.17L31.77,557.97L33.29,545.45L34.8,554.85L36.31,581.37L37.83,562.77L39.34,574.19L40.85,570.88L42.36,607.46L43.88,580.05L45.39,575.52L46.9,597.5L48.42,568.78L49.93,94.56L51.44,57.45L52.96,266.61L54.47,339.3L55.98,518.93L57.49,609.23L59.01,617L60.52,635.05L62.03,628.19L63.55,615.23L65.06,369.74L66.57,276.64L68.09,217.76L69.6,303.68L71.11,337.06L72.63,588.87L74.14,324.55L75.65,338.35L77.16,597.43L78.68,509.42L80.19,663.9L81.7,660.96L83.22,669.77L84.73,661.8L86.24,658.25L87.76,641.17L92.29,587.29L93.81,386.23L95.32,354.58L96.83,464.58L98.35,544.13L99.86,568.05L102.89,586.28L104.4,602.22L105.91,584.79L107.42,582.38L108.94,590.02L110.45,588.51L111.96,577.37L113.48,600.68L114.99,620.67L116.5,602.93L118.02,610.76L119.53,598.4L121.04,624.83L122.55,78.09L124.07,137.98L125.58,326.26L127.09,236.66L128.61,530.62L130.12,633.19L131.63,661L133.15,665.58L134.66,661.51L136.17,670.5L137.68,423.09L139.2,340.42L140.71,331.23L142.22,341.45L143.74,344.14L145.25,558.17L146.76,454.65L148.28,313.28L149.79,455.73L152.82,638.01L154.33,655.68L155.84,647.1L157.35,633.87L158.87,605.91L160.38,611.36L161.89,596.76L163.41,570.72L164.92,573.04L166.43,362.56L167.95,338.38L169.46,482.88L170.97,575.38L172.48,602.82L174,587.05L175.51,600.05L178.54,569.37L180.05,526.26L181.56,541.65L183.08,568.79L184.59,546.66L186.1,553.18L187.61,569.87L189.13,569.74L190.64,573.72L192.15,567.53L193.67,589.11L195.18,67.3L196.69,36.2L198.21,304.05L199.72,280.32L201.23,523.74L202.74,608.33L204.26,624.53L205.77,627.43L207.28,564.49L208.8,587.02L210.31,463.79L211.82,381.82L213.34,358.81L214.85,370.29L216.36,390.65L217.88,620.78L219.39,380.13L220.9,382.84L222.41,390.3L223.93,389.92L225.44,633.61L226.95,650.51L228.47,638.45L229.98,639.37L231.49,609.58L234.52,599.66L236.03,569.42L237.54,545.88L239.06,388.19L240.57,351.27L242.08,441.87L243.6,552.03L245.11,576.27L246.62,603.03L248.14,611.49L251.16,620.89L252.67,604.5L255.7,640.01L257.21,627.68L258.73,619.77L260.24,624.76L261.75,619.51L263.27,618.03L266.29,642.35L267.8,117.79L269.32,124.79L270.83,311.27L272.34,331.25L273.86,485.55L275.37,657.13L276.88,654.26L278.4,619.84L279.91,502.67L281.42,552.19L282.93,394.12L285.96,253.91L287.47,389.27L288.99,391.71L290.5,593.44L292.01,335.67L293.53,358.04L295.04,353.7L296.55,573.62L298.07,634.55L299.58,628.85L301.09,617.4L302.6,621.98L304.12,622.19L305.63,614.48L308.66,578.07L310.17,576.39L311.68,368.59L313.2,339.74L316.22,559.91L317.73,490.24L319.25,577.69L320.76,500.04L322.27,575.94L323.79,592.61L326.81,606.57L328.33,582.56L329.84,582.51L331.35,576.73L332.86,611.55L334.38,588.55L337.4,619.45L338.92,618.64L340.43,119.37L341.94,79.9L343.46,314.11L344.97,338.26L347.99,567.99L349.51,584.95L351.02,636.36L352.53,567.91L354.05,520.52L355.56,568.75L357.07,472.52L358.59,511.53L360.1,505.44L361.61,510.72L363.13,621.98L364.64,451.06L366.15,515.8L367.66,438.77L369.18,636.89L370.69,639.68L372.2,651.43L373.72,640.85L375.23,670.91L376.74,662.22L378.26,669.57L379.77,645.79L382.79,631.15L384.31,394.33L385.82,333.26L387.33,334.11L388.85,332.46L390.36,338.83L393.39,394.61L394.9,635.2L396.41,653.44L397.92,657.01L399.44,649.63L400.95,649.92L403.98,642.68L405.49,649.15L407,640.61L408.52,656.17L410.03,646.6L411.54,655.87L413.05,220.15L414.57,125.79L419.11,620.09L420.62,599.78L422.13,601.73L423.65,654.33L425.16,665.82L426.67,662.11L429.7,363.86L431.21,400.23L432.72,406.04L434.24,419.9L435.75,637.27L437.26,452.53L438.78,670.41L440.29,577.25L441.8,670.9L443.32,655.44L444.83,581.67L446.34,650.26L447.85,650.17L449.37,645.02L452.39,600.56L453.91,583.28L455.42,596.99L456.93,369.92L458.45,351.5L459.96,343.2L462.98,367.88L464.5,360.17L466.01,363.46L467.52,548.59L469.04,657.7L470.55,659.44L472.06,665.77L473.58,664.18L475.09,663.37L476.6,670.77L478.11,661.38L479.63,670.38L482.65,653.02L484.17,636.14L485.68,130.34L487.19,317.12L488.71,345.62L490.22,276.06L491.73,508.57L493.24,566.31L494.76,493.74L496.27,625.03L497.78,656.63L499.3,651.4L502.32,365.3L503.84,398.47L505.35,414.12L506.86,447.41L508.38,638.96L509.89,376.11L511.4,365.37L512.91,366.12L515.94,376.95L517.45,645.65L518.97,595.94L520.48,639.44L521.99,660.4L523.51,669.54L525.02,661.83L526.53,663.48L528.04,643.08L529.56,420.66L531.07,340.71L532.58,526.48L534.1,627.57L535.61,613.4L537.12,644.08L538.64,628.67L540.15,635.37L541.66,624.17L543.17,607.51L544.69,603.27L546.2,599.17L547.71,624.06L549.23,607.15L550.74,616.34L552.25,618.6L553.77,643.2L555.28,633.38L556.79,639.98L558.3,106.22L559.82,202.25L561.33,319.51L562.84,252.05L564.36,556.6L565.87,563.68L567.38,497.27L568.9,592.02L570.41,652.43L571.92,552.42L573.43,489.99L574.95,311.68L576.46,339.56L577.97,432.91L579.49,455.99L581,637.18" style="vector-effect: non-scaling-stroke; fill: none; stroke: rgb(239, 85, 59); stroke-opacity: 1; stroke-width: 3px; opacity: 1;"/></g><g class="points"/><g class="text"/></g></g></g><g class="overplot"/><path class="xlines-above crisp" d="M0,0" style="fill: none;"/><path class="ylines-above crisp" d="M0,0" style="fill: none;"/><g class="overlines-above"/><g class="xaxislayer-above"><g class="xtick"><text text-anchor="middle" x="0" y="803" transform="translate(83.03,0)" style="font-family: 'Open Sans', verdana, arial, sans-serif; font-size: 18px; fill: rgb(68, 68, 68); fill-opacity: 1; white-space: pre; opacity: 1;"><tspan class="line" dy="0em" x="0" y="803">Feb 13</tspan><tspan class="line" dy="1.3em" x="0" y="803">2023</tspan></text></g><g class="xtick"><text text-anchor="middle" x="0" y="803" style="font-family: 'Open Sans', verdana, arial, sans-serif; font-size: 18px; fill: rgb(68, 68, 68); fill-opacity: 1; white-space: pre; opacity: 1;" transform="translate(155.65,0)">Feb 14</text></g><g class="xtick"><text text-anchor="middle" x="0" y="803" style="font-family: 'Open Sans', verdana, arial, sans-serif; font-size: 18px; fill: rgb(68, 68, 68); fill-opacity: 1; white-space: pre; opacity: 1;" transform="translate(228.28,0)">Feb 15</text></g><g class="xtick"><text text-anchor="middle" x="0" y="803" style="font-family: 'Open Sans', verdana, arial, sans-serif; font-size: 18px; fill: rgb(68, 68, 68); fill-opacity: 1; white-space: pre; opacity: 1;" transform="translate(300.9,0)">Feb 16</text></g><g class="xtick"><text text-anchor="middle" x="0" y="803" style="font-family: 'Open Sans', verdana, arial, sans-serif; font-size: 18px; fill: rgb(68, 68, 68); fill-opacity: 1; white-space: pre; opacity: 1;" transform="translate(373.53,0)">Feb 17</text></g><g class="xtick"><text text-anchor="middle" x="0" y="803" style="font-family: 'Open Sans', verdana, arial, sans-serif; font-size: 18px; fill: rgb(68, 68, 68); fill-opacity: 1; white-space: pre; opacity: 1;" transform="translate(446.15,0)">Feb 18</text></g><g class="xtick"><text text-anchor="middle" x="0" y="803" style="font-family: 'Open Sans', verdana, arial, sans-serif; font-size: 18px; fill: rgb(68, 68, 68); fill-opacity: 1; white-space: pre; opacity: 1;" transform="translate(518.78,0)">Feb 19</text></g><g class="xtick"><text text-anchor="middle" x="0" y="803" style="font-family: 'Open Sans', verdana, arial, sans-serif; font-size: 18px; fill: rgb(68, 68, 68); fill-opacity: 1; white-space: pre; opacity: 1;" transform="translate(591.4,0)">Feb 20</text></g></g><g class="yaxislayer-above"><g class="ytick"><text text-anchor="end" x="79" y="6.3" transform="translate(0,747.8)" style="font-family: 'Open Sans', verdana, arial, sans-serif; font-size: 18px; fill: rgb(68, 68, 68); fill-opacity: 1; white-space: pre; opacity: 1;">0</text></g><g class="ytick"><text text-anchor="end" x="79" y="6.3" style="font-family: 'Open Sans', verdana, arial, sans-serif; font-size: 18px; fill: rgb(68, 68, 68); fill-opacity: 1; white-space: pre; opacity: 1;" transform="translate(0,645.94)">1000</text></g><g class="ytick"><text text-anchor="end" x="79" y="6.3" style="font-family: 'Open Sans', verdana, arial, sans-serif; font-size: 18px; fill: rgb(68, 68, 68); fill-opacity: 1; white-space: pre; opacity: 1;" transform="translate(0,544.0699999999999)">2000</text></g><g class="ytick"><text text-anchor="end" x="79" y="6.3" style="font-family: 'Open Sans', verdana, arial, sans-serif; font-size: 18px; fill: rgb(68, 68, 68); fill-opacity: 1; white-space: pre; opacity: 1;" transform="translate(0,442.21)">3000</text></g><g class="ytick"><text text-anchor="end" x="79" y="6.3" style="font-family: 'Open Sans', verdana, arial, sans-serif; font-size: 18px; fill: rgb(68, 68, 68); fill-opacity: 1; white-space: pre; opacity: 1;" transform="translate(0,340.34)">4000</text></g><g class="ytick"><text text-anchor="end" x="79" y="6.3" style="font-family: 'Open Sans', verdana, arial, sans-serif; font-size: 18px; fill: rgb(68, 68, 68); fill-opacity: 1; white-space: pre; opacity: 1;" transform="translate(0,238.48)">5000</text></g><g class="ytick"><text text-anchor="end" x="79" y="6.3" style="font-family: 'Open Sans', verdana, arial, sans-serif; font-size: 18px; fill: rgb(68, 68, 68); fill-opacity: 1; white-space: pre; opacity: 1;" transform="translate(0,136.62)">6000</text></g></g><g class="overaxes-above"/></g></g><g class="polarlayer"/><g class="smithlayer"/><g class="ternarylayer"/><g class="geolayer"/><g class="funnelarealayer"/><g class="pielayer"/><g class="iciclelayer"/><g class="treemaplayer"/><g class="sunburstlayer"/><g class="glimages"/><defs id="topdefs-f44e5e"><g class="clips"/><clipPath id="legendf44e5e"><rect width="395" height="92" x="0" y="0"/></clipPath></defs><g class="layer-above"><g class="imagelayer"/><g class="shapelayer"/></g><g class="infolayer"><g class="legend" pointer-events="all" transform="translate(672.62,60)"><rect class="bg" shape-rendering="crispEdges" style="stroke: rgb(68, 68, 68); stroke-opacity: 1; fill: rgb(255, 255, 255); fill-opacity: 1; stroke-width: 0px;" width="395" height="92" x="0" y="0"/><g class="scrollbox" transform="" clip-path="url(#legendf44e5e)"><text class="legendtitletext" text-anchor="start" x="2" y="28.6" style="font-family: 'Open Sans', verdana, arial, sans-serif; font-size: 22px; fill: rgb(68, 68, 68); fill-opacity: 1; white-space: pre;">variable</text><g class="groups" transform=""><g class="traces" transform="translate(0,46.800000000000004)" style="opacity: 1;"><text class="legendtext" text-anchor="start" x="40" y="7.0200000000000005" style="font-family: 'Open Sans', verdana, arial, sans-serif; font-size: 18px; fill: rgb(68, 68, 68); fill-opacity: 1; white-space: pre;">sensor.power_photovoltaics</text><g class="layers" style="opacity: 1;"><g class="legendfill"/><g class="legendlines"><path class="js-line" d="M5,0h30" style="fill: none; stroke: rgb(99, 110, 250); stroke-opacity: 1; stroke-width: 3px;"/></g><g class="legendsymbols"><g class="legendpoints"/></g></g><rect class="legendtoggle" x="0" y="-13.200000000000001" width="389.90625" height="26.400000000000002" style="fill: rgb(0, 0, 0); fill-opacity: 0;"/></g></g><g class="groups" transform=""><g class="traces" transform="translate(0,73.2)" style="opacity: 1;"><text class="legendtext" text-anchor="start" x="40" y="7.0200000000000005" style="font-family: 'Open Sans', verdana, arial, sans-serif; font-size: 18px; fill: rgb(68, 68, 68); fill-opacity: 1; white-space: pre;">sensor.power_load_no_var_loads_positive</text><g class="layers" style="opacity: 1;"><g class="legendfill"/><g class="legendlines"><path class="js-line" d="M5,0h30" style="fill: none; stroke: rgb(239, 85, 59); stroke-opacity: 1; stroke-width: 3px;"/></g><g class="legendsymbols"><g class="legendpoints"/></g></g><rect class="legendtoggle" x="0" y="-13.200000000000001" width="389.90625" height="26.400000000000002" style="fill: rgb(0, 0, 0); fill-opacity: 0;"/></g></g></g><rect class="scrollbar" rx="20" ry="3" width="0" height="0" style="fill: rgb(128, 139, 164); fill-opacity: 1;" x="0" y="0"/></g><g class="g-gtitle"/><g class="g-xtitle" transform="translate(0,-3.3062499999999773)"><text class="xtitle" x="370.5" y="861.30625" text-anchor="middle" style="font-family: 'Open Sans', verdana, arial, sans-serif; font-size: 22px; fill: rgb(68, 68, 68); opacity: 1; font-weight: normal; white-space: pre;">Time</text></g><g class="g-ytitle" transform="translate(16.072265625,0)"><text class="ytitle" transform="rotate(-90,7.928124999999994,422)" x="7.928124999999994" y="422" text-anchor="middle" style="font-family: 'Open Sans', verdana, arial, sans-serif; font-size: 22px; fill: rgb(68, 68, 68); opacity: 1; font-weight: normal; white-space: pre;">Powers (W)</text></g></g></svg>